{
.appVersion = "1056";
copyright = "Copyright (c) 2017, Carl Enlund";
customParameters = (
{
name = vendorID;
value = Bird;
},
{
name = panose;
value = (
0,
0,
0,
0,
0,
0,
0,
0,
0,
0
);
},
{
name = unicodeRanges;
value = (
0
);
},
{
name = codePageRanges;
value = (
1252,
1250,
1251,
1253,
1254,
1255,
1256,
1257,
874,
932,
936,
949,
950,
1361,
869,
865,
864,
863,
862,
861,
860,
857,
855,
852,
775,
737,
850,
437
);
},
{
name = glyphOrder;
value = (
.notdef,
.null,
nonmarkingreturn,
space,
exclam,
quotedbl,
numbersign,
dollar,
percent,
ampersand,
quotesingle,
parenleft,
parenright,
asterisk,
plus,
comma,
hyphen,
period,
slash,
zero,
one,
two,
three,
four,
five,
six,
seven,
eight,
nine,
colon,
semicolon,
less,
equal,
greater,
question,
at,
A,
B,
C,
D,
E,
F,
G,
H,
I,
J,
K,
L,
M,
N,
O,
P,
Q,
R,
S,
T,
U,
V,
W,
X,
Y,
Z,
bracketleft,
backslash,
bracketright,
asciicircum,
underscore,
grave,
a,
b,
c,
d,
e,
f,
g,
h,
i,
j,
k,
l,
m,
n,
o,
p,
q,
r,
s,
t,
u,
v,
w,
x,
y,
z,
braceleft,
bar,
braceright,
asciitilde,
exclamdown,
cent,
sterling,
currency,
yen,
section,
copyright,
ordfeminine,
guillemotleft,
registered,
degree,
twosuperior,
threesuperior,
paragraph,
periodcentered,
onesuperior,
ordmasculine,
guillemotright,
questiondown,
Agrave,
Aacute,
Acircumflex,
Atilde,
Adieresis,
Aring,
AE,
Ccedilla,
Egrave,
Eacute,
Ecircumflex,
Edieresis,
Igrave,
Iacute,
Icircumflex,
Idieresis,
Ntilde,
Ograve,
Oacute,
Ocircumflex,
Otilde,
Odieresis,
multiply,
Oslash,
Ugrave,
Uacute,
Ucircumflex,
Udieresis,
Yacute,
germandbls,
agrave,
aacute,
acircumflex,
atilde,
adieresis,
aring,
ae,
ccedilla,
egrave,
eacute,
ecircumflex,
edieresis,
igrave,
iacute,
icircumflex,
idieresis,
ntilde,
ograve,
oacute,
ocircumflex,
otilde,
odieresis,
divide,
oslash,
ugrave,
uacute,
ucircumflex,
udieresis,
yacute,
ydieresis,
dotlessi,
OE,
oe,
Scaron,
scaron,
Ydieresis,
Zcaron,
zcaron,
uni2010,
uni2011,
uni2012,
endash,
emdash,
quoteleft,
quoteright,
quotesinglbase,
quotedblleft,
quotedblright,
quotedblbase,
dagger,

glyphs = (
{
glyphname = .notdef;
lastChange = "2019-10-01 13:15:09 +0000";
layers = (
{
layerId = "EB4C1DB0-6908-4E17-8095-5E13FC3F8D5C";
paths = (
{
closed = 1;
nodes = (
"471 0 LINE",
"471 553 LINE",
"72 553 LINE",
"72 0 LINE"
);
},
{
closed = 1;
nodes = (
"394 72 LINE",
"148 72 LINE",
"148 481 LINE",
"394 481 LINE"
);
}
);
width = 543;
}
);
note = .notdef;
},
{
glyphname = exclam;
lastChange = "2019-10-01 13:15:09 +0000";
layers = (
{
layerId = "EB4C1DB0-6908-4E17-8095-5E13FC3F8D5C";
paths = (
{
closed = 1;
nodes = (
"158.67 -5 OFFCURVE",
"175 1 OFFCURVE",
"187 13 CURVE SMOOTH",
"199 25 OFFCURVE",
"205 40.33 OFFCURVE",
"205 59 CURVE SMOOTH",
"205 77.67 OFFCURVE",
"199 93 OFFCURVE",
"187 105 CURVE SMOOTH",
"175 117 OFFCURVE",
"158.67 123 OFFCURVE",
"138 123 CURVE SMOOTH",
"118 123 OFFCURVE",
"102 117 OFFCURVE",
"90 105 CURVE SMOOTH",
"78 93 OFFCURVE",
"72 77.67 OFFCURVE",
"72 59 CURVE SMOOTH",
"72 40.33 OFFCURVE",
"78 25 OFFCURVE",
"90 13 CURVE SMOOTH",
"102 1 OFFCURVE",
"118 -5 OFFCURVE",
"138 -5 CURVE SMOOTH"
);
},
{
closed = 1;
nodes = (
"182 179 LINE",
"192 553 LINE",
"84 553 LINE",
"95 179 LINE"
);
}
);
width = 276;
}
);
note = exclam;
unicode = 0021;
},
{
glyphname = quotedbl;
lastChange = "2019-10-01 13:15:09 +0000";
layers = (
{
layerId = "EB4C1DB0-6908-4E17-8095-5E13FC3F8D5C";
paths = (
{
closed = 1;
nodes = (
"333 348 LINE",
"353 579 LINE",
"236 579 LINE",
"256 348 LINE"
);
},
{
closed = 1;
nodes = (
"154 348 LINE",
"174 579 LINE",
"56 579 LINE",
"77 348 LINE"
);
}
);
width = 410;
}
);
note = quotedbl;
unicode = 0022;
},
{
glyphname = numbersign;
lastChange = "2019-10-01 13:15:09 +0000";
layers = (
{
layerId = "EB4C1DB0-6908-4E17-8095-5E13FC3F8D5C";
paths = (
{
closed = 1;
nodes = (
"487.41 415 LINE",
"507 553 LINE",
"430 553 LINE",
"409.72 415 LINE",
"281.66 415 LINE",
"302 553 LINE",
"223 553 LINE",
"202.4 415 LINE",
"51 415 LINE",
"51 343 LINE",
"191.67 343 LINE",
"173.39 220 LINE",
"51 220 LINE",
"51 148 LINE",
"162.73 148 LINE",
"141 0 LINE",
"220 0 LINE",
"242.04 148 LINE",
"370.58 148 LINE",
"349 0 LINE",
"428 0 LINE",
"449.24 148 LINE",
"594 148 LINE",
"594 220 LINE",
"459.55 220 LINE",
"477.14 343 LINE",
"594 343 LINE",
"594 415 LINE"
);
},
{
closed = 1;
nodes = (
"399.15 343 LINE",
"381.11 220 LINE",
"252.74 220 LINE",
"271 343 LINE"
);
}
);
width = 645;
}
);
note = numbersign;
unicode = 0023;
},
{
glyphname = dollar;
lastChange = "2019-10-01 20:03:33 +0000";
layers = (
{
components = (
{
name = S;
}
);
layerId = "EB4C1DB0-6908-4E17-8095-5E13FC3F8D5C";
paths = (
{
closed = 1;
nodes = (
"264 655 LINE",
"264 -102 LINE",
"310 -102 LINE",
"310 655 LINE"
);
}
);
width = 573;
}
);
note = dollar;
unicode = 0024;
},
{
glyphname = percent;
lastChange = "2019-10-01 20:04:05 +0000";
layers = (
{
layerId = "EB4C1DB0-6908-4E17-8095-5E13FC3F8D5C";
paths = (
{
closed = 1;
nodes = (
"738 230 OFFCURVE",
"683 297 OFFCURVE",
"595 297 CURVE SMOOTH",
"508 297 OFFCURVE",
"451 233 OFFCURVE",
"451 149 CURVE SMOOTH",
"451 66 OFFCURVE",
"506 0 OFFCURVE",
"595 0 CURVE SMOOTH",
"681 0 OFFCURVE",
"738 64 OFFCURVE",
"738 149 CURVE SMOOTH"
);
},
{
closed = 1;
nodes = (
"669 106 OFFCURVE",
"643 63 OFFCURVE",
"595 63 CURVE SMOOTH",
"548 63 OFFCURVE",
"520 104 OFFCURVE",
"520 149 CURVE SMOOTH",
"520 191 OFFCURVE",
"548 234 OFFCURVE",
"595 234 CURVE SMOOTH",
"639 234 OFFCURVE",
"669 193 OFFCURVE",
"669 149 CURVE SMOOTH"
);
},
{
closed = 1;
nodes = (
"41 322 OFFCURVE",
"96 256 OFFCURVE",
"185 256 CURVE SMOOTH",
"271 256 OFFCURVE",
"329 321 OFFCURVE",
"329 404 CURVE SMOOTH",
"329 485 OFFCURVE",
"273 553 OFFCURVE",
"185 553 CURVE SMOOTH",
"99 553 OFFCURVE",
"41 488 OFFCURVE",
"41 404 CURVE SMOOTH"
);
},
{
closed = 1;
nodes = (
"111 448 OFFCURVE",
"136 490 OFFCURVE",
"185 490 CURVE SMOOTH",
"232 490 OFFCURVE",
"259 449 OFFCURVE",
"259 404 CURVE SMOOTH",
"259 360 OFFCURVE",
"228 319 OFFCURVE",
"185 319 CURVE SMOOTH",
"141 319 OFFCURVE",
"111 361 OFFCURVE",
"111 404 CURVE SMOOTH"
);
},
{
closed = 1;
nodes = (
"521 553 LINE",
"188 0 LINE",
"261 0 LINE",
"594 553 LINE"
);
}
);
width = 780;
}
);
note = percent;
unicode = 0025;
},
{
glyphname = ampersand;
lastChange = "2019-10-01 19:46:04 +0000";
layers = (
{
layerId = "EB4C1DB0-6908-4E17-8095-5E13FC3F8D5C";
paths = (
{
closed = 1;
nodes = (
"454 278 LINE",
"454 241 OFFCURVE",
"442 202 OFFCURVE",
"422.39 169.37 CURVE",
"301.41 286.27 LINE",
"343 302 OFFCURVE",
"386 327 OFFCURVE",
"409 364 CURVE SMOOTH",
"420.33 382 OFFCURVE",
"425.67 405 OFFCURVE",
"425 433 CURVE",
"425 509 OFFCURVE",
"356 566 OFFCURVE",
"267 566 CURVE SMOOTH",
"179 566 OFFCURVE",
"103 515 OFFCURVE",
"103 424 CURVE SMOOTH",
"103 391 OFFCURVE",
"112 363 OFFCURVE",
"131 340 CURVE",
"158.35 308.75 LINE",
"91 283 OFFCURVE",
"42 233 OFFCURVE",
"44 157 CURVE SMOOTH",
"44 46 OFFCURVE",
"135 -9 OFFCURVE",
"250 -9 CURVE SMOOTH",
"251 -9 LINE SMOOTH",
"319 -9 OFFCURVE",
"376 9 OFFCURVE",
"426.95 51.77 CURVE",
"482 0 LINE",
"597 0 LINE",
"483.11 110.54 LINE",
"518 157 OFFCURVE",
"543 222 OFFCURVE",
"543 278 CURVE"
);
},
{
closed = 1;
nodes = (
"367.12 108.13 LINE",
"331 84 OFFCURVE",
"295 70 OFFCURVE",
"255 70 CURVE SMOOTH",
"194 70 OFFCURVE",
"140 100 OFFCURVE",
"141 166 CURVE SMOOTH",
"141 208 OFFCURVE",
"170 232 OFFCURVE",
"212.93 253.58 CURVE"
);
},
{
closed = 1;
nodes = (
"209 378 OFFCURVE",
"198 386 OFFCURVE",
"198 423.01 CURVE SMOOTH",
"198 461 OFFCURVE",
"230 487 OFFCURVE",
"270 487.01 CURVE SMOOTH",
"305 487 OFFCURVE",
"341 464 OFFCURVE",
"342 424.01 CURVE",
"342 397.34 OFFCURVE",
"329 377.68 OFFCURVE",
"303 365.01 CURVE SMOOTH",
"286.02 356.74 OFFCURVE",
"267.34 348.75 OFFCURVE",
"246.96 341.05 CURVE"
);
}
);
width = 594;
}
);
note = ampersand;
unicode = 0026;
},
{
glyphname = quotesingle;
lastChange = "2019-10-01 13:15:09 +0000";
layers = (
{
layerId = "EB4C1DB0-6908-4E17-8095-5E13FC3F8D5C";
paths = (
{
closed = 1;
nodes = (
"154 348 LINE",
"174 579 LINE",
"56 579 LINE",
"77 348 LINE"
);
}
);
width = 230;
}
);
note = quotesingle;
unicode = 0027;
},
{
glyphname = parenleft;
lastChange = "2019-10-01 19:44:52 +0000";
layers = (
{
layerId = "EB4C1DB0-6908-4E17-8095-5E13FC3F8D5C";
paths = (
{
closed = 1;
nodes = (
"202 645 LINE",
"104 562 OFFCURVE",
"69 405 OFFCURVE",
"69 248 CURVE SMOOTH",
"69 94 OFFCURVE",
"104 -66 OFFCURVE",
"202 -148 CURVE",
"264 -148 LINE",
"181 -32 OFFCURVE",
"156 96 OFFCURVE",
"156 248 CURVE SMOOTH",
"156 397 OFFCURVE",
"179 528 OFFCURVE",
"264 645 CURVE"
);
}
);
width = 276;
}
);
note = parenleft;
unicode = 0028;
},
{
glyphname = parenright;
lastChange = "2019-10-01 19:44:45 +0000";
layers = (
{
layerId = "EB4C1DB0-6908-4E17-8095-5E13FC3F8D5C";
paths = (
{
closed = 1;
nodes = (
"13 645 LINE",
"96 528 OFFCURVE",
"120 400 OFFCURVE",
"120 248 CURVE SMOOTH",
"120 99 OFFCURVE",
"96 -30 OFFCURVE",
"13 -148 CURVE",
"74 -148 LINE",
"170 -69 OFFCURVE",
"207 91 OFFCURVE",
"207 248 CURVE SMOOTH",
"207 402 OFFCURVE",
"172 563 OFFCURVE",
"74 645 CURVE"
);
}
);
width = 277;
}
);
note = parenright;
unicode = 0029;
},
{
glyphname = asterisk;
lastChange = "2019-10-01 20:04:28 +0000";
layers = (
{
layerId = "EB4C1DB0-6908-4E17-8095-5E13FC3F8D5C";
paths = (
{
closed = 1;
nodes = (
"335 172 LINE",
"401 220 LINE",
"312.84 335.09 LINE",
"458 378 LINE",
"432 456 LINE",
"291.44 406.42 LINE",
"295 553 LINE",
"208 553 LINE",
"212.17 405.76 LINE",
"71 456 LINE",
"46 378 LINE",
"190.72 334.61 LINE",
"103 220 LINE",
"169 172 LINE",
"251.89 292.66 LINE"
);
}
);
width = 504;
}
);
note = asterisk;
unicode = 002A;
},
{
glyphname = plus;
lastChange = "2019-10-01 13:15:09 +0000";
layers = (
{
layerId = "EB4C1DB0-6908-4E17-8095-5E13FC3F8D5C";
paths = (
{
closed = 1;
nodes = (
"233 297 LINE",
"51 297 LINE",
"51 220 LINE",
"233 220 LINE",
"233 38 LINE",
"320 38 LINE",
"320 220 LINE",
"502 220 LINE",
"502 297 LINE",
"320 297 LINE",
"320 468 LINE",
"233 468 LINE"
);
}
);
width = 553;
}
);
note = plus;
unicode = 002B;
},
{
glyphname = comma;
lastChange = "2019-10-01 13:15:09 +0000";
layers = (
{
layerId = "EB4C1DB0-6908-4E17-8095-5E13FC3F8D5C";
paths = (
{
closed = 1;
nodes = (
"123 -108 LINE",
"205 123 LINE",
"87 123 LINE",
"46 -108 LINE"
);
}
);
width = 251;
}
);
note = comma;
unicode = 002C;
},
{
glyphname = hyphen;
lastChange = "2019-10-01 13:15:09 +0000";
layers = (
{
layerId = "EB4C1DB0-6908-4E17-8095-5E13FC3F8D5C";
paths = (
{
closed = 1;
nodes = (
"51 305 LINE",
"51 223 LINE",
"348 223 LINE",
"348 305 LINE"
);
}
);
width = 400;
}
);
note = hyphen;
unicode = 002D;
},
{
glyphname = period;
lastChange = "2019-10-01 19:58:36 +0000";
layers = (
{
layerId = "EB4C1DB0-6908-4E17-8095-5E13FC3F8D5C";
paths = (
{
closed = 1;
nodes = (
"163 -5 OFFCURVE",
"189 19 OFFCURVE",
"189 59 CURVE SMOOTH",
"189 96 OFFCURVE",
"166 123 OFFCURVE",
"123 123 CURVE SMOOTH",
"83 123 OFFCURVE",
"56 98 OFFCURVE",
"56 59 CURVE SMOOTH",
"56 23 OFFCURVE",
"80 -5 OFFCURVE",
"123 -5 CURVE SMOOTH"
);
}
);
width = 246;
}
);
note = period;
unicode = 002E;
},
{
glyphname = slash;
lastChange = "2019-10-01 19:58:44 +0000";
layers = (
{
layerId = "EB4C1DB0-6908-4E17-8095-5E13FC3F8D5C";
paths = (
{
closed = 1;
nodes = (
"105 -61 LINE",
"353 553 LINE",
"269 553 LINE",
"20 -61 LINE"
);
}
);
width = 378;
}
);
note = slash;
unicode = 002F;
},
{
glyphname = zero;
lastChange = "2019-10-01 19:58:58 +0000";
layers = (
{
layerId = "EB4C1DB0-6908-4E17-8095-5E13FC3F8D5C";
paths = (
{
closed = 1;
nodes = (
"435 163 OFFCURVE",
"390 69 OFFCURVE",
"292 69 CURVE SMOOTH",
"193 69 OFFCURVE",
"148 165 OFFCURVE",
"148 274 CURVE SMOOTH",
"148 383 OFFCURVE",
"195 479 OFFCURVE",
"292 479 CURVE SMOOTH",
"387 479 OFFCURVE",
"435 387 OFFCURVE",
"435 274 CURVE SMOOTH"
);
},
{
closed = 1;
nodes = (
"455 -10 OFFCURVE",
"540 107 OFFCURVE",
"540 274 CURVE SMOOTH",
"540 438 OFFCURVE",
"457 563 OFFCURVE",
"292 563 CURVE SMOOTH",
"129 563 OFFCURVE",
"44 442 OFFCURVE",
"44 274 CURVE SMOOTH",
"44 109 OFFCURVE",
"126 -10 OFFCURVE",
"292 -10 CURVE SMOOTH"
);
}
);
width = 583;
}
);
note = zero;
unicode = 0030;
},
{
glyphname = one;
lastChange = "2019-10-01 19:46:37 +0000";
layers = (
{
layerId = "EB4C1DB0-6908-4E17-8095-5E13FC3F8D5C";
paths = (
{
closed = 1;
nodes = (
"128 507 OFFCURVE",
"100 491 OFFCURVE",
"31 461 CURVE",
"31 369 LINE",
"97 397 OFFCURVE",
"132 416 OFFCURVE",
"200 461 CURVE",
"200 0 LINE",
"302 0 LINE",
"302 553 LINE",
"200 553 LINE"
);
}
);
width = 379;
}
);
note = one;
unicode = 0031;
},
{
glyphname = two;
lastChange = "2019-10-01 19:48:16 +0000";
layers = (
{
layerId = "EB4C1DB0-6908-4E17-8095-5E13FC3F8D5C";
paths = (
{
closed = 1;
nodes = (
"148 369 LINE",
"148 433 OFFCURVE",
"188 484 OFFCURVE",
"259 484 CURVE SMOOTH",
"324 484 OFFCURVE",
"369 448 OFFCURVE",
"369 389 CURVE SMOOTH",
"369 331 OFFCURVE",
"320 295 OFFCURVE",
"247 253 CURVE SMOOTH",
"125 183 OFFCURVE",
"52 135 OFFCURVE",
"52 28 CURVE",
"51 0 LINE",
"476 0 LINE",
"476 82 LINE",
"170.98 82 LINE",
"193 116 OFFCURVE",
"242 148 OFFCURVE",
"287 170 CURVE SMOOTH",
"394 226 OFFCURVE",
"476 286 OFFCURVE",
"476 389 CURVE SMOOTH",
"476 504 OFFCURVE",
"378 566 OFFCURVE",
"259 566 CURVE SMOOTH",
"143 566 OFFCURVE",
"41 491 OFFCURVE",
"41 369 CURVE"
);
}
);
width = 517;
}
);
note = two;
unicode = 0032;
},
{
glyphname = three;
lastChange = "2019-10-01 19:49:56 +0000";
layers = (
{
layerId = "EB4C1DB0-6908-4E17-8095-5E13FC3F8D5C";
paths = (
{
closed = 1;
nodes = (
"195 69 OFFCURVE",
"148 104 OFFCURVE",
"148 174 CURVE",
"41 174 LINE",
"41 55 OFFCURVE",
"139 -13 OFFCURVE",
"259 -13 CURVE SMOOTH",
"367 -13 OFFCURVE",
"476 44 OFFCURVE",
"476 154 CURVE SMOOTH",
"476 214 OFFCURVE",
"442 253 OFFCURVE",
"376.02 284.14 CURVE",
"427 308 OFFCURVE",
"463 346 OFFCURVE",
"463 407 CURVE SMOOTH",
"463 510 OFFCURVE",
"365 566 OFFCURVE",
"259 566 CURVE SMOOTH",
"146 566 OFFCURVE",
"44 501 OFFCURVE",
"44 387 CURVE",
"151 387 LINE",
"151 445 OFFCURVE",
"191 484 OFFCURVE",
"259 484 CURVE SMOOTH",
"318 484 OFFCURVE",
"356 454 OFFCURVE",
"356 402 CURVE SMOOTH",
"356 352 OFFCURVE",
"314 325 OFFCURVE",
"253 325 CURVE SMOOTH",
"202 325 LINE",
"202 246 LINE",
"248 246 LINE SMOOTH",
"307 246 OFFCURVE",
"369 218 OFFCURVE",
"369 156 CURVE SMOOTH",
"368 102 OFFCURVE",
"324 69 OFFCURVE",
"259 69 CURVE SMOOTH"
);
}
);
width = 517;
}
);
note = three;
unicode = 0033;
},
{
glyphname = four;
lastChange = "2019-10-01 13:15:09 +0000";
layers = (
{
layerId = "EB4C1DB0-6908-4E17-8095-5E13FC3F8D5C";
paths = (
{
closed = 1;
nodes = (
"141 195 LINE",
"335 443.24 LINE",
"335 195 LINE"
);
},
{
closed = 1;
nodes = (
"36 118 LINE",
"335 118 LINE",
"335 0 LINE",
"438 0 LINE",
"438 118 LINE",
"509 118 LINE",
"509 195 LINE",
"438 195 LINE",
"438 553 LINE",
"317 553 LINE",
"36 192 LINE"
);
}
);
width = 545;
}
);
note = four;
unicode = 0034;
},
{
glyphname = five;
lastChange = "2019-10-01 19:50:33 +0000";
layers = (
{
layerId = "EB4C1DB0-6908-4E17-8095-5E13FC3F8D5C";
paths = (
{
closed = 1;
nodes = (
"190 69 OFFCURVE",
"148 118 OFFCURVE",
"148 184 CURVE",
"41 184 LINE",
"41 64 OFFCURVE",
"140 -13 OFFCURVE",
"259 -13 CURVE SMOOTH",
"374 -13 OFFCURVE",
"476 59 OFFCURVE",
"476 177 CURVE SMOOTH",
"476 178 LINE SMOOTH",
"476 293 OFFCURVE",
"392 364 OFFCURVE",
"278 364 CURVE SMOOTH",
"238 364 OFFCURVE",
"208 358 OFFCURVE",
"174.33 340 CURVE",
"193.07 471 LINE",
"444.99 471 LINE",
"444.99 553 LINE",
"107.99 553 LINE",
"68.99 278 LINE",
"160.99 246 LINE",
"186 269 OFFCURVE",
"217 282 OFFCURVE",
"258.99 282 CURVE SMOOTH",
"323 282 OFFCURVE",
"369 234 OFFCURVE",
"368.99 174 CURVE SMOOTH",
"369 116 OFFCURVE",
"326 69 OFFCURVE",
"258.99 69 CURVE SMOOTH"
);
}
);
width = 517;
}
);
note = five;
unicode = 0035;
},
{
glyphname = six;
lastChange = "2019-10-01 19:51:35 +0000";
layers = (
{
layerId = "EB4C1DB0-6908-4E17-8095-5E13FC3F8D5C";
paths = (
{
closed = 1;
nodes = (
"207 69 OFFCURVE",
"159 114 OFFCURVE",
"159 174 CURVE SMOOTH",
"159 238 OFFCURVE",
"205 282 OFFCURVE",
"269 282 CURVE SMOOTH",
"329 282 OFFCURVE",
"379 240 OFFCURVE",
"379 174 CURVE SMOOTH",
"379 116 OFFCURVE",
"335 69 OFFCURVE",
"270 69 CURVE SMOOTH"
);
},
{
closed = 1;
nodes = (
"148 395 OFFCURVE",
"176 484 OFFCURVE",
"275 484 CURVE SMOOTH",
"329 484 OFFCURVE",
"369 451 OFFCURVE",
"369 404 CURVE",
"476 404 LINE",
"476 498 OFFCURVE",
"383 566 OFFCURVE",
"274 566 CURVE SMOOTH",
"112 566 OFFCURVE",
"46 450 OFFCURVE",
"46 276 CURVE SMOOTH",
"46 105 OFFCURVE",
"115 -13 OFFCURVE",
"282 -13 CURVE SMOOTH",
"390 -13 OFFCURVE",
"486 62 OFFCURVE",
"486 177 CURVE SMOOTH",
"486 178 LINE SMOOTH",
"486 290 OFFCURVE",
"400 364 OFFCURVE",
"290 364 CURVE SMOOTH",
"230 364 OFFCURVE",
"184 344 OFFCURVE",
"150.56 296.28 CURVE"
);
}
);
width = 533;
}
);
note = six;
unicode = 0036;
},
{
glyphname = seven;
lastChange = "2019-10-01 19:51:44 +0000";
layers = (
{
layerId = "EB4C1DB0-6908-4E17-8095-5E13FC3F8D5C";
paths = (
{
closed = 1;
nodes = (
"344.67 471 LINE",
"232 325 OFFCURVE",
"144 168 OFFCURVE",
"113 0 CURVE",
"220 0 LINE",
"249 171 OFFCURVE",
"346 337 OFFCURVE",
"468 492 CURVE",
"468 553 LINE",
"23 553 LINE",
"23 471 LINE"
);
}
);
width = 492;
}
);
note = seven;
unicode = 0037;
},
{
glyphname = eight;
lastChange = "2019-10-01 19:52:35 +0000";
layers = (
{
layerId = "EB4C1DB0-6908-4E17-8095-5E13FC3F8D5C";
paths = (
{
closed = 1;
nodes = (
"437 307 OFFCURVE",
"471 349 OFFCURVE",
"471 407 CURVE SMOOTH",
"471 513 OFFCURVE",
"378 566 OFFCURVE",
"268 566 CURVE SMOOTH",
"161 566 OFFCURVE",
"67 513 OFFCURVE",
"67 407 CURVE SMOOTH",
"67 349 OFFCURVE",
"95 310 OFFCURVE",
"155.92 285.52 CURVE",
"90 258 OFFCURVE",
"46 217 OFFCURVE",
"46 154 CURVE SMOOTH",
"46 44 OFFCURVE",
"155 -13 OFFCURVE",
"268 -13 CURVE SMOOTH",
"379 -13 OFFCURVE",
"491 43 OFFCURVE",
"491 154 CURVE SMOOTH",
"491 215 OFFCURVE",
"450 256 OFFCURVE",
"381.27 285.44 CURVE"
);
},
{
closed = 1;
nodes = (
"204 69 OFFCURVE",
"154 102 OFFCURVE",
"154 158 CURVE SMOOTH",
"154 218 OFFCURVE",
"207 251 OFFCURVE",
"268 251 CURVE SMOOTH",
"327 251 OFFCURVE",
"383 221 OFFCURVE",
"383 158 CURVE SMOOTH",
"383 105 OFFCURVE",
"334 69 OFFCURVE",
"268 69 CURVE SMOOTH"
);
},
{
closed = 1;
nodes = (
"213 320 OFFCURVE",
"171 354 OFFCURVE",
"171 404 CURVE SMOOTH",
"171 450 OFFCURVE",
"211 484 OFFCURVE",
"268 484 CURVE SMOOTH",
"323 484 OFFCURVE",
"366 453 OFFCURVE",
"366 404 CURVE SMOOTH",
"366 355 OFFCURVE",
"327 320 OFFCURVE",
"268 320 CURVE SMOOTH"
);
}
);
width = 536;
}
);
note = eight;
unicode = 0038;
},
{
glyphname = nine;
lastChange = "2019-10-01 19:53:34 +0000";
layers = (
{
layerId = "EB4C1DB0-6908-4E17-8095-5E13FC3F8D5C";
paths = (
{
closed = 1;
nodes = (
"325 484 OFFCURVE",
"373 437 OFFCURVE",
"373 379 CURVE SMOOTH",
"373 315 OFFCURVE",
"327 271 OFFCURVE",
"263 271 CURVE SMOOTH",
"203 271 OFFCURVE",
"153 313 OFFCURVE",
"153 379 CURVE SMOOTH",
"153 435 OFFCURVE",
"199 484 OFFCURVE",
"263 484 CURVE SMOOTH"
);
},
{
closed = 1;
nodes = (
"383 150 OFFCURVE",
"353 69 OFFCURVE",
"258 69 CURVE SMOOTH",
"205 69 OFFCURVE",
"164 101 OFFCURVE",
"164 148 CURVE",
"56 148 LINE",
"56 55 OFFCURVE",
"134 -13 OFFCURVE",
"259 -13 CURVE SMOOTH",
"421 -13 OFFCURVE",
"486 104 OFFCURVE",
"486 276 CURVE SMOOTH",
"486 447 OFFCURVE",
"417 566 OFFCURVE",
"251 566 CURVE SMOOTH",
"144 566 OFFCURVE",
"46 489 OFFCURVE",
"46 376 CURVE SMOOTH",
"46 375 LINE SMOOTH",
"46 264 OFFCURVE",
"134 189 OFFCURVE",
"243 189 CURVE SMOOTH",
"299 189 OFFCURVE",
"348 207 OFFCURVE",
"382.1 256.8 CURVE"
);
}
);
width = 533;
}
);
note = nine;
unicode = 0039;
},
{
glyphname = colon;
lastChange = "2019-10-01 19:53:49 +0000";
layers = (
{
layerId = "EB4C1DB0-6908-4E17-8095-5E13FC3F8D5C";
paths = (
{
closed = 1;
nodes = (
"173 333 OFFCURVE",
"200 358 OFFCURVE",
"200 397 CURVE SMOOTH",
"200 433 OFFCURVE",
"176 461 OFFCURVE",
"133 461 CURVE SMOOTH",
"93 461 OFFCURVE",
"67 437 OFFCURVE",
"67 397 CURVE SMOOTH",
"67 360 OFFCURVE",
"90 333 OFFCURVE",
"133 333 CURVE SMOOTH"
);
},
{
closed = 1;
nodes = (
"173 -5 OFFCURVE",
"200 20 OFFCURVE",
"200 59 CURVE SMOOTH",
"200 95 OFFCURVE",
"176 123 OFFCURVE",
"133 123 CURVE SMOOTH",
"93 123 OFFCURVE",
"67 99 OFFCURVE",
"67 59 CURVE SMOOTH",
"67 22 OFFCURVE",
"90 -5 OFFCURVE",
"133 -5 CURVE SMOOTH"
);
}
);
width = 267;
}
);
note = colon;
unicode = 003A;
},
{
glyphname = semicolon;
lastChange = "2019-10-01 19:53:57 +0000";
layers = (
{
layerId = "EB4C1DB0-6908-4E17-8095-5E13FC3F8D5C";
paths = (
{
closed = 1;
nodes = (
"131 -108 LINE",
"212 123 LINE",
"95 123 LINE",
"54 -108 LINE"
);
},
{
closed = 1;
nodes = (
"186 333 OFFCURVE",
"212 357 OFFCURVE",
"212 397 CURVE SMOOTH",
"212 434 OFFCURVE",
"189 461 OFFCURVE",
"146 461 CURVE SMOOTH",
"106 461 OFFCURVE",
"79 436 OFFCURVE",
"79 397 CURVE SMOOTH",
"79 361 OFFCURVE",
"103 333 OFFCURVE",
"146 333 CURVE SMOOTH"
);
}
);
width = 268;
}
);
note = semicolon;
unicode = 003B;
},
{
glyphname = less;
lastChange = "2019-10-01 19:54:02 +0000";
layers = (
{
layerId = "EB4C1DB0-6908-4E17-8095-5E13FC3F8D5C";
paths = (
{
closed = 1;
nodes = (
"38 220 LINE",
"458 41 LINE",
"458 128 LINE",
"133.74 258.59 LINE",
"458 389 LINE",
"458 476 LINE",
"38 297 LINE"
);
}
);
width = 510;
}
);
note = less;
unicode = 003C;
},
{
glyphname = equal;
lastChange = "2019-10-01 13:15:09 +0000";
layers = (
{
layerId = "EB4C1DB0-6908-4E17-8095-5E13FC3F8D5C";
paths = (
{
closed = 1;
nodes = (
"517 108 LINE",
"517 184 LINE",
"67 184 LINE",
"67 108 LINE"
);
},
{
closed = 1;
nodes = (
"517 333 LINE",
"517 410 LINE",
"67 410 LINE",
"67 333 LINE"
);
}
);
width = 583;
}
);
note = equal;
unicode = 003D;
},
{
glyphname = greater;
lastChange = "2019-10-01 13:15:09 +0000";
layers = (
{
layerId = "EB4C1DB0-6908-4E17-8095-5E13FC3F8D5C";
paths = (
{
closed = 1;
nodes = (
"51 128 LINE",
"51 41 LINE",
"471 220 LINE",
"471 297 LINE",
"51 476 LINE",
"51 389 LINE",
"375.26 258.41 LINE"
);
}
);
width = 509;
}
);
note = greater;
unicode = 003E;
},
{
glyphname = question;
lastChange = "2019-10-01 19:55:03 +0000";
layers = (
{
layerId = "EB4C1DB0-6908-4E17-8095-5E13FC3F8D5C";
paths = (
{
closed = 1;
nodes = (
"285 -5 OFFCURVE",
"312 21 OFFCURVE",
"312 59 CURVE SMOOTH",
"312 95 OFFCURVE",
"288 123 OFFCURVE",
"246 123 CURVE SMOOTH",
"206 123 OFFCURVE",
"179 98 OFFCURVE",
"179 59 CURVE SMOOTH",
"179 23 OFFCURVE",
"203 -5 OFFCURVE",
"246 -5 CURVE SMOOTH"
);
},
{
closed = 1;
nodes = (
"141 389 LINE",
"141 445 OFFCURVE",
"182 484 OFFCURVE",
"246 484 CURVE SMOOTH",
"308 484 OFFCURVE",
"353 455 OFFCURVE",
"353 397 CURVE SMOOTH",
"353 381 OFFCURVE",
"349 368 OFFCURVE",
"340 358 CURVE SMOOTH",
"322 338 OFFCURVE",
"291 320 OFFCURVE",
"258 301 CURVE SMOOTH",
"214 275 OFFCURVE",
"192 231 OFFCURVE",
"192 179 CURVE",
"300 179 LINE",
"300 202 OFFCURVE",
"306 218 OFFCURVE",
"321 234 CURVE SMOOTH",
"363 279 OFFCURVE",
"413 281 OFFCURVE",
"448 342 CURVE SMOOTH",
"456.67 358 OFFCURVE",
"461 378 OFFCURVE",
"461 402 CURVE SMOOTH",
"461 513 OFFCURVE",
"361 566 OFFCURVE",
"246 566 CURVE SMOOTH",
"135 566 OFFCURVE",
"33 503 OFFCURVE",
"33 389 CURVE"
);
}
);
width = 494;
}
);
note = question;
unicode = 003F;
},
{
glyphname = at;
lastChange = "2019-10-01 19:58:08 +0000";
layers = (
{
layerId = "EB4C1DB0-6908-4E17-8095-5E13FC3F8D5C";
paths = (
{
closed = 1;
nodes = (
"539 347 OFFCURVE",
"578 297 OFFCURVE",
"578 225 CURVE SMOOTH",
"578 138 OFFCURVE",
"527 60 OFFCURVE",
"440 60 CURVE SMOOTH",
"371 60 OFFCURVE",
"333 106 OFFCURVE",
"333 183 CURVE SMOOTH",
"333 268 OFFCURVE",
"382 347 OFFCURVE",
"468 347 CURVE SMOOTH"
);
},
{
closed = 1;
nodes = (
"330 420 OFFCURVE",
"243 314 OFFCURVE",
"243 179 CURVE SMOOTH",
"243 69 OFFCURVE",
"299 -10 OFFCURVE",
"417 -10 CURVE SMOOTH",
"488 -10 OFFCURVE",
"538 13 OFFCURVE",
"573.21 72.24 CURVE",
"582 27 OFFCURVE",
"627 1 OFFCURVE",
"676 1 CURVE SMOOTH",
"805 1 OFFCURVE",
"869 128 OFFCURVE",
"869 275 CURVE SMOOTH",
"869 484 OFFCURVE",
"702 620 OFFCURVE",
"492 620 CURVE SMOOTH",
"248 620 OFFCURVE",
"51 430 OFFCURVE",
"51 179 CURVE SMOOTH",
"51 -45 OFFCURVE",
"227 -193 OFFCURVE",
"463 -193 CURVE SMOOTH",
"521 -193 OFFCURVE",
"552 -187 OFFCURVE",
"629 -164 CURVE",
"629 -108 LINE",
"559 -128 OFFCURVE",
"536 -132 OFFCURVE",
"462 -132 CURVE SMOOTH",
"269 -132 OFFCURVE",
"123 -9 OFFCURVE",
"123 179 CURVE SMOOTH",
"123 383 OFFCURVE",
"289 553 OFFCURVE",
"502 553 CURVE SMOOTH",
"666 553 OFFCURVE",
"797 440 OFFCURVE",
"797 270 CURVE SMOOTH",
"797 174 OFFCURVE",
"767 60 OFFCURVE",
"694 60 CURVE SMOOTH",
"670 60 OFFCURVE",
"656 74 OFFCURVE",
"656 102 CURVE SMOOTH",
"656 106 OFFCURVE",
"656 111 OFFCURVE",
"657 116 CURVE",
"686 401 LINE",
"604 401 LINE",
"595.17 347.26 LINE",
"567 397 OFFCURVE",
"534 420 OFFCURVE",
"460 420 CURVE SMOOTH"
);
}
);
width = 915;
}
);
note = at;
unicode = 0040;
},
{
glyphname = A;
lastChange = "2019-10-01 18:33:53 +0000";
layers = (
{
anchors = (
{
name = bottom;
position = "{328, 0}";
},
{
name = ogonek;
position = "{640, 10}";
},
{
name = top;
position = "{328, 860}";
}
);
layerId = "EB4C1DB0-6908-4E17-8095-5E13FC3F8D5C";
paths = (
{
closed = 1;
nodes = (
"279 553 LINE",
"13 0 LINE",
"120 0 LINE",
"175.13 121 LINE",
"474.47 121 LINE",
"529 0 LINE",
"643 0 LINE",
"376 553 LINE"
);
},
{
closed = 1;
nodes = (
"439.68 198 LINE",
"210.25 198 LINE",
"325.61 450.09 LINE"
);
}
);
width = 655;
}
);
note = A;
unicode = 0041;
},
{
glyphname = B;
lastChange = "2019-10-01 17:07:09 +0000";
layers = (
{
anchors = (
{
name = bottom;
position = "{304, 0}";
},
{
name = top;
position = "{304, 860}";
}
);
layerId = "EB4C1DB0-6908-4E17-8095-5E13FC3F8D5C";
paths = (
{
closed = 1;
nodes = (
"333 471 LINE SMOOTH",
"394 471 OFFCURVE",
"435 448 OFFCURVE",
"435 395 CURVE SMOOTH",
"435 345 OFFCURVE",
"397 320 OFFCURVE",
"333 320 CURVE SMOOTH",
"174 320 LINE",
"174 471 LINE"
);
},
{
closed = 1;
nodes = (
"348 243 LINE SMOOTH",
"412 243 OFFCURVE",
"461 223 OFFCURVE",
"461 160 CURVE SMOOTH",
"461 102 OFFCURVE",
"420 82 OFFCURVE",
"348 82 CURVE SMOOTH",
"174 82 LINE",
"174 243 LINE"
);
},
{
closed = 1;
nodes = (
"568 219 OFFCURVE",
"532 259 OFFCURVE",
"472 284 CURVE",
"517 309 OFFCURVE",
"543 347 OFFCURVE",
"543 394 CURVE SMOOTH",
"543 499 OFFCURVE",
"456 553 OFFCURVE",
"333 553 CURVE SMOOTH",
"72 553 LINE",
"72 0 LINE",
"343 0 LINE SMOOTH",
"468 0 OFFCURVE",
"568 41 OFFCURVE",
"568 159 CURVE SMOOTH"
);
}
);
width = 607;
}
);
note = B;
unicode = 0042;
},
{
glyphname = C;
lastChange = "2019-10-01 16:55:15 +0000";
layers = (
{
anchors = (
{
name = bottom;
position = "{335, 0}";
},
{
name = top;
position = "{335, 860}";
}
);
layerId = "EB4C1DB0-6908-4E17-8095-5E13FC3F8D5C";
paths = (
{
closed = 1;
nodes = (
"607 358 LINE",
"575 485 OFFCURVE",
"475 568 OFFCURVE",
"335 568 CURVE SMOOTH",
"161 568 OFFCURVE",
"41 445 OFFCURVE",
"41 276 CURVE SMOOTH",
"41 109 OFFCURVE",
"160 -15 OFFCURVE",
"335 -15 CURVE SMOOTH",
"472 -15 OFFCURVE",
"574 66 OFFCURVE",
"607 195 CURVE",
"504 195 LINE",
"480 122 OFFCURVE",
"418 69 OFFCURVE",
"335 69 CURVE SMOOTH",
"225 69 OFFCURVE",
"148 155 OFFCURVE",
"148 276 CURVE SMOOTH",
"148 396 OFFCURVE",
"223 484 OFFCURVE",
"335 484 CURVE SMOOTH",
"416 484 OFFCURVE",
"479 433 OFFCURVE",
"504 358 CURVE"
);
}
);
width = 637;
}
);
note = C;
unicode = 0043;
},
{
glyphname = D;
lastChange = "2019-10-01 19:24:27 +0000";
layers = (
{
anchors = (
{
name = bottom;
position = "{332, 0}";
},
{
name = center;
position = "{156, 276}";
},
{
name = top;
position = "{332, 860}";
}
);
layerId = "EB4C1DB0-6908-4E17-8095-5E13FC3F8D5C";
paths = (
{
closed = 1;
nodes = (
"517 222 OFFCURVE",
"499 176 OFFCURVE",
"463 138 CURVE SMOOTH",
"427.67 100.67 OFFCURVE",
"374 82 OFFCURVE",
"302 82 CURVE SMOOTH",
"174 82 LINE",
"174 471 LINE",
"302 471 LINE SMOOTH",
"374 471 OFFCURVE",
"428 452 OFFCURVE",
"463 415 CURVE SMOOTH",
"499 377 OFFCURVE",
"517 331 OFFCURVE",
"517 276 CURVE SMOOTH"
);
},
{
closed = 1;
nodes = (
"302 0 LINE SMOOTH",
"408 0 OFFCURVE",
"487.67 27.33 OFFCURVE",
"541 82 CURVE SMOOTH",
"595 136.67 OFFCURVE",
"622 201.33 OFFCURVE",
"622 276 CURVE SMOOTH",
"622 351 OFFCURVE",
"595 416 OFFCURVE",
"541 471 CURVE SMOOTH",
"488 526 OFFCURVE",
"408 553 OFFCURVE",
"302 553 CURVE SMOOTH",
"72 553 LINE",
"72 0 LINE"
);
}
);
width = 663;
}
);
note = D;
unicode = 0044;
},
{
glyphname = E;
lastChange = "2019-10-01 18:33:47 +0000";
layers = (
{
anchors = (
{
name = bottom;
position = "{285, 0}";
},
{
name = ogonek;
position = "{395, 10}";
},
{
name = top;
position = "{285, 860}";
},
{
name = topleft;
position = "{20, 860}";
}
);
layerId = "EB4C1DB0-6908-4E17-8095-5E13FC3F8D5C";
paths = (
{
closed = 1;
nodes = (
"72 0 LINE",
"522 0 LINE",
"522 82 LINE",
"174 82 LINE",
"174 241 LINE",
"486 241 LINE",
"486 323 LINE",
"174 323 LINE",
"174 471 LINE",
"522 471 LINE",
"522 553 LINE",
"72 553 LINE"
);
}
);
width = 569;
}
);
note = E;
unicode = 0045;
},
{
glyphname = F;
lastChange = "2019-10-01 17:06:58 +0000";
layers = (
{
anchors = (
{
name = bottom;
position = "{281, 0}";
},
{
name = top;
position = "{281, 860}";
}
);
layerId = "EB4C1DB0-6908-4E17-8095-5E13FC3F8D5C";
paths = (
{
closed = 1;
nodes = (
"72 0 LINE",
"174 0 LINE",
"174 225 LINE",
"486 225 LINE",
"486 307 LINE",
"174 307 LINE",
"174 471 LINE",
"522 471 LINE",
"522 553 LINE",
"72 553 LINE"
);
}
);
width = 561;
}
);
note = F;
unicode = 0046;
},
{
glyphname = G;
lastChange = "2019-10-01 17:06:55 +0000";
layers = (
{
anchors = (
{
name = bottom;
position = "{331, 0}";
},
{
name = top;
position = "{331, 860}";
}
);
layerId = "EB4C1DB0-6908-4E17-8095-5E13FC3F8D5C";
paths = (
{
closed = 1;
nodes = (
"598 379 LINE",
"589 429 OFFCURVE",
"561 473 OFFCURVE",
"514 511 CURVE SMOOTH",
"467 549 OFFCURVE",
"407 568 OFFCURVE",
"334 568 CURVE SMOOTH",
"161 568 OFFCURVE",
"41 445 OFFCURVE",
"41 276 CURVE SMOOTH",
"41 110 OFFCURVE",
"161 -15 OFFCURVE",
"336 -15 CURVE SMOOTH",
"416 -15 OFFCURVE",
"476.67 11.33 OFFCURVE",
"518 64 CURVE SMOOTH",
"522.57 70 LINE",
"525.31 36.72 OFFCURVE",
"527.45 13.38 OFFCURVE",
"529 0 CURVE",
"605 0 LINE",
"605 292 LINE",
"324 292 LINE",
"324 215 LINE",
"520.81 215 LINE",
"504 128 OFFCURVE",
"436 69 OFFCURVE",
"339 69 CURVE SMOOTH",
"229 69 OFFCURVE",
"148 155 OFFCURVE",
"148 276 CURVE SMOOTH",
"148 397 OFFCURVE",
"221 484 OFFCURVE",
"336 484 CURVE SMOOTH",
"416 483 OFFCURVE",
"480 447 OFFCURVE",
"498 379 CURVE"
);
}
);
width = 661;
}
);
note = G;
unicode = 0047;
},
{
glyphname = H;
lastChange = "2019-10-01 17:06:52 +0000";
layers = (
{
anchors = (
{
name = bottom;
position = "{348, 0}";
},
{
name = center;
position = "{348, 430}";
},
{
name = top;
position = "{348, 860}";
},
{
name = topleft;
position = "{20, 860}";
}
);
layerId = "EB4C1DB0-6908-4E17-8095-5E13FC3F8D5C";
paths = (
{
closed = 1;
nodes = (
"72 0 LINE",
"174 0 LINE",
"174 241 LINE",
"522 241 LINE",
"522 0 LINE",
"625 0 LINE",
"625 553 LINE",
"522 553 LINE",
"522 323 LINE",
"174 323 LINE",
"174 553 LINE",
"72 553 LINE"
);
}
);
width = 696;
}
);
note = H;
unicode = 0048;
},
{
glyphname = I;
lastChange = "2019-10-01 18:34:03 +0000";
layers = (
{
anchors = (
{
name = bottom;
position = "{128, 0}";
},
{
name = ogonek;
position = "{179, 10}";
},
{
name = top;
position = "{128, 860}";
},
{
name = topleft;
position = "{20, 860}";
}
);
layerId = "EB4C1DB0-6908-4E17-8095-5E13FC3F8D5C";
paths = (
{
closed = 1;
nodes = (
"77 0 LINE",
"179 0 LINE",
"179 553 LINE",
"77 553 LINE"
);
}
);
width = 256;
}
);
note = I;
unicode = 0049;
},
{
glyphname = J;
lastChange = "2019-10-01 17:06:47 +0000";
layers = (
{
anchors = (
{
name = bottom;
position = "{260, 0}";
},
{
name = top;
position = "{260, 860}";
}
);
layerId = "EB4C1DB0-6908-4E17-8095-5E13FC3F8D5C";
paths = (
{
closed = 1;
nodes = (
"453 553 LINE",
"351 553 LINE",
"351 205 LINE SMOOTH",
"351 156.33 OFFCURVE",
"340 122 OFFCURVE",
"318 102 CURVE SMOOTH",
"296 82 OFFCURVE",
"269.67 72 OFFCURVE",
"239 72 CURVE SMOOTH",
"207.67 72 OFFCURVE",
"181 81 OFFCURVE",
"159 99 CURVE SMOOTH",
"136.33 117.67 OFFCURVE",
"125 146 OFFCURVE",
"125 184 CURVE",
"28 184 LINE",
"28 116 OFFCURVE",
"48.67 66.67 OFFCURVE",
"90 36 CURVE SMOOTH",
"130.67 5.33 OFFCURVE",
"180 -10 OFFCURVE",
"238 -10 CURVE SMOOTH",
"298 -10 OFFCURVE",
"348.67 6.67 OFFCURVE",
"390 40 CURVE SMOOTH",
"432 73.33 OFFCURVE",
"453 128.33 OFFCURVE",
"453 205 CURVE SMOOTH"
);
}
);
width = 520;
}
);
note = J;
unicode = 004A;
},
{
glyphname = K;
lastChange = "2019-10-01 17:06:44 +0000";
layers = (
{
anchors = (
{
name = bottom;
position = "{320, 0}";
},
{
name = top;
position = "{320, 860}";
}
);
layerId = "EB4C1DB0-6908-4E17-8095-5E13FC3F8D5C";
paths = (
{
closed = 1;
nodes = (
"602 553 LINE",
"471 553 LINE",
"174 286.37 LINE",
"174 553 LINE",
"72 553 LINE",
"72 0 LINE",
"174 0 LINE",
"174 164.65 LINE",
"299.85 278.91 LINE",
"504 0 LINE",
"630 0 LINE",
"374.01 346.22 LINE"
);
}
);
width = 640;
}
);
note = K;
unicode = 004B;
},
{
glyphname = L;
lastChange = "2019-10-01 21:12:22 +0000";
layers = (
{
anchors = (
{
name = bottom;
position = "{262, 0}";
},
{
name = center;
position = "{121, 329}";
},
{
name = top;
position = "{262, 860}";
},
{
name = topright;
position = "{503, 860}";
}
);
layerId = "EB4C1DB0-6908-4E17-8095-5E13FC3F8D5C";
paths = (
{
closed = 1;
nodes = (
"174 82 LINE",
"174 553 LINE",
"72 553 LINE",
"72 0 LINE",
"492 0 LINE",
"492 82 LINE"
);
}
);
width = 523;
}
);
note = L;
unicode = 004C;
},
{
glyphname = M;
lastChange = "2019-10-01 17:06:36 +0000";
layers = (
{
anchors = (
{
name = bottom;
position = "{410, 0}";
},
{
name = top;
position = "{410, 860}";
}
);
layerId = "EB4C1DB0-6908-4E17-8095-5E13FC3F8D5C";
paths = (
{
closed = 1;
nodes = (
"645 0 LINE",
"748 0 LINE",
"748 553 LINE",
"595 553 LINE",
"412.85 111.55 LINE",
"226 553 LINE",
"72 553 LINE",
"72 0 LINE",
"174 0 LINE",
"174 213 LINE",
"168.35 452.99 LINE",
"266.65 231.42 OFFCURVE",
"333.86 80.43 OFFCURVE",
"370 0 CURVE",
"456 0 LINE",
"650.64 452.83 LINE",
"645 213 LINE"
);
}
);
width = 819;
}
);
note = M;
unicode = 004D;
},
{
glyphname = N;
lastChange = "2019-10-01 16:08:19 +0000";
layers = (
{
anchors = (
{
name = bottom;
position = "{348, 0}";
},
{
name = top;
position = "{348, 860}";
}
);
layerId = "EB4C1DB0-6908-4E17-8095-5E13FC3F8D5C";
paths = (
{
closed = 1;
nodes = (
"72 0 LINE",
"174 0 LINE",
"174 430.19 LINE",
"507 0 LINE",
"625 0 LINE",
"625 553 LINE",
"522 553 LINE",
"522 122.97 LINE",
"189 553 LINE",
"72 553 LINE"
);
}
);
width = 696;
}
);
note = N;
unicode = 004E;
},
{
glyphname = O;
lastChange = "2019-10-01 19:20:31 +0000";
layers = (
{
anchors = (
{
name = bottom;
position = "{336, 0}";
},
{
name = center;
position = "{336, 277}";
},
{
name = ogonek;
position = "{419, 10}";
},
{
name = top;
position = "{336, 860}";
},
{
name = topleft;
position = "{20, 860}";
},
{
name = topright;
position = "{651, 860}";
}
);
layerId = "EB4C1DB0-6908-4E17-8095-5E13FC3F8D5C";
paths = (
{
closed = 1;
nodes = (
"522 156 OFFCURVE",
"448 69 OFFCURVE",
"335 69 CURVE SMOOTH",
"225 69 OFFCURVE",
"148 155 OFFCURVE",
"148 276 CURVE SMOOTH",
"148 396 OFFCURVE",
"223 484 OFFCURVE",
"335 484 CURVE SMOOTH",
"447 484 OFFCURVE",
"522 399 OFFCURVE",
"522 276 CURVE SMOOTH"
);
},
{
closed = 1;
nodes = (
"509 -15 OFFCURVE",
"630 107 OFFCURVE",
"630 276 CURVE SMOOTH",
"630 444 OFFCURVE",
"512 568 OFFCURVE",
"335 568 CURVE SMOOTH",
"161 568 OFFCURVE",
"41 445 OFFCURVE",
"41 276 CURVE SMOOTH",
"41 109 OFFCURVE",
"160 -15 OFFCURVE",
"335 -15 CURVE SMOOTH"
);
}
);
width = 671;
}
);
note = O;
unicode = 004F;
},
{
glyphname = P;
lastChange = "2019-10-01 17:06:28 +0000";
layers = (
{
anchors = (
{
name = bottom;
position = "{306, 0}";
},
{
name = top;
position = "{306, 860}";
}
);
layerId = "EB4C1DB0-6908-4E17-8095-5E13FC3F8D5C";
paths = (
{
closed = 1;
nodes = (
"471 345 OFFCURVE",
"460.67 321 OFFCURVE",
"440 307 CURVE SMOOTH",
"420 293.67 OFFCURVE",
"391 287 OFFCURVE",
"353 287 CURVE SMOOTH",
"174 287 LINE",
"174 471 LINE",
"353 471 LINE SMOOTH",
"391 471 OFFCURVE",
"420 464.33 OFFCURVE",
"440 451 CURVE SMOOTH",
"460.67 437 OFFCURVE",
"471 413 OFFCURVE",
"471 379 CURVE SMOOTH"
);
},
{
closed = 1;
nodes = (
"353 205 LINE SMOOTH",
"425 205 OFFCURVE",
"480.33 220.33 OFFCURVE",
"519 251 CURVE SMOOTH",
"558.33 281.67 OFFCURVE",
"578.33 324.33 OFFCURVE",
"579 379 CURVE SMOOTH",
"579 380 LINE SMOOTH",
"579 434 OFFCURVE",
"559.33 476.33 OFFCURVE",
"520 507 CURVE SMOOTH",
"480.67 537.67 OFFCURVE",
"425 553 OFFCURVE",
"353 553 CURVE SMOOTH",
"72 553 LINE",
"72 0 LINE",
"174 0 LINE",
"174 205 LINE"
);
}
);
width = 612;
}
);
note = P;
unicode = 0050;
},
{
color = 9;
glyphname = Q;
lastChange = "2019-10-01 17:06:25 +0000";
layers = (
{
anchors = (
{
name = bottom;
position = "{333, 0}";
},
{
name = top;
position = "{333, 860}";
}
);
layerId = "EB4C1DB0-6908-4E17-8095-5E13FC3F8D5C";
paths = (
{
closed = 1;
nodes = (
"517 221.74 OFFCURVE",
"503.7 176.88 OFFCURVE",
"477.09 141.4 CURVE",
"388 230 LINE",
"336 178 LINE",
"421.01 92.57 LINE",
"395.47 78.86 OFFCURVE",
"366.13 72 OFFCURVE",
"333 72 CURVE SMOOTH",
"278.33 72 OFFCURVE",
"234 90.67 OFFCURVE",
"200 128 CURVE SMOOTH",
"165.33 165.33 OFFCURVE",
"148 214.67 OFFCURVE",
"148 276 CURVE SMOOTH",
"148 338 OFFCURVE",
"165.33 387.67 OFFCURVE",
"200 425 CURVE SMOOTH",
"234 462.33 OFFCURVE",
"278.33 481 OFFCURVE",
"333 481 CURVE SMOOTH",
"387.67 481 OFFCURVE",
"432 462.33 OFFCURVE",
"466 425 CURVE SMOOTH",
"500 387.67 OFFCURVE",
"517 338 OFFCURVE",
"517 276 CURVE SMOOTH"
);
},
{
closed = 1;
nodes = (
"393.07 -13 OFFCURVE",
"444.88 -0.3 OFFCURVE",
"488.43 25.1 CURVE",
"546 -32 LINE",
"598 20 LINE",
"546.6 71.69 LINE",
"598.87 127.38 OFFCURVE",
"625 195.48 OFFCURVE",
"625 276 CURVE SMOOTH",
"625 358 OFFCURVE",
"598.33 427 OFFCURVE",
"545 483 CURVE SMOOTH",
"492.33 538.33 OFFCURVE",
"421.67 566 OFFCURVE",
"333 566 CURVE SMOOTH",
"244.33 566 OFFCURVE",
"173.33 538.33 OFFCURVE",
"120 483 CURVE SMOOTH",
"67.33 427 OFFCURVE",
"41 358 OFFCURVE",
"41 276 CURVE SMOOTH",
"41 194.67 OFFCURVE",
"67.33 126 OFFCURVE",
"120 70 CURVE SMOOTH",
"173.33 14.67 OFFCURVE",
"244.33 -13 OFFCURVE",
"333 -13 CURVE SMOOTH"
);
}
);
width = 666;
}
);
note = Q;
unicode = 0051;
},
{
glyphname = R;
lastChange = "2019-10-01 16:58:57 +0000";
layers = (
{
anchors = (
{
name = bottom;
position = "{309, 0}";
},
{
name = top;
position = "{309, 860}";
}
);
layerId = "EB4C1DB0-6908-4E17-8095-5E13FC3F8D5C";
paths = (
{
closed = 1;
nodes = (
"456 353.33 OFFCURVE",
"445.67 331 OFFCURVE",
"425 317 CURVE SMOOTH",
"404.33 303.67 OFFCURVE",
"375.33 297 OFFCURVE",
"338 297 CURVE SMOOTH",
"174 297 LINE",
"174 471 LINE",
"338 471 LINE SMOOTH",
"375.33 471 OFFCURVE",
"404.33 464.33 OFFCURVE",
"425 451 CURVE SMOOTH",
"445.67 437 OFFCURVE",
"456 414.67 OFFCURVE",
"456 384 CURVE SMOOTH"
);
},
{
closed = 1;
nodes = (
"455.06 230.73 OFFCURVE",
"483.69 243.31 OFFCURVE",
"506 261 CURVE SMOOTH",
"544 291.67 OFFCURVE",
"563 332.67 OFFCURVE",
"563 384 CURVE SMOOTH",
"563 435.33 OFFCURVE",
"544 476.33 OFFCURVE",
"506 507 CURVE SMOOTH",
"467.33 537.67 OFFCURVE",
"411.33 553 OFFCURVE",
"338 553 CURVE SMOOTH",
"72 553 LINE",
"72 0 LINE",
"174 0 LINE",
"174 215 LINE",
"308.42 215 LINE",
"466 0 LINE",
"589 0 LINE",
"420.11 223.24 LINE"
);
}
);
width = 617;
}
);
note = R;
unicode = 0052;
},
{
glyphname = S;
lastChange = "2019-10-01 20:01:18 +0000";
layers = (
{
anchors = (
{
name = bottom;
position = "{287, 0}";
},
{
name = top;
position = "{287, 860}";
}
);
layerId = "EB4C1DB0-6908-4E17-8095-5E13FC3F8D5C";
paths = (
{
closed = 1;
nodes = (
"352 484 OFFCURVE",
"410 448 OFFCURVE",
"410 389 CURVE",
"517 389 LINE",
"517 431 OFFCURVE",
"505 465 OFFCURVE",
"481 490 CURVE SMOOTH",
"431 543 OFFCURVE",
"359 566 OFFCURVE",
"287 566 CURVE SMOOTH",
"222 566 OFFCURVE",
"145 546 OFFCURVE",
"98 498 CURVE",
"71 473 OFFCURVE",
"56 436 OFFCURVE",
"56 399 CURVE SMOOTH",
"56 340 OFFCURVE",
"86 299 OFFCURVE",
"136 275 CURVE SMOOTH",
"227 230 OFFCURVE",
"277 248 OFFCURVE",
"369 214 CURVE SMOOTH",
"402 202 OFFCURVE",
"425 185 OFFCURVE",
"425 154 CURVE SMOOTH",
"425 91 OFFCURVE",
"359 69 OFFCURVE",
"287 69 CURVE SMOOTH",
"218 69 OFFCURVE",
"148 100 OFFCURVE",
"148 169 CURVE",
"41 169 LINE",
"41 127 OFFCURVE",
"54 89 OFFCURVE",
"83 59 CURVE SMOOTH",
"131 8 OFFCURVE",
"214 -13 OFFCURVE",
"287 -13 CURVE SMOOTH",
"359 -13 OFFCURVE",
"440 4 OFFCURVE",
"490 54 CURVE SMOOTH",
"519 81 OFFCURVE",
"532 118 OFFCURVE",
"532 159 CURVE SMOOTH",
"532 213 OFFCURVE",
"509 255 OFFCURVE",
"453 282 CURVE SMOOTH",
"373 321 OFFCURVE",
"307 311 OFFCURVE",
"219 341 CURVE SMOOTH",
"186 351 OFFCURVE",
"164 369 OFFCURVE",
"164 399 CURVE SMOOTH",
"164 453 OFFCURVE",
"220 484 OFFCURVE",
"287 484 CURVE SMOOTH"
);
}
);
width = 573;
}
);
note = S;
unicode = 0053;
},
{
glyphname = T;
lastChange = "2019-10-01 19:12:17 +0000";
layers = (
{
anchors = (
{
name = bottom;
position = "{305, 0}";
},
{
name = center;
position = "{295, 280}";
},
{
name = top;
position = "{295, 860}";
}
);
layerId = "EB4C1DB0-6908-4E17-8095-5E13FC3F8D5C";
paths = (
{
closed = 1;
nodes = (
"243 0 LINE",
"346 0 LINE",
"346 471 LINE",
"566 471 LINE",
"566 553 LINE",
"23 553 LINE",
"23 471 LINE",
"243 471 LINE"
);
}
);
width = 589;
}
);
note = T;
unicode = 0054;
},
{
glyphname = U;
lastChange = "2019-10-01 18:33:35 +0000";
layers = (
{
anchors = (
{
name = bottom;
position = "{333, 0}";
},
{
name = ogonek;
position = "{403, 10}";
},
{
name = top;
position = "{334, 860}";
},
{
name = topright;
position = "{646, 860}";
}
);
guideLines = (
{
position = "{169, 155}";
},
{
position = "{67, 90}";
}
);
hints = (
{
horizontal = 1;
origin = "{0, 17}";
target = "{0, 8}";
},
{
horizontal = 1;
origin = "{0, 13}";
target = down;
type = TopGhost;
},
{
origin = "{0, 14}";
target = "{0, 11}";
},
{
origin = "{0, 5}";
target = "{0, 2}";
}
);
layerId = "EB4C1DB0-6908-4E17-8095-5E13FC3F8D5C";
paths = (
{
closed = 1;
nodes = (
"501 -13 OFFCURVE",
"599 90 OFFCURVE",
"599 282 CURVE SMOOTH",
"599 553 LINE",
"497 553 LINE",
"497 282 LINE SMOOTH",
"497 155 OFFCURVE",
"445 72 OFFCURVE",
"334 72 CURVE SMOOTH",
"225 72 OFFCURVE",
"169 155 OFFCURVE",
"169 282 CURVE SMOOTH",
"169 553 LINE",
"67 553 LINE",
"67 282 LINE SMOOTH",
"67 90 OFFCURVE",
"165 -13 OFFCURVE",
"334 -13 CURVE SMOOTH"
);
}
);
width = 666;
}
);
note = U;
unicode = 0055;
},
{
glyphname = V;
lastChange = "2019-10-01 17:06:11 +0000";
layers = (
{
anchors = (
{
name = bottom;
position = "{330, 0}";
},
{
name = top;
position = "{330, 860}";
}
);
layerId = "EB4C1DB0-6908-4E17-8095-5E13FC3F8D5C";
paths = (
{
closed = 1;
nodes = (
"538 553 LINE",
"332.19 103.3 LINE",
"128 553 LINE",
"13 553 LINE",
"279 0 LINE",
"381 0 LINE",
"648 553 LINE"
);
}
);
width = 660;
}
);
note = V;
unicode = 0056;
},
{
glyphname = W;
lastChange = "2019-10-01 15:32:39 +0000";
layers = (
{
anchors = (
{
name = bottom;
position = "{410, 0}";
},
{
name = top;
position = "{410, 860}";
}
);
layerId = "EB4C1DB0-6908-4E17-8095-5E13FC3F8D5C";
paths = (
{
closed = 1;
nodes = (
"699 553 LINE",
"591.87 139.71 LINE",
"458 553 LINE",
"366 553 LINE",
"234.33 148.32 LINE",
"126 553 LINE",
"13 553 LINE",
"177 0 LINE",
"279 0 LINE",
"409.58 414.39 LINE",
"540 0 LINE",
"648 0 LINE",
"806 553 LINE"
);
}
);
width = 820;
}
);
note = W;
unicode = 0057;
},
{
glyphname = X;
lastChange = "2019-10-01 17:06:04 +0000";
layers = (
{
anchors = (
{
name = bottom;
position = "{292, 0}";
},
{
name = top;
position = "{292, 860}";
}
);
layerId = "EB4C1DB0-6908-4E17-8095-5E13FC3F8D5C";
paths = (
{
closed = 1;
nodes = (
"143 553 LINE",
"26 553 LINE",
"221.74 281.6 LINE",
"119.3 141.48 OFFCURVE",
"50.39 47.61 OFFCURVE",
"15 0 CURVE",
"133 0 LINE",
"291.83 219.69 LINE",
"451 0 LINE",
"568 0 LINE",
"362.24 281.6 LINE",
"558 553 LINE",
"440 553 LINE",
"291.91 344.78 LINE"
);
}
);
width = 583;
}
);
note = X;
unicode = 0058;
},
{
glyphname = Y;
lastChange = "2019-10-01 16:11:23 +0000";
layers = (
{
anchors = (
{
name = bottom;
position = "{295, 0}";
},
{
name = top;
position = "{295, 860}";
},
{
name = topleft;
position = "{20, 860}";
}
);
layerId = "EB4C1DB0-6908-4E17-8095-5E13FC3F8D5C";
paths = (
{
closed = 1;
nodes = (
"244 0 LINE",
"346 0 LINE",
"346 209.53 LINE",
"574 553 LINE",
"456 553 LINE",
"296.46 297.08 LINE",
"139 553 LINE",
"15 553 LINE",
"244 208 LINE"
);
}
);
width = 590;
}
);
note = Y;
unicode = 0059;
},
{
glyphname = Z;
lastChange = "2019-10-01 18:05:53 +0000";
layers = (
{
anchors = (
{
name = bottom;
position = "{277, 0}";
},
{
name = top;
position = "{277, 860}";
}
);
layerId = "EB4C1DB0-6908-4E17-8095-5E13FC3F8D5C";
paths = (
{
closed = 1;
nodes = (
"184 82 LINE",
"502 492 LINE",
"502 553 LINE",
"51 553 LINE",
"51 471 LINE",
"369 471 LINE",
"51 61 LINE",
"51 0 LINE",
"502 0 LINE",
"502 82 LINE"
);
}
);
width = 553;
}
);
note = Z;
unicode = 005A;
},
{
glyphname = bracketleft;
lastChange = "2019-10-01 13:15:09 +0000";
layers = (
{
layerId = "EB4C1DB0-6908-4E17-8095-5E13FC3F8D5C";
paths = (
{
closed = 1;
nodes = (
"72 -154 LINE",
"243 -154 LINE",
"243 -92 LINE",
"156 -92 LINE",
"156 579 LINE",
"243 579 LINE",
"243 640 LINE",
"72 640 LINE"
);
}
);
width = 258;
}
);
note = bracketleft;
unicode = 005B;
},
{
glyphname = backslash;
lastChange = "2019-10-01 13:15:09 +0000";
layers = (
{
layerId = "EB4C1DB0-6908-4E17-8095-5E13FC3F8D5C";
paths = (
{
closed = 1;
nodes = (
"358 -61 LINE",
"110 553 LINE",
"26 553 LINE",
"274 -61 LINE"
);
}
);
width = 379;
}
);
note = backslash;
unicode = 005C;
},
{
glyphname = bracketright;
lastChange = "2019-10-01 13:15:09 +0000";
layers = (
{
layerId = "EB4C1DB0-6908-4E17-8095-5E13FC3F8D5C";
paths = (
{
closed = 1;
nodes = (
"15 640 LINE",
"15 579 LINE",
"102 579 LINE",
"102 -92 LINE",
"15 -92 LINE",
"15 -154 LINE",
"187 -154 LINE",
"187 640 LINE"
);
}
);
width = 259;
}
);
note = bracketright;
unicode = 005D;
},
{
glyphname = asciicircum;
lastChange = "2019-10-01 20:04:55 +0000";
layers = (
{
layerId = "EB4C1DB0-6908-4E17-8095-5E13FC3F8D5C";
paths = (
{
closed = 1;
nodes = (
"185 553 LINE",
"41 256 LINE",
"128 256 LINE",
"225.08 466.31 LINE",
"323 256 LINE",
"410 256 LINE",
"265 553 LINE"
);
}
);
width = 450;
}
);
note = asciicircum;
unicode = 005E;
},
{
glyphname = underscore;
lastChange = "2019-10-01 13:15:09 +0000";
layers = (
{
layerId = "EB4C1DB0-6908-4E17-8095-5E13FC3F8D5C";
paths = (
{
closed = 1;
nodes = (
"466 -92 LINE",
"466 -15 LINE",
"15 -15 LINE",
"15 -92 LINE"
);
}
);
width = 481;
}
);
note = underscore;
unicode = 005F;
},
{
glyphname = grave;
lastChange = "2019-10-01 13:15:09 +0000";
layers = (
{
layerId = "EB4C1DB0-6908-4E17-8095-5E13FC3F8D5C";
paths = (
{
closed = 1;
nodes = (
"261 425 LINE",
"169 579 LINE",
"41 579 LINE",
"169 425 LINE"
);
}
);
width = 307;
}
);
note = grave;
unicode = 0060;
},
{
glyphname = a;
lastChange = "2019-10-01 16:13:36 +0000";
layers = (
{
anchors = (
{
name = bottom;
position = "{278, 0}";
},
{
name = ogonek;
position = "{499, 10}";
},
{
name = top;
position = "{278, 456}";
}
);
layerId = "EB4C1DB0-6908-4E17-8095-5E13FC3F8D5C";
paths = (
{
closed = 1;
nodes = (
"166 315 LINE",
"166 363 OFFCURVE",
"220 381 OFFCURVE",
"274 381 CURVE SMOOTH",
"342 381 OFFCURVE",
"384 357 OFFCURVE",
"384 294 CURVE SMOOTH",
"384 266 LINE",
"261 266 LINE SMOOTH",
"140 266 OFFCURVE",
"46 235 OFFCURVE",
"46 133 CURVE SMOOTH",
"46 39 OFFCURVE",
"118 -10 OFFCURVE",
"225 -10 CURVE SMOOTH",
"293.67 -10 OFFCURVE",
"342.67 7 OFFCURVE",
"372 41 CURVE SMOOTH",
"376.95 46.61 OFFCURVE",
"381.48 52.4 OFFCURVE",
"385.62 58.39 CURVE",
"386.44 49.41 OFFCURVE",
"387.57 41.62 OFFCURVE",
"389 35 CURVE SMOOTH",
"392.33 19 OFFCURVE",
"395 7.33 OFFCURVE",
"397 0 CURVE",
"497 0 LINE",
"497 8 LINE",
"490 30 LINE",
"486 44.67 OFFCURVE",
"484 68 OFFCURVE",
"484 100 CURVE SMOOTH",
"484 276 LINE SMOOTH",
"484 342.67 OFFCURVE",
"465.67 390.67 OFFCURVE",
"429 420 CURVE SMOOTH",
"392.33 448.67 OFFCURVE",
"340.67 463 OFFCURVE",
"274 463 CURVE SMOOTH",
"207 463 OFFCURVE",
"155 449 OFFCURVE",
"119 420 CURVE SMOOTH",
"82 391 OFFCURVE",
"64 356 OFFCURVE",
"64 315 CURVE"
);
},
{
closed = 1;
nodes = (
"384 108 OFFCURVE",
"338 61 OFFCURVE",
"251 61 CURVE SMOOTH",
"194 61 OFFCURVE",
"148 80 OFFCURVE",
"148 128 CURVE SMOOTH",
"148 183 OFFCURVE",
"198 199 OFFCURVE",
"261 200 CURVE SMOOTH",
"384 199.06 LINE"
);
}
);
width = 555;
}
);
note = a;
unicode = 0061;
},
{
glyphname = b;
lastChange = "2019-10-01 17:07:20 +0000";
layers = (
{
anchors = (
{
name = bottom;
position = "{291, 0}";
},
{
name = top;
position = "{291, 456}";
}
);
layerId = "EB4C1DB0-6908-4E17-8095-5E13FC3F8D5C";
paths = (
{
closed = 1;
nodes = (
"540 363 OFFCURVE",
"464 466 OFFCURVE",
"325 466 CURVE SMOOTH",
"255 466 OFFCURVE",
"205 443.67 OFFCURVE",
"175 399 CURVE SMOOTH",
"172 394.31 LINE",
"172 625 LINE",
"72 625 LINE",
"72 0 LINE",
"164 0 LINE",
"168.04 68.3 LINE",
"175 57 LINE",
"205 12.33 OFFCURVE",
"255 -10 OFFCURVE",
"325 -10 CURVE SMOOTH",
"462 -10 OFFCURVE",
"540 90 OFFCURVE",
"540 228 CURVE SMOOTH"
);
},
{
closed = 1;
nodes = (
"172 315 OFFCURVE",
"218 387 OFFCURVE",
"307 387 CURVE SMOOTH",
"393 387 OFFCURVE",
"440 316 OFFCURVE",
"440 228 CURVE SMOOTH",
"440 137 OFFCURVE",
"394 69 OFFCURVE",
"307 69 CURVE SMOOTH",
"221 69 OFFCURVE",
"172 138 OFFCURVE",
"172 228 CURVE SMOOTH"
);
}
);
width = 581;
}
);
note = b;
unicode = 0062;
},
{
glyphname = c;
lastChange = "2019-10-01 18:37:22 +0000";
layers = (
{
anchors = (
{
name = bottom;
position = "{286, 0}";
},
{
name = top;
position = "{280, 456}";
}
);
layerId = "EB4C1DB0-6908-4E17-8095-5E13FC3F8D5C";
paths = (
{
closed = 1;
nodes = (
"399 -10 OFFCURVE",
"484 59 OFFCURVE",
"507 166 CURVE",
"409 166 LINE",
"392 112 OFFCURVE",
"347 71 OFFCURVE",
"284 71 CURVE SMOOTH",
"202 71 OFFCURVE",
"143 135 OFFCURVE",
"143 228 CURVE SMOOTH",
"143 317 OFFCURVE",
"198 384 OFFCURVE",
"284 384 CURVE SMOOTH",
"344 384 OFFCURVE",
"391 347 OFFCURVE",
"409 290 CURVE",
"450 289 LINE",
"507 289 LINE",
"485 394 OFFCURVE",
"400 466 OFFCURVE",
"284 466 CURVE SMOOTH",
"137 466 OFFCURVE",
"41 371 OFFCURVE",
"41 228 CURVE SMOOTH",
"41 86 OFFCURVE",
"133 -10 OFFCURVE",
"284 -10 CURVE SMOOTH"
);
}
);
width = 542;
}
);
note = c;
unicode = 0063;
},
{
glyphname = d;
lastChange = "2019-10-01 19:35:42 +0000";
layers = (
{
anchors = (
{
name = bottom;
position = "{291, 0}";
},
{
name = center;
position = "{427, 533}";
},
{
name = top;
position = "{291, 456}";
},
{
name = topright;
position = "{662, 681}";
}
);
guideLines = (
{
position = "{1431, 681}";
},
{
position = "{949, 510}";
}
);
layerId = "EB4C1DB0-6908-4E17-8095-5E13FC3F8D5C";
paths = (
{
closed = 1;
nodes = (
"361 387 OFFCURVE",
"410 316 OFFCURVE",
"410 228 CURVE SMOOTH",
"410 143 OFFCURVE",
"363 69 OFFCURVE",
"274 69 CURVE SMOOTH",
"187 69 OFFCURVE",
"141 137 OFFCURVE",
"141 228 CURVE SMOOTH",
"141 313 OFFCURVE",
"186 387 OFFCURVE",
"274 387 CURVE SMOOTH"
);
},
{
closed = 1;
nodes = (
"120 466 OFFCURVE",
"41 364 OFFCURVE",
"41 228 CURVE SMOOTH",
"41 94 OFFCURVE",
"118 -10 OFFCURVE",
"256 -10 CURVE SMOOTH",
"326.67 -10 OFFCURVE",
"376.67 12.33 OFFCURVE",
"406 57 CURVE SMOOTH",
"412.99 68.1 LINE",
"415.08 38.35 OFFCURVE",
"416.42 15.65 OFFCURVE",
"417 0 CURVE",
"509 0 LINE",
"509 625 LINE",
"410 625 LINE",
"410 392.83 LINE",
"406 399 LINE SMOOTH",
"376.67 443.67 OFFCURVE",
"326.67 466 OFFCURVE",
"256 466 CURVE SMOOTH"
);
}
);
width = 581;
}
);
note = d;
unicode = 0064;
},
{
glyphname = e;
lastChange = "2019-10-01 18:30:45 +0000";
layers = (
{
anchors = (
{
name = bottom;
position = "{276, 0}";
},
{
name = ogonek;
position = "{351, 10}";
},
{
name = top;
position = "{276, 456}";
}
);
layerId = "EB4C1DB0-6908-4E17-8095-5E13FC3F8D5C";
paths = (
{
closed = 1;
nodes = (
"41 89 OFFCURVE",
"129 -10 OFFCURVE",
"282 -10 CURVE SMOOTH",
"384 -10 OFFCURVE",
"466 39 OFFCURVE",
"502 131 CURVE",
"389 131 LINE",
"364 92 OFFCURVE",
"329 72 OFFCURVE",
"282 72 CURVE SMOOTH",
"204 72 OFFCURVE",
"154 122 OFFCURVE",
"144.6 200 CURVE",
"510 200 LINE",
"510 200 OFFCURVE",
"510 217 OFFCURVE",
"510 228 CURVE SMOOTH",
"510 365 OFFCURVE",
"418 466 OFFCURVE",
"276 466 CURVE SMOOTH",
"133 466 OFFCURVE",
"41 368 OFFCURVE",
"41 228 CURVE SMOOTH"
);
},
{
closed = 1;
nodes = (
"145.82 266 LINE",
"157 335 OFFCURVE",
"201 384 OFFCURVE",
"276 384 CURVE SMOOTH",
"349 384 OFFCURVE",
"394 336 OFFCURVE",
"405.18 266 CURVE"
);
}
);
width = 551;
}
);
note = e;
unicode = 0065;
},
{
glyphname = f;
lastChange = "2019-10-01 17:07:38 +0000";
layers = (
{
anchors = (
{
name = bottom;
position = "{177, 0}";
},
{
name = top;
position = "{177, 456}";
}
);
layerId = "EB4C1DB0-6908-4E17-8095-5E13FC3F8D5C";
paths = (
{
closed = 1;
nodes = (
"110 381 LINE",
"110 0 LINE",
"210 0 LINE",
"210 381 LINE",
"323 381 LINE",
"323 456 LINE",
"210 456 LINE",
"210 514 OFFCURVE",
"222 545 OFFCURVE",
"277 545 CURVE SMOOTH",
"298 545 OFFCURVE",
"312 544 OFFCURVE",
"341 540 CURVE",
"341 620 LINE",
"310 625 OFFCURVE",
"294 627 OFFCURVE",
"277 627 CURVE SMOOTH",
"157 627 OFFCURVE",
"110 574 OFFCURVE",
"110 456 CURVE",
"33 456 LINE",
"33 381 LINE"
);
}
);
width = 353;
}
);
note = f;
unicode = 0066;
},
{
glyphname = g;
lastChange = "2019-10-01 17:07:41 +0000";
layers = (
{
anchors = (
{
name = bottom;
position = "{291, 0}";
},
{
name = top;
position = "{291, 456}";
}
);
layerId = "EB4C1DB0-6908-4E17-8095-5E13FC3F8D5C";
paths = (
{
closed = 1;
nodes = (
"68 -49 LINE",
"72 -83 OFFCURVE",
"91 -112 OFFCURVE",
"126 -137 CURVE SMOOTH",
"161 -162 OFFCURVE",
"213 -174 OFFCURVE",
"282 -174 CURVE SMOOTH",
"419 -174 OFFCURVE",
"509 -103 OFFCURVE",
"509 38 CURVE SMOOTH",
"509 456 LINE",
"420 456 LINE",
"415.53 386.14 LINE",
"406 401 LINE SMOOTH",
"376.67 444.33 OFFCURVE",
"326.67 466 OFFCURVE",
"256 466 CURVE SMOOTH",
"121 466 OFFCURVE",
"41 367 OFFCURVE",
"41 233 CURVE SMOOTH",
"41 101 OFFCURVE",
"119 0 OFFCURVE",
"256 0 CURVE SMOOTH",
"326.67 0 OFFCURVE",
"376.67 21.67 OFFCURVE",
"406 65 CURVE SMOOTH",
"410 70.9 LINE",
"410 20 LINE SMOOTH",
"410 -57 OFFCURVE",
"356 -95 OFFCURVE",
"280 -95 CURVE SMOOTH",
"235 -95 OFFCURVE",
"181 -86 OFFCURVE",
"171 -49 CURVE"
);
},
{
closed = 1;
nodes = (
"360 387 OFFCURVE",
"410 318 OFFCURVE",
"410 233 CURVE SMOOTH",
"410 150 OFFCURVE",
"362 79 OFFCURVE",
"274 79 CURVE SMOOTH",
"191 79 OFFCURVE",
"141 141 OFFCURVE",
"141 233 CURVE SMOOTH",
"141 316 OFFCURVE",
"187 387 OFFCURVE",
"274 387 CURVE SMOOTH"
);
}
);
width = 581;
}
);
note = g;
unicode = 0067;
},
{
glyphname = h;
lastChange = "2019-10-01 19:10:05 +0000";
layers = (
{
anchors = (
{
name = bottom;
position = "{290, 0}";
},
{
name = center;
position = "{150, 533}";
},
{
name = top;
position = "{290, 456}";
}
);
layerId = "EB4C1DB0-6908-4E17-8095-5E13FC3F8D5C";
paths = (
{
closed = 1;
nodes = (
"72 625 LINE",
"72 0 LINE",
"172 0 LINE",
"172 264 LINE SMOOTH",
"172 306 OFFCURVE",
"186 336 OFFCURVE",
"213 354 CURVE SMOOTH",
"241 372 OFFCURVE",
"270 381 OFFCURVE",
"300 381 CURVE SMOOTH",
"329 381 OFFCURVE",
"355 372 OFFCURVE",
"378 354 CURVE SMOOTH",
"401 336 OFFCURVE",
"412 306 OFFCURVE",
"412 264 CURVE SMOOTH",
"412 0 LINE",
"512 0 LINE",
"512 264 LINE SMOOTH",
"512 392 OFFCURVE",
"448 463 OFFCURVE",
"325 463 CURVE SMOOTH",
"269 463 OFFCURVE",
"223.67 446.67 OFFCURVE",
"189 414 CURVE SMOOTH",
"182.76 408.01 OFFCURVE",
"177.09 401.43 OFFCURVE",
"172 394.27 CURVE",
"172 625 LINE"
);
}
);
width = 580;
}
);
note = h;
unicode = 0068;
},
{
glyphname = i;
lastChange = "2019-10-01 17:11:46 +0000";
layers = (
{
anchors = (
{
name = _top;
position = "{121, 860}";
},
{
name = bottom;
position = "{120, 0}";
},
{
name = top;
position = "{121, 645}";
}
);
layerId = "EB4C1DB0-6908-4E17-8095-5E13FC3F8D5C";
paths = (
{
closed = 1;
nodes = (
"70 456 LINE",
"70 0 LINE",
"170 0 LINE",
"170 456 LINE"
);
},
{
closed = 1;
nodes = (
"52 545 OFFCURVE",
"76 517 OFFCURVE",
"118 517 CURVE SMOOTH",
"158 517 OFFCURVE",
"185 542 OFFCURVE",
"185 581 CURVE SMOOTH",
"185 617 OFFCURVE",
"161 645 OFFCURVE",
"118 645 CURVE SMOOTH",
"79 645 OFFCURVE",
"52 619 OFFCURVE",
"52 581 CURVE SMOOTH"
);
}
);
width = 240;
}
);
note = i;
unicode = 0069;
},
{
glyphname = j;
lastChange = "2019-10-01 17:12:18 +0000";
layers = (
{
layerId = "EB4C1DB0-6908-4E17-8095-5E13FC3F8D5C";
paths = (
{
closed = 1;
nodes = (
"170 456 LINE",
"71 456 LINE",
"71 0 LINE SMOOTH",
"71 -33.33 OFFCURVE",
"66.67 -56.67 OFFCURVE",
"58 -70 CURVE",
"50 -83.33 OFFCURVE",
"36.33 -90 OFFCURVE",
"17 -90 CURVE SMOOTH",
"4.33 -90 OFFCURVE",
"-6.33 -89.33 OFFCURVE",
"-15 -88 CURVE",
"-23 -87.33 OFFCURVE",
"-31.33 -86 OFFCURVE",
"-40 -84 CURVE",
"-40 -164 LINE",
"-32.67 -166 OFFCURVE",
"-23.33 -167.67 OFFCURVE",
"-12 -169 CURVE",
"-0.67 -171 OFFCURVE",
"12.67 -172 OFFCURVE",
"28 -172 CURVE SMOOTH",
"70 -172 OFFCURVE",
"104.33 -160 OFFCURVE",
"131 -136 CURVE SMOOTH",
"157 -112 OFFCURVE",
"170.33 -66.67 OFFCURVE",
"171 0 CURVE SMOOTH"
);
},
{
closed = 1;
nodes = (
"52 545 OFFCURVE",
"76 517 OFFCURVE",
"118 517 CURVE SMOOTH",
"158 517 OFFCURVE",
"185 542 OFFCURVE",
"185 581 CURVE SMOOTH",
"185 617 OFFCURVE",
"161 645 OFFCURVE",
"118 645 CURVE SMOOTH",
"79 645 OFFCURVE",
"52 619 OFFCURVE",
"52 581 CURVE SMOOTH"
);
}
);
width = 241;
}
);
note = j;
unicode = 006A;
},
{
glyphname = k;
lastChange = "2019-10-01 17:08:27 +0000";
layers = (
{
anchors = (
{
name = bottom;
position = "{268, 0}";
},
{
name = top;
position = "{268, 456}";
}
);
layerId = "EB4C1DB0-6908-4E17-8095-5E13FC3F8D5C";
paths = (
{
closed = 1;
nodes = (
"72 625 LINE",
"72 0 LINE",
"172 0 LINE",
"172 127 LINE",
"249.3 204.26 LINE",
"410 0.01 LINE",
"528 0.01 LINE",
"314.4 269.27 LINE",
"502 456.01 LINE",
"379 456.01 LINE",
"172 247.43 LINE",
"172 625.01 LINE"
);
}
);
width = 535;
}
);
note = k;
unicode = 006B;
},
{
glyphname = l;
lastChange = "2019-10-01 19:38:36 +0000";
layers = (
{
anchors = (
{
name = bottom;
position = "{122, 0}";
},
{
name = center;
position = "{122, 312}";
},
{
name = top;
position = "{143, 625}";
},
{
name = topright;
position = "{327, 625}";
}
);
layerId = "EB4C1DB0-6908-4E17-8095-5E13FC3F8D5C";
paths = (
{
closed = 1;
nodes = (
"72 625 LINE",
"72 0 LINE",
"172 0 LINE",
"172 625 LINE"
);
}
);
width = 243;
}
);
note = l;
unicode = 006C;
},
{
glyphname = m;
lastChange = "2019-10-01 17:09:01 +0000";
layers = (
{
anchors = (
{
name = bottom;
position = "{424, 0}";
},
{
name = top;
position = "{424, 456}";
}
);
layerId = "EB4C1DB0-6908-4E17-8095-5E13FC3F8D5C";
paths = (
{
closed = 1;
nodes = (
"72 456 LINE",
"72 0 LINE",
"172 0 LINE",
"172 264 LINE SMOOTH",
"172 337 OFFCURVE",
"214 381 OFFCURVE",
"282 381 CURVE SMOOTH",
"343 381 OFFCURVE",
"376 339 OFFCURVE",
"376 264 CURVE SMOOTH",
"376 0 LINE",
"476 0 LINE",
"476 264 LINE SMOOTH",
"476 336 OFFCURVE",
"519 381 OFFCURVE",
"586 381 CURVE SMOOTH",
"648 381 OFFCURVE",
"681 339 OFFCURVE",
"681 264 CURVE SMOOTH",
"681 0 LINE",
"781 0 LINE",
"781 264 LINE SMOOTH",
"781 388 OFFCURVE",
"729 463 OFFCURVE",
"612 463 CURVE SMOOTH",
"548 463 OFFCURVE",
"486 439 OFFCURVE",
"453.61 381.94 CURVE",
"428 434 OFFCURVE",
"375 463 OFFCURVE",
"307 463 CURVE SMOOTH",
"247 463 OFFCURVE",
"193 435 OFFCURVE",
"165.51 382.76 CURVE",
"161 456 LINE"
);
}
);
width = 848;
}
);
note = m;
unicode = 006D;
},
{
glyphname = n;
lastChange = "2019-10-01 17:09:09 +0000";
layers = (
{
anchors = (
{
name = bottom;
position = "{290, 0}";
},
{
name = top;
position = "{290, 456}";
}
);
layerId = "EB4C1DB0-6908-4E17-8095-5E13FC3F8D5C";
paths = (
{
closed = 1;
nodes = (
"72 456 LINE",
"72 0 LINE",
"172 0 LINE",
"172 264 LINE SMOOTH",
"172 339 OFFCURVE",
"227 381 OFFCURVE",
"300 381 CURVE SMOOTH",
"367 381 OFFCURVE",
"412 340 OFFCURVE",
"412 264 CURVE SMOOTH",
"412 0 LINE",
"512 0 LINE",
"512 264 LINE SMOOTH",
"512 392 OFFCURVE",
"448 463 OFFCURVE",
"325 463 CURVE SMOOTH",
"262 463 OFFCURVE",
"198 440 OFFCURVE",
"165 384 CURVE",
"161 456 LINE"
);
}
);
width = 580;
}
);
note = n;
unicode = 006E;
},
{
glyphname = o;
lastChange = "2019-10-01 16:20:00 +0000";
layers = (
{
anchors = (
{
name = bottom;
position = "{284, 0}";
},
{
name = center;
position = "{284, 228}";
},
{
name = ogonek;
position = "{511, 10}";
},
{
name = top;
position = "{284, 456}";
},
{
name = topright;
position = "{548, 456}";
}
);
layerId = "EB4C1DB0-6908-4E17-8095-5E13FC3F8D5C";
paths = (
{
closed = 1;
nodes = (
"425 141 OFFCURVE",
"375 72 OFFCURVE",
"284 72 CURVE SMOOTH",
"197 72 OFFCURVE",
"143 138 OFFCURVE",
"143 228 CURVE SMOOTH",
"143 317 OFFCURVE",
"198 384 OFFCURVE",
"284 384 CURVE SMOOTH",
"371 384 OFFCURVE",
"425 317 OFFCURVE",
"425 228 CURVE SMOOTH"
);
},
{
closed = 1;
nodes = (
"41 158.67 OFFCURVE",
"62.67 101.67 OFFCURVE",
"106 57 CURVE SMOOTH",
"149.33 12.33 OFFCURVE",
"208.67 -10 OFFCURVE",
"284 -10 CURVE SMOOTH",
"285 -10 LINE SMOOTH",
"360 -10 OFFCURVE",
"419 12 OFFCURVE",
"462 57 CURVE SMOOTH",
"505 102 OFFCURVE",
"527 159 OFFCURVE",
"527 228 CURVE SMOOTH",
"527 297.33 OFFCURVE",
"505.33 354.33 OFFCURVE",
"462 399 CURVE SMOOTH",
"418.67 443.67 OFFCURVE",
"359.33 466 OFFCURVE",
"284 466 CURVE SMOOTH",
"209 466 OFFCURVE",
"149 444 OFFCURVE",
"106 399 CURVE SMOOTH",
"63 354 OFFCURVE",
"41 297 OFFCURVE",
"41 228 CURVE SMOOTH"
);
}
);
width = 568;
}
);
note = o;
unicode = 006F;
},
{
glyphname = p;
lastChange = "2019-10-01 17:09:18 +0000";
layers = (
{
anchors = (
{
name = bottom;
position = "{291, 0}";
},
{
name = top;
position = "{291, 456}";
}
);
layerId = "EB4C1DB0-6908-4E17-8095-5E13FC3F8D5C";
paths = (
{
closed = 1;
nodes = (
"540 362 OFFCURVE",
"464 466 OFFCURVE",
"325 466 CURVE SMOOTH",
"244 466 OFFCURVE",
"205 444 OFFCURVE",
"165 383 CURVE",
"161 456 LINE",
"72 456 LINE",
"72 -164 LINE",
"172 -164 LINE",
"172 61.69 LINE",
"205 12 OFFCURVE",
"253 -10 OFFCURVE",
"325 -10 CURVE SMOOTH",
"462 -10 OFFCURVE",
"540 90 OFFCURVE",
"540 228 CURVE SMOOTH"
);
},
{
closed = 1;
nodes = (
"172 315 OFFCURVE",
"218 387 OFFCURVE",
"307 387 CURVE SMOOTH",
"393 387 OFFCURVE",
"440 316 OFFCURVE",
"440 228 CURVE SMOOTH",
"440 137 OFFCURVE",
"394 69 OFFCURVE",
"307 69 CURVE SMOOTH",
"221 69 OFFCURVE",
"172 138 OFFCURVE",
"172 228 CURVE SMOOTH"
);
}
);
width = 581;
}
);
note = p;
unicode = 0070;
},
{
glyphname = q;
lastChange = "2019-10-01 17:09:21 +0000";
layers = (
{
anchors = (
{
name = bottom;
position = "{291, 0}";
},
{
name = top;
position = "{291, 456}";
}
);
layerId = "EB4C1DB0-6908-4E17-8095-5E13FC3F8D5C";
paths = (
{
closed = 1;
nodes = (
"361 387 OFFCURVE",
"410 316 OFFCURVE",
"410 228 CURVE SMOOTH",
"410 143 OFFCURVE",
"363 69 OFFCURVE",
"274 69 CURVE SMOOTH",
"187 69 OFFCURVE",
"141 137 OFFCURVE",
"141 228 CURVE SMOOTH",
"141 313 OFFCURVE",
"186 387 OFFCURVE",
"274 387 CURVE SMOOTH"
);
},
{
closed = 1;
nodes = (
"120 466 OFFCURVE",
"41 364 OFFCURVE",
"41 228 CURVE SMOOTH",
"41 94 OFFCURVE",
"118 -10 OFFCURVE",
"256 -10 CURVE SMOOTH",
"326.67 -10 OFFCURVE",
"376.67 12.33 OFFCURVE",
"406 57 CURVE SMOOTH",
"410 63.17 LINE",
"410 -164 LINE",
"509 -164 LINE",
"509 456 LINE",
"420 456 LINE",
"415.41 383.71 LINE",
"406 399 LINE SMOOTH",
"377 444 OFFCURVE",
"327 466 OFFCURVE",
"256 466 CURVE SMOOTH"
);
}
);
width = 581;
}
);
note = q;
unicode = 0071;
},
{
glyphname = r;
lastChange = "2019-10-01 18:47:46 +0000";
layers = (
{
anchors = (
{
name = bottom;
position = "{132, 0}";
},
{
name = top;
position = "{191, 456}";
}
);
layerId = "EB4C1DB0-6908-4E17-8095-5E13FC3F8D5C";
paths = (
{
closed = 1;
nodes = (
"72 456 LINE",
"72 0 LINE",
"172 0 LINE",
"172 258 LINE SMOOTH",
"172 300.67 OFFCURVE",
"185.67 329.67 OFFCURVE",
"213 345 CURVE SMOOTH",
"241 360.33 OFFCURVE",
"269 368 OFFCURVE",
"297 368 CURVE SMOOTH",
"308.33 368 OFFCURVE",
"319 367.33 OFFCURVE",
"329 366 CURVE",
"356 360 LINE",
"356 461 LINE",
"340 463 LINE",
"323 463 LINE SMOOTH",
"267.67 463 OFFCURVE",
"223 446.67 OFFCURVE",
"189 414 CURVE SMOOTH",
"179.94 405.29 OFFCURVE",
"172.08 395.35 OFFCURVE",
"165.43 384.18 CURVE",
"161 456 LINE"
);
}
);
width = 382;
}
);
note = r;
unicode = 0072;
},
{
glyphname = s;
lastChange = "2019-10-01 18:42:59 +0000";
layers = (
{
anchors = (
{
name = bottom;
position = "{257, 0}";
},
{
name = top;
position = "{249, 456}";
}
);
layerId = "EB4C1DB0-6908-4E17-8095-5E13FC3F8D5C";
paths = (
{
closed = 1;
nodes = (
"291 387 OFFCURVE",
"341 360 OFFCURVE",
"341 315 CURVE",
"444 315 LINE",
"444 410 OFFCURVE",
"355 466 OFFCURVE",
"247 466 CURVE SMOOTH",
"139 466 OFFCURVE",
"49 420 OFFCURVE",
"49 329 CURVE SMOOTH",
"49 280 OFFCURVE",
"72 245 OFFCURVE",
"115 224 CURVE SMOOTH",
"187 188 OFFCURVE",
"235 200 OFFCURVE",
"308 175 CURVE SMOOTH",
"336 166 OFFCURVE",
"354 151 OFFCURVE",
"354 126 CURVE SMOOTH",
"354 84 OFFCURVE",
"295 69 OFFCURVE",
"247 69 CURVE SMOOTH",
"198 69 OFFCURVE",
"144 87 OFFCURVE",
"143 131 CURVE",
"41 131 LINE",
"41 34 OFFCURVE",
"144 -10 OFFCURVE",
"247 -10 CURVE SMOOTH",
"354 -10 OFFCURVE",
"457 32 OFFCURVE",
"457 131 CURVE SMOOTH",
"457 180 OFFCURVE",
"433 216 OFFCURVE",
"391 236 CURVE SMOOTH",
"340 262 OFFCURVE",
"268 265 OFFCURVE",
"192 285 CURVE SMOOTH",
"165 292 OFFCURVE",
"152 306 OFFCURVE",
"152 329 CURVE SMOOTH",
"152 365 OFFCURVE",
"197 387 OFFCURVE",
"247 387 CURVE SMOOTH"
);
}
);
width = 497;
}
);
note = s;
unicode = 0073;
},
{
glyphname = t;
lastChange = "2019-10-01 19:33:47 +0000";
layers = (
{
anchors = (
{
name = bottom;
position = "{275, 0}";
},
{
name = center;
position = "{178, 280}";
},
{
name = top;
position = "{178, 560}";
},
{
name = topright;
position = "{377, 681}";
}
);
guideLines = (
{
position = "{777, 758}";
},
{
position = "{949, 604}";
}
);
layerId = "EB4C1DB0-6908-4E17-8095-5E13FC3F8D5C";
paths = (
{
closed = 1;
nodes = (
"100 563 LINE",
"100 456 LINE",
"26 456 LINE",
"26 381 LINE",
"100 381 LINE",
"100 169 LINE SMOOTH",
"100 102.33 OFFCURVE",
"114.33 57 OFFCURVE",
"143 33 CURVE SMOOTH",
"172.33 9 OFFCURVE",
"213.33 -3 OFFCURVE",
"266 -3 CURVE SMOOTH",
"283.33 -3 OFFCURVE",
"298.33 -1.67 OFFCURVE",
"311 1 CURVE SMOOTH",
"330 5 LINE",
"330 84 LINE",
"311 82 LINE",
"298.33 80 OFFCURVE",
"283.33 79 OFFCURVE",
"266 79 CURVE SMOOTH",
"243.33 79 OFFCURVE",
"226.67 85 OFFCURVE",
"216 97 CURVE SMOOTH",
"205.33 109 OFFCURVE",
"200 133 OFFCURVE",
"200 169 CURVE SMOOTH",
"200 381 LINE",
"315 381 LINE",
"315 456 LINE",
"200 456 LINE",
"200 563 LINE"
);
}
);
width = 355;
}
);
note = t;
unicode = 0074;
},
{
glyphname = u;
lastChange = "2019-10-01 18:31:26 +0000";
layers = (
{
anchors = (
{
name = bottom;
position = "{290, 0}";
},
{
name = ogonek;
position = "{508, 10}";
},
{
name = top;
position = "{290, 456}";
},
{
name = topright;
position = "{560, 456}";
}
);
layerId = "EB4C1DB0-6908-4E17-8095-5E13FC3F8D5C";
paths = (
{
closed = 1;
nodes = (
"508 0 LINE",
"508 456 LINE",
"409 456 LINE",
"409 192 LINE SMOOTH",
"409 150 OFFCURVE",
"395 119.67 OFFCURVE",
"367 101 CURVE SMOOTH",
"339 83 OFFCURVE",
"310.33 74 OFFCURVE",
"281 74 CURVE SMOOTH",
"251 74 OFFCURVE",
"224.67 83 OFFCURVE",
"202 101 CURVE SMOOTH",
"179.33 119.67 OFFCURVE",
"168 150 OFFCURVE",
"168 192 CURVE SMOOTH",
"168 456 LINE",
"68 456 LINE",
"68 192 LINE SMOOTH",
"68 122.67 OFFCURVE",
"85 72 OFFCURVE",
"119 40 CURVE SMOOTH",
"153 8 OFFCURVE",
"198.33 -8 OFFCURVE",
"255 -8 CURVE SMOOTH",
"311 -8 OFFCURVE",
"356.33 8.33 OFFCURVE",
"391 41 CURVE SMOOTH",
"398.96 48.65 OFFCURVE",
"405.99 57.26 OFFCURVE",
"412.08 66.85 CURVE",
"414.12 37.71 OFFCURVE",
"415.43 15.43 OFFCURVE",
"416 0 CURVE"
);
}
);
width = 580;
}
);
note = u;
unicode = 0075;
},
{
glyphname = v;
lastChange = "2019-10-01 17:09:40 +0000";
layers = (
{
anchors = (
{
name = bottom;
position = "{264, 0}";
},
{
name = top;
position = "{264, 456}";
}
);
layerId = "EB4C1DB0-6908-4E17-8095-5E13FC3F8D5C";
paths = (
{
closed = 1;
nodes = (
"310 0 LINE",
"515 456 LINE",
"410 456 LINE",
"265.32 109.12 LINE",
"123 456 LINE",
"13 456 LINE",
"218 0 LINE"
);
}
);
width = 527;
}
);
note = v;
unicode = 0076;
},
{
glyphname = w;
lastChange = "2019-10-01 17:09:52 +0000";
layers = (
{
anchors = (
{
name = bottom;
position = "{366, 0}";
},
{
name = top;
position = "{366, 456}";
}
);
layerId = "EB4C1DB0-6908-4E17-8095-5E13FC3F8D5C";
paths = (
{
closed = 1;
nodes = (
"617 456 LINE",
"532.74 135.79 LINE",
"421 456 LINE",
"320 456 LINE",
"207.65 137.35 LINE",
"121 456 LINE",
"13 456 LINE",
"156 0 LINE",
"250 0 LINE",
"367.5 343.46 LINE",
"485 0 LINE",
"582 0 LINE",
"720 456 LINE"
);
}
);
width = 732;
}
);
note = w;
unicode = 0077;
},
{
glyphname = x;
lastChange = "2019-10-01 17:10:00 +0000";
layers = (
{
anchors = (
{
name = bottom;
position = "{259, 0}";
},
{
name = top;
position = "{259, 456}";
}
);
layerId = "EB4C1DB0-6908-4E17-8095-5E13FC3F8D5C";
paths = (
{
closed = 1;
nodes = (
"133 456 LINE",
"23 456 LINE",
"192.33 229.23 LINE",
"15 0 LINE",
"125 0 LINE",
"258.62 170.46 LINE",
"392 0 LINE",
"502 0 LINE",
"324.62 229.23 LINE",
"494 456 LINE",
"384 456 LINE",
"258.79 289.75 LINE"
);
}
);
width = 517;
}
);
note = x;
unicode = 0078;
},
{
glyphname = y;
lastChange = "2019-10-01 16:47:00 +0000";
layers = (
{
anchors = (
{
name = bottom;
position = "{264, 0}";
},
{
name = top;
position = "{264, 456}";
}
);
layerId = "EB4C1DB0-6908-4E17-8095-5E13FC3F8D5C";
paths = (
{
closed = 1;
nodes = (
"515 456 LINE",
"410 456 LINE",
"265.51 108.67 LINE",
"123 456 LINE",
"13 456 LINE",
"216.96 1.74 LINE",
"190 -57 OFFCURVE",
"176 -86 OFFCURVE",
"130 -86 CURVE SMOOTH",
"107 -86 OFFCURVE",
"94 -85 OFFCURVE",
"73 -79 CURVE",
"73 -160 LINE",
"91 -167 OFFCURVE",
"117 -170 OFFCURVE",
"138 -170 CURVE SMOOTH",
"179 -170 OFFCURVE",
"212 -156 OFFCURVE",
"235 -129 CURVE SMOOTH",
"259 -101 OFFCURVE",
"284 -58 OFFCURVE",
"311 0 CURVE SMOOTH"
);
}
);
width = 527;
}
);
note = y;
unicode = 0079;
},
{
glyphname = z;
lastChange = "2019-10-01 17:10:10 +0000";
layers = (
{
anchors = (
{
name = bottom;
position = "{261, 0}";
},
{
name = top;
position = "{261, 456}";
}
);
layerId = "EB4C1DB0-6908-4E17-8095-5E13FC3F8D5C";
paths = (
{
closed = 1;
nodes = (
"51 61 LINE",
"51 0 LINE",
"471 0 LINE",
"471 79 LINE",
"184 79 LINE",
"471 394 LINE",
"471 456 LINE",
"51 456 LINE",
"51 376 LINE",
"338 376 LINE",
"52.59 61.66 LINE"
);
}
);
width = 522;
}
);
note = z;
unicode = 007A;
},
{
glyphname = braceleft;
lastChange = "2019-10-01 20:06:00 +0000";
layers = (
{
layerId = "EB4C1DB0-6908-4E17-8095-5E13FC3F8D5C";
paths = (
{
closed = 1;
nodes = (
"123 -46 LINE SMOOTH",
"123 -107 OFFCURVE",
"169 -154 OFFCURVE",
"228 -154 CURVE SMOOTH",
"289 -154 LINE",
"289 -108 LINE",
"264 -108 LINE SMOOTH",
"224 -108 OFFCURVE",
"207 -89 OFFCURVE",
"207 -49 CURVE SMOOTH",
"207 141 LINE SMOOTH",
"207 188 OFFCURVE",
"184 233 OFFCURVE",
"143 243 CURVE",
"187 254 OFFCURVE",
"207 298 OFFCURVE",
"207 346 CURVE SMOOTH",
"207 535 LINE SMOOTH",
"207 577 OFFCURVE",
"223 594 OFFCURVE",
"264 594 CURVE SMOOTH",
"289 594 LINE",
"289 640 LINE",
"228 640 LINE SMOOTH",
"172 640 OFFCURVE",
"123 596 OFFCURVE",
"123 532 CURVE SMOOTH",
"123 348 LINE SMOOTH",
"123 299 OFFCURVE",
"89 266 OFFCURVE",
"41 266 CURVE",
"41 220 LINE",
"90 220 OFFCURVE",
"123 186 OFFCURVE",
"123 138 CURVE SMOOTH"
);
}
);
width = 305;
}
);
note = braceleft;
unicode = 007B;
},
{
glyphname = bar;
lastChange = "2019-10-01 13:15:09 +0000";
layers = (
{
layerId = "EB4C1DB0-6908-4E17-8095-5E13FC3F8D5C";
paths = (
{
closed = 1;
nodes = (
"77 -87 LINE",
"156 -87 LINE",
"156 553 LINE",
"77 553 LINE"
);
}
);
width = 233;
}
);
note = bar;
unicode = 007C;
},
{
glyphname = braceright;
lastChange = "2019-10-01 20:05:42 +0000";
layers = (
{
layerId = "EB4C1DB0-6908-4E17-8095-5E13FC3F8D5C";
paths = (
{
closed = 1;
nodes = (
"77 -154 LINE SMOOTH",
"133 -154 OFFCURVE",
"182 -110 OFFCURVE",
"182 -46 CURVE SMOOTH",
"182 138 LINE SMOOTH",
"182 187 OFFCURVE",
"216 220 OFFCURVE",
"264 220 CURVE",
"264 266 LINE",
"215 266 OFFCURVE",
"182 300 OFFCURVE",
"182 348 CURVE SMOOTH",
"182 532 LINE SMOOTH",
"182 593 OFFCURVE",
"135 640 OFFCURVE",
"77 640 CURVE SMOOTH",
"15 640 LINE",
"15 594 LINE",
"41 594 LINE SMOOTH",
"78 594 OFFCURVE",
"97 579 OFFCURVE",
"97 535 CURVE SMOOTH",
"97 346 LINE SMOOTH",
"97 303 OFFCURVE",
"117 255 OFFCURVE",
"161 243 CURVE",
"120 233 OFFCURVE",
"97 185 OFFCURVE",
"97 141 CURVE SMOOTH",
"97 -49 LINE SMOOTH",
"97 -89 OFFCURVE",
"81 -108 OFFCURVE",
"41 -108 CURVE SMOOTH",
"15 -108 LINE",
"15 -154 LINE"
);
}
);
width = 304;
}
);
note = braceright;
unicode = 007D;
},
{
glyphname = asciitilde;
lastChange = "2019-10-01 20:05:18 +0000";
layers = (
{
layerId = "EB4C1DB0-6908-4E17-8095-5E13FC3F8D5C";
paths = (
{
closed = 1;
nodes = (
"110 199 LINE",
"116 230 OFFCURVE",
"150 252 OFFCURVE",
"193 252 CURVE SMOOTH",
"217 252 OFFCURVE",
"241.67 242.67 OFFCURVE",
"267 224 CURVE SMOOTH",
"293 204.67 OFFCURVE",
"323.67 195 OFFCURVE",
"359 195 CURVE SMOOTH",
"425 195 OFFCURVE",
"500 253 OFFCURVE",
"501 323 CURVE",
"442 323 LINE",
"438 293 OFFCURVE",
"400 270 OFFCURVE",
"360 270 CURVE SMOOTH",
"336 270 OFFCURVE",
"311 280 OFFCURVE",
"284 299 CURVE SMOOTH",
"257 318 OFFCURVE",
"227 327 OFFCURVE",
"193 327 CURVE SMOOTH",
"127 327 OFFCURVE",
"52 272 OFFCURVE",
"51 199 CURVE"
);
}
);
width = 552;
}
);
note = asciitilde;
unicode = 007E;
},
{
glyphname = exclamdown;
lastChange = "2019-10-01 20:06:24 +0000";
layers = (
{
layerId = "EB4C1DB0-6908-4E17-8095-5E13FC3F8D5C";
paths = (
{
closed = 1;
nodes = (
"205 433 OFFCURVE",
"181 461 OFFCURVE",
"138 461 CURVE SMOOTH",
"99 461 OFFCURVE",
"72 435 OFFCURVE",
"72 397 CURVE SMOOTH",
"72 361 OFFCURVE",
"96 333 OFFCURVE",
"138 333 CURVE SMOOTH",
"178 333 OFFCURVE",
"205 358 OFFCURVE",
"205 397 CURVE SMOOTH"
);
},
{
closed = 1;
nodes = (
"95 276 LINE",
"84 -97 LINE",
"192 -97 LINE",
"182 276 LINE"
);
}
);
width = 276;
}
);
note = exclamdown;
unicode = 00A1;
},
{
glyphname = cent;
lastChange = "2019-10-01 20:06:41 +0000";
layers = (
{
components = (
{
name = c;
}
);
layerId = "EB4C1DB0-6908-4E17-8095-5E13FC3F8D5C";
paths = (
{
closed = 1;
nodes = (
"297 -97 LINE",
"297 552.99 LINE",
"250 552.99 LINE",
"250 -97.01 LINE"
);
}
);
width = 542;
}
);
note = cent;
unicode = 00A2;
},
{
glyphname = sterling;
lastChange = "2019-10-01 20:06:58 +0000";
layers = (
{
layerId = "EB4C1DB0-6908-4E17-8095-5E13FC3F8D5C";
paths = (
{
closed = 1;
nodes = (
"113 289 LINE",
"51 289 LINE",
"51 218 LINE",
"113 218 LINE",
"113 159 LINE SMOOTH",
"113 112 OFFCURVE",
"99 82 OFFCURVE",
"56 82 CURVE SMOOTH",
"51 82 LINE",
"51 0 LINE",
"517 0 LINE",
"517 82 LINE",
"184 82 LINE",
"209 98 OFFCURVE",
"215 133 OFFCURVE",
"215 169 CURVE SMOOTH",
"215 218 LINE",
"369 218 LINE",
"369 289 LINE",
"215 289 LINE",
"215 348 LINE SMOOTH",
"215 429 OFFCURVE",
"246 481 OFFCURVE",
"317 481 CURVE SMOOTH",
"381 481 OFFCURVE",
"420 442 OFFCURVE",
"420 369 CURVE",
"517 369 LINE",
"517 495 OFFCURVE",
"439 563 OFFCURVE",
"315 563 CURVE SMOOTH",
"188 563 OFFCURVE",
"113 485 OFFCURVE",
"113 348 CURVE SMOOTH"
);
}
);
width = 553;
}
);
note = sterling;
unicode = 00A3;
},
{
glyphname = currency;
lastChange = "2019-10-01 20:07:35 +0000";
layers = (
{
layerId = "EB4C1DB0-6908-4E17-8095-5E13FC3F8D5C";
paths = (
{
closed = 1;
nodes = (
"465 458 LINE",
"416.36 409.36 LINE",
"381 436 OFFCURVE",
"328 456 OFFCURVE",
"279 456 CURVE SMOOTH",
"232 456 OFFCURVE",
"179 438 OFFCURVE",
"140.64 409.36 CURVE",
"92 458 LINE",
"49 415 LINE",
"97.41 365.75 LINE",
"71 330 OFFCURVE",
"51 278 OFFCURVE",
"51 228 CURVE SMOOTH",
"51 180 OFFCURVE",
"70 128 OFFCURVE",
"98.45 88.85 CURVE",
"51 41 LINE",
"95 -2 LINE",
"142.37 45.37 LINE",
"180 18 OFFCURVE",
"233 0 OFFCURVE",
"279 0 CURVE SMOOTH",
"325 0 OFFCURVE",
"377 18 OFFCURVE",
"414.93 45.59 CURVE",
"462 -2 LINE",
"506 42 LINE",
"458.46 88.73 LINE",
"487 127 OFFCURVE",
"506 181 OFFCURVE",
"506 228 CURVE SMOOTH",
"506 272 OFFCURVE",
"490 324 OFFCURVE",
"459.63 365.7 CURVE",
"508 415 LINE"
);
},
{
closed = 1;
nodes = (
"116 130 OFFCURVE",
"116 226 CURVE SMOOTH",
"116 324 OFFCURVE",
"185 396 OFFCURVE",
"279 396 CURVE SMOOTH",
"374 396 OFFCURVE",
"441 322 OFFCURVE",
"441 226 CURVE SMOOTH",
"441 134 OFFCURVE",
"370 61 OFFCURVE",
"279 61 CURVE SMOOTH",
"192 61 OFFCURVE"
);
}
);
width = 557;
}
);
note = currency;
unicode = 00A4;
},
{
glyphname = yen;
lastChange = "2019-10-01 20:07:45 +0000";
layers = (
{
layerId = "EB4C1DB0-6908-4E17-8095-5E13FC3F8D5C";
paths = (
{
closed = 1;
nodes = (
"348 189 LINE",
"471 189 LINE",
"471 246 LINE",
"354 246 LINE",
"558 553 LINE",
"443 553 LINE",
"297.8 319.21 LINE",
"154 553 LINE",
"36 553 LINE",
"239.94 246 LINE",
"123 246 LINE",
"123 189 LINE",
"246 189 LINE",
"246 133 LINE",
"123 133 LINE",
"123 77 LINE",
"246 77 LINE",
"246 0 LINE",
"348 0 LINE",
"348 77 LINE",
"471 77 LINE",
"471 133 LINE",
"348 133 LINE"
);
}
);
width = 590;
}
);
note = yen;
unicode = 00A5;
},
{
glyphname = section;
lastChange = "2019-10-01 20:10:20 +0000";
layers = (
{
layerId = "EB4C1DB0-6908-4E17-8095-5E13FC3F8D5C";
paths = (
{
closed = 1;
nodes = (
"226 -91 OFFCURVE",
"174 -58 OFFCURVE",
"174 -5 CURVE",
"76 -5 LINE",
"76 -110 OFFCURVE",
"176 -166 OFFCURVE",
"287 -166 CURVE SMOOTH",
"392 -166 OFFCURVE",
"498 -112 OFFCURVE",
"498 -14 CURVE SMOOTH",
"498 32 OFFCURVE",
"480 64 OFFCURVE",
"441.97 89.07 CURVE",
"490 120 OFFCURVE",
"509 141 OFFCURVE",
"509 193 CURVE SMOOTH",
"509 285 OFFCURVE",
"427 326 OFFCURVE",
"326 337 CURVE SMOOTH",
"245 348 OFFCURVE",
"171 365 OFFCURVE",
"171 413 CURVE SMOOTH",
"171 461 OFFCURVE",
"219 491 OFFCURVE",
"279 491 CURVE SMOOTH",
"338 491 OFFCURVE",
"387 458 OFFCURVE",
"387 404 CURVE",
"485 404 LINE",
"485 443 OFFCURVE",
"474 474 OFFCURVE",
"453 497 CURVE SMOOTH",
"411 542 OFFCURVE",
"343 566 OFFCURVE",
"279 566 CURVE SMOOTH",
"181 566 OFFCURVE",
"73 514 OFFCURVE",
"73 413 CURVE SMOOTH",
"73 367 OFFCURVE",
"90 336 OFFCURVE",
"129.08 310.31 CURVE",
"81 279 OFFCURVE",
"61 257 OFFCURVE",
"61 206 CURVE SMOOTH",
"61 107 OFFCURVE",
"142 81 OFFCURVE",
"253 60 CURVE SMOOTH",
"335 46 OFFCURVE",
"399 37 OFFCURVE",
"399 -14 CURVE SMOOTH",
"399 -61 OFFCURVE",
"347 -91 OFFCURVE",
"287 -91 CURVE SMOOTH"
);
},
{
closed = 1;
nodes = (
"226 273 OFFCURVE",
"242 270 OFFCURVE",
"258 268 CURVE SMOOTH",
"339 258 OFFCURVE",
"415 239 OFFCURVE",
"415 189 CURVE SMOOTH",
"415 159 OFFCURVE",
"398 137 OFFCURVE",
"359.33 122.34 CURVE",
"344.55 126.04 OFFCURVE",
"329.1 128.92 OFFCURVE",
"313 131 CURVE SMOOTH",
"230 143 OFFCURVE",
"156 159 OFFCURVE",
"156 210 CURVE SMOOTH",
"156 242 OFFCURVE",
"173 261 OFFCURVE",
"211.65 276.67 CURVE"
);
}
);
width = 555;
}
);
note = section;
unicode = 00A7;
},
{
glyphname = copyright;
lastChange = "2019-10-01 20:14:14 +0000";
layers = (
{
layerId = "EB4C1DB0-6908-4E17-8095-5E13FC3F8D5C";
paths = (
{
closed = 1;
nodes = (
"484 323 LINE",
"466 392 OFFCURVE",
"415 437 OFFCURVE",
"336 437 CURVE SMOOTH",
"242 437 OFFCURVE",
"177 371 OFFCURVE",
"177 279 CURVE SMOOTH",
"177 189 OFFCURVE",
"238 120 OFFCURVE",
"336 120 CURVE SMOOTH",
"412 120 OFFCURVE",
"465 164 OFFCURVE",
"484 234 CURVE",
"428 234 LINE",
"417 197 OFFCURVE",
"381 166 OFFCURVE",
"336 166 CURVE SMOOTH",
"274 166 OFFCURVE",
"235 216 OFFCURVE",
"235 279 CURVE SMOOTH",
"235 343 OFFCURVE",
"275 391 OFFCURVE",
"336 391 CURVE SMOOTH",
"380 391 OFFCURVE",
"415 364 OFFCURVE",
"428 323 CURVE"
);
},
{
closed = 1;
nodes = (
"620 436 OFFCURVE",
"498 563 OFFCURVE",
"330 563 CURVE SMOOTH",
"166 563 OFFCURVE",
"41 440 OFFCURVE",
"41 276 CURVE SMOOTH",
"41 116 OFFCURVE",
"163 -10 OFFCURVE",
"330 -10 CURVE SMOOTH",
"495 -10 OFFCURVE",
"620 115 OFFCURVE",
"620 276 CURVE SMOOTH"
);
},
{
closed = 1;
nodes = (
"467 512 OFFCURVE",
"566 410 OFFCURVE",
"566 276 CURVE SMOOTH",
"566 145 OFFCURVE",
"468 41 OFFCURVE",
"330 41 CURVE SMOOTH",
"194 41 OFFCURVE",
"95 142 OFFCURVE",
"95 276 CURVE SMOOTH",
"95 412 OFFCURVE",
"194 512 OFFCURVE",
"330 512 CURVE SMOOTH"
);
}
);
width = 660;
}
);
note = copyright;
unicode = 00A9;
},
{
glyphname = ordfeminine;
lastChange = "2019-10-01 13:15:09 +0000";
layers = (
{
layerId = "EB4C1DB0-6908-4E17-8095-5E13FC3F8D5C";
paths = (
{
closed = 1;
nodes = (
"131 445 LINE",
"131 461.67 OFFCURVE",
"138.67 473.67 OFFCURVE",
"154 481 CURVE SMOOTH",
"169.33 488.33 OFFCURVE",
"187 492 OFFCURVE",
"207 492 CURVE SMOOTH",
"227 492 OFFCURVE",
"245 488 OFFCURVE",
"261 480 CURVE SMOOTH",
"277 471.33 OFFCURVE",
"285 455 OFFCURVE",
"285 431 CURVE SMOOTH",
"285 411 LINE",
"198 411 LINE SMOOTH",
"147.33 411 OFFCURVE",
"109.33 403 OFFCURVE",
"84 387 CURVE SMOOTH",
"58.67 371.67 OFFCURVE",
"46 348.33 OFFCURVE",
"46 317 CURVE SMOOTH",
"46 285.67 OFFCURVE",
"57.33 260.67 OFFCURVE",
"80 242 CURVE SMOOTH",
"102 224 OFFCURVE",
"133 215 OFFCURVE",
"173 215 CURVE SMOOTH",
"221 215 OFFCURVE",
"255.67 227 OFFCURVE",
"277 251 CURVE",
"286.26 262.93 LINE",
"287.09 254.29 OFFCURVE",
"288.34 246.98 OFFCURVE",
"290 241 CURVE",
"294 222 LINE",
"365 222 LINE",
"365 228 LINE",
"360 243 LINE",
"357.33 253.67 OFFCURVE",
"356 270.33 OFFCURVE",
"356 293 CURVE SMOOTH",
"356 418 LINE SMOOTH",
"356 465.33 OFFCURVE",
"343 499.33 OFFCURVE",
"317 520 CURVE SMOOTH",
"291 540 OFFCURVE",
"254.33 550 OFFCURVE",
"207 550 CURVE SMOOTH",
"160.33 550 OFFCURVE",
"124 540 OFFCURVE",
"98 520 CURVE SMOOTH",
"72 499.33 OFFCURVE",
"59 474.33 OFFCURVE",
"59 445 CURVE"
);
},
{
closed = 1;
nodes = (
"285 364 LINE",
"285 327.33 OFFCURVE",
"276 302 OFFCURVE",
"258 288 CURVE SMOOTH",
"240 273.33 OFFCURVE",
"217.67 266 OFFCURVE",
"191 266 CURVE SMOOTH",
"167 266 OFFCURVE",
"149 270.33 OFFCURVE",
"137 279 CURVE",
"125 287 OFFCURVE",
"119 298.33 OFFCURVE",
"119 313 CURVE SMOOTH",
"119 329.67 OFFCURVE",
"125.67 342.33 OFFCURVE",
"139 351 CURVE SMOOTH",
"151.67 359.67 OFFCURVE",
"171.33 364 OFFCURVE",
"198 364 CURVE SMOOTH"
);
}
);
width = 411;
}
);
note = ordfeminine;
unicode = 00AA;
},
{
glyphname = guillemotleft;
lastChange = "2019-10-01 13:15:09 +0000";
layers = (
{
layerId = "EB4C1DB0-6908-4E17-8095-5E13FC3F8D5C";
paths = (
{
closed = 1;
nodes = (
"417 435 LINE",
"346 435 LINE",
"218 230 LINE",
"346 26 LINE",
"417 26 LINE",
"320 230 LINE"
);
},
{
closed = 1;
nodes = (
"191.67 332.67 OFFCURVE",
"224.33 401 OFFCURVE",
"241 435 CURVE",
"169 435 LINE",
"41 230 LINE",
"169 26 LINE",
"241 26 LINE",
"192.33 128 OFFCURVE",
"159.67 196 OFFCURVE",
"143 230 CURVE"
);
}
);
width = 463;
}
);
note = guillemotleft;
unicode = 00AB;
},
{
glyphname = registered;
lastChange = "2019-10-01 20:13:36 +0000";
layers = (
{
layerId = "EB4C1DB0-6908-4E17-8095-5E13FC3F8D5C";
paths = (
{
closed = 1;
nodes = (
"414 305 OFFCURVE",
"392 290 OFFCURVE",
"350 290 CURVE SMOOTH",
"261 290 LINE",
"261 384 LINE",
"350 384 LINE SMOOTH",
"388 384 OFFCURVE",
"414 372 OFFCURVE",
"414 337 CURVE SMOOTH"
);
},
{
closed = 1;
nodes = (
"467 512 OFFCURVE",
"566 410 OFFCURVE",
"566 276 CURVE SMOOTH",
"566 145 OFFCURVE",
"468 41 OFFCURVE",
"330 41 CURVE SMOOTH",
"194 41 OFFCURVE",
"95 142 OFFCURVE",
"95 276 CURVE SMOOTH",
"95 412 OFFCURVE",
"194 512 OFFCURVE",
"330 512 CURVE SMOOTH"
);
},
{
closed = 1;
nodes = (
"620 436 OFFCURVE",
"498 563 OFFCURVE",
"330 563 CURVE SMOOTH",
"169 563 OFFCURVE",
"41 443 OFFCURVE",
"41 276 CURVE SMOOTH",
"41 116 OFFCURVE",
"163 -10 OFFCURVE",
"330 -10 CURVE SMOOTH",
"495 -10 OFFCURVE",
"620 115 OFFCURVE",
"620 276 CURVE SMOOTH"
);
},
{
closed = 1;
nodes = (
"442 260 OFFCURVE",
"472 290 OFFCURVE",
"472 337 CURVE SMOOTH",
"472 398 OFFCURVE",
"423 429 OFFCURVE",
"350 429 CURVE SMOOTH",
"206 429 LINE",
"206 129 LINE",
"261 129 LINE",
"261 245 LINE",
"334.71 245 LINE",
"420 129 LINE",
"486 129 LINE",
"394.8 249.52 LINE"
);
}
);
width = 660;
}
);
note = registered;
unicode = 00AE;
},
{
glyphname = degree;
lastChange = "2019-10-01 20:13:07 +0000";
layers = (
{
layerId = "EB4C1DB0-6908-4E17-8095-5E13FC3F8D5C";
paths = (
{
closed = 1;
nodes = (
"46 369 OFFCURVE",
"91 320 OFFCURVE",
"164 320 CURVE SMOOTH",
"234 320 OFFCURVE",
"282 367 OFFCURVE",
"282 436 CURVE SMOOTH",
"282 503 OFFCURVE",
"238 553 OFFCURVE",
"164 553 CURVE SMOOTH",
"93 553 OFFCURVE",
"46 506 OFFCURVE",
"46 436 CURVE SMOOTH"
);
},
{
closed = 1;
nodes = (
"102 470 OFFCURVE",
"124 499 OFFCURVE",
"164 499 CURVE SMOOTH",
"202 499 OFFCURVE",
"225 473 OFFCURVE",
"225 436 CURVE SMOOTH",
"225 402 OFFCURVE",
"203 374 OFFCURVE",
"164 374 CURVE SMOOTH",
"128 374 OFFCURVE",
"102 400 OFFCURVE",
"102 436 CURVE SMOOTH"
);
}
);
width = 327;
}
);
note = degree;
unicode = 00B0;
},
{
glyphname = twosuperior;
lastChange = "2019-10-01 13:15:09 +0000";
layers = (
{
layerId = "EB4C1DB0-6908-4E17-8095-5E13FC3F8D5C";
paths = (
{
closed = 1;
nodes = (
"114 433 LINE",
"114 453 OFFCURVE",
"119.67 469 OFFCURVE",
"131 481 CURVE SMOOTH",
"141.67 493 OFFCURVE",
"157.33 499 OFFCURVE",
"178 499 CURVE SMOOTH",
"198.67 499 OFFCURVE",
"214.33 494 OFFCURVE",
"225 484 CURVE",
"236.33 474.67 OFFCURVE",
"242 462 OFFCURVE",
"242 446 CURVE SMOOTH",
"242 436 OFFCURVE",
"239.67 427 OFFCURVE",
"235 419 CURVE SMOOTH",
"230.33 411 OFFCURVE",
"224.33 403.67 OFFCURVE",
"217 397 CURVE SMOOTH",
"202.33 384.33 OFFCURVE",
"184.67 372.67 OFFCURVE",
"164 362 CURVE SMOOTH",
"143.33 351.33 OFFCURVE",
"124 339.33 OFFCURVE",
"106 326 CURVE SMOOTH",
"90.67 314.67 OFFCURVE",
"78 301.33 OFFCURVE",
"68 286 CURVE SMOOTH",
"58 271.33 OFFCURVE",
"53 253.33 OFFCURVE",
"53 232 CURVE",
"52 215 LINE",
"307 215 LINE",
"307 268 LINE",
"132.28 268 LINE",
"135.95 272.95 OFFCURVE",
"140.19 277.62 OFFCURVE",
"145 282 CURVE SMOOTH",
"159.67 294.67 OFFCURVE",
"177.33 306 OFFCURVE",
"198 316 CURVE SMOOTH",
"218.67 326.67 OFFCURVE",
"238.33 338.67 OFFCURVE",
"257 352 CURVE",
"271.67 363.33 OFFCURVE",
"284.33 376.33 OFFCURVE",
"295 391 CURVE SMOOTH",
"305 405.67 OFFCURVE",
"310 424 OFFCURVE",
"310 446 CURVE SMOOTH",
"310 484 OFFCURVE",
"295.67 510.67 OFFCURVE",
"267 526 CURVE SMOOTH",
"238.33 542 OFFCURVE",
"208.67 550 OFFCURVE",
"178 550 CURVE SMOOTH",
"148.67 550 OFFCURVE",
"119.33 541 OFFCURVE",
"90 523 CURVE SMOOTH",
"60.67 504.33 OFFCURVE",
"46 474.33 OFFCURVE",
"46 433 CURVE"
);
}
);
width = 356;
}
);
note = twosuperior;
unicode = 00B2;
},
{
glyphname = threesuperior;
lastChange = "2019-10-01 13:15:09 +0000";
layers = (
{
layerId = "EB4C1DB0-6908-4E17-8095-5E13FC3F8D5C";
paths = (
{
closed = 1;
nodes = (
"153.33 258 OFFCURVE",
"137.67 263 OFFCURVE",
"127 273 CURVE SMOOTH",
"115.67 283.67 OFFCURVE",
"110 298.67 OFFCURVE",
"110 318 CURVE",
"41 318 LINE",
"41 278 OFFCURVE",
"55 249.67 OFFCURVE",
"83 233 CURVE SMOOTH",
"111 215.67 OFFCURVE",
"141.33 207 OFFCURVE",
"174 207 CURVE SMOOTH",
"205.33 207 OFFCURVE",
"235 215 OFFCURVE",
"263 231 CURVE SMOOTH",
"291.67 247 OFFCURVE",
"306 272 OFFCURVE",
"306 306 CURVE SMOOTH",
"306 330 OFFCURVE",
"297 349 OFFCURVE",
"279 363 CURVE SMOOTH",
"269.02 370.84 OFFCURVE",
"258.29 377.63 OFFCURVE",
"246.79 383.37 CURVE",
"256.49 387.96 OFFCURVE",
"265.56 393.51 OFFCURVE",
"274 400 CURVE SMOOTH",
"291.33 412.67 OFFCURVE",
"300 431.33 OFFCURVE",
"300 456 CURVE SMOOTH",
"300 489.33 OFFCURVE",
"286.67 513.33 OFFCURVE",
"260 528 CURVE SMOOTH",
"233.33 542.67 OFFCURVE",
"204.67 550 OFFCURVE",
"174 550 CURVE SMOOTH",
"142.67 550 OFFCURVE",
"113 541.67 OFFCURVE",
"85 525 CURVE SMOOTH",
"57 508.33 OFFCURVE",
"43 481.33 OFFCURVE",
"43 444 CURVE",
"111 444 LINE",
"111 460.67 OFFCURVE",
"116.33 474 OFFCURVE",
"127 484 CURVE SMOOTH",
"137.67 494 OFFCURVE",
"153.33 499 OFFCURVE",
"174 499 CURVE SMOOTH",
"194.67 499 OFFCURVE",
"209.33 494.67 OFFCURVE",
"218 486 CURVE",
"226 476.67 OFFCURVE",
"230 465.67 OFFCURVE",
"230 453 CURVE SMOOTH",
"230 439.67 OFFCURVE",
"225 429 OFFCURVE",
"215 421 CURVE",
"204.33 413.67 OFFCURVE",
"189.67 410 OFFCURVE",
"171 410 CURVE SMOOTH",
"140 410 LINE",
"140 358 LINE",
"168 358 LINE SMOOTH",
"186.67 358 OFFCURVE",
"203 354 OFFCURVE",
"217 346 CURVE SMOOTH",
"231 338 OFFCURVE",
"238 325 OFFCURVE",
"238 307 CURVE SMOOTH",
"238 293 OFFCURVE",
"232.33 281.33 OFFCURVE",
"221 272 CURVE SMOOTH",
"210.33 262.67 OFFCURVE",
"194.67 258 OFFCURVE",
"174 258 CURVE SMOOTH"
);
}
);
width = 347;
}
);
note = threesuperior;
unicode = 00B3;
},
{
glyphname = paragraph;
lastChange = "2019-10-01 20:12:55 +0000";
layers = (
{
layerId = "EB4C1DB0-6908-4E17-8095-5E13FC3F8D5C";
paths = (
{
closed = 1;
nodes = (
"323 -164 LINE",
"323 476 LINE",
"430 476 LINE",
"430 -164 LINE",
"530 -164 LINE",
"530 553 LINE",
"261 553 LINE SMOOTH",
"133 553 OFFCURVE",
"36 499 OFFCURVE",
"36 380 CURVE SMOOTH",
"36 379 LINE SMOOTH",
"36 273 OFFCURVE",
"112 216 OFFCURVE",
"223 206.58 CURVE",
"223 -164 LINE"
);
}
);
width = 601;
}
);
note = paragraph;
unicode = 00B6;
},
{
glyphname = periodcentered;
lastChange = "2019-10-01 13:15:09 +0000";
layers = (
{
layerId = "EB4C1DB0-6908-4E17-8095-5E13FC3F8D5C";
paths = (
{
closed = 1;
nodes = (
"143.67 197 OFFCURVE",
"160 203 OFFCURVE",
"172 215 CURVE SMOOTH",
"183.33 227 OFFCURVE",
"189 242.33 OFFCURVE",
"189 261 CURVE SMOOTH",
"189 279.67 OFFCURVE",
"183.33 295 OFFCURVE",
"172 307 CURVE SMOOTH",
"160 319 OFFCURVE",
"143.67 325 OFFCURVE",
"123 325 CURVE SMOOTH",
"102.33 325 OFFCURVE",
"86 319 OFFCURVE",
"74 307 CURVE SMOOTH",
"62 295 OFFCURVE",
"56 279.67 OFFCURVE",
"56 261 CURVE SMOOTH",
"56 242.33 OFFCURVE",
"62 227 OFFCURVE",
"74 215 CURVE SMOOTH",
"86 203 OFFCURVE",
"102.33 197 OFFCURVE",
"123 197 CURVE SMOOTH"
);
}
);
width = 246;
}
);
note = periodcentered;
unicode = 00B7;
},
{
glyphname = onesuperior;
lastChange = "2019-10-01 13:15:09 +0000";
layers = (
{
layerId = "EB4C1DB0-6908-4E17-8095-5E13FC3F8D5C";
paths = (
{
closed = 1;
nodes = (
"28 490 LINE",
"28 433 LINE",
"52 443 LINE SMOOTH",
"68 449.67 OFFCURVE",
"93.33 464 OFFCURVE",
"128 486 CURVE",
"128 215 LINE",
"194 215 LINE",
"194 543 LINE",
"128 543 LINE",
"93.33 520.33 OFFCURVE",
"68 506 OFFCURVE",
"52 500 CURVE"
);
}
);
width = 260;
}
);
note = onesuperior;
unicode = 00B9;
},
{
glyphname = ordmasculine;
lastChange = "2019-10-01 17:14:04 +0000";
layers = (
{
layerId = "EB4C1DB0-6908-4E17-8095-5E13FC3F8D5C";
paths = (
{
closed = 1;
nodes = (
"316 323 OFFCURVE",
"281 272 OFFCURVE",
"217 272 CURVE SMOOTH",
"158 272 OFFCURVE",
"117 315 OFFCURVE",
"117 382 CURVE SMOOTH",
"117 442 OFFCURVE",
"151 493 OFFCURVE",
"217 493 CURVE SMOOTH",
"279 493 OFFCURVE",
"316 446 OFFCURVE",
"316 382 CURVE SMOOTH"
);
},
{
closed = 1;
nodes = (
"45 283 OFFCURVE",
"110 214 OFFCURVE",
"217 214 CURVE SMOOTH",
"322 214 OFFCURVE",
"389 281 OFFCURVE",
"389 382 CURVE SMOOTH",
"389 485 OFFCURVE",
"319 551 OFFCURVE",
"217 551 CURVE SMOOTH",
"112 551 OFFCURVE",
"45 484 OFFCURVE",
"45 382 CURVE SMOOTH"
);
}
);
width = 432;
}
);
note = ordmasculine;
unicode = 00BA;
},
{
glyphname = guillemotright;
lastChange = "2019-10-01 13:15:09 +0000";
layers = (
{
layerId = "EB4C1DB0-6908-4E17-8095-5E13FC3F8D5C";
paths = (
{
closed = 1;
nodes = (
"246 230 LINE",
"118 435 LINE",
"46 435 LINE",
"94.67 333 OFFCURVE",
"127 264.67 OFFCURVE",
"143 230 CURVE",
"46 26 LINE",
"118 26 LINE"
);
},
{
closed = 1;
nodes = (
"422 230 LINE",
"294 435 LINE",
"223 435 LINE",
"271.67 333 OFFCURVE",
"304 264.67 OFFCURVE",
"320 230 CURVE",
"223 26 LINE",
"294 26 LINE"
);
}
);
width = 463;
}
);
note = guillemotright;
unicode = 00BB;
},
{
glyphname = questiondown;
lastChange = "2019-10-01 13:15:09 +0000";
layers = (
{
layerId = "EB4C1DB0-6908-4E17-8095-5E13FC3F8D5C";
paths = (
{
closed = 1;
nodes = (
"228 461 OFFCURVE",
"212 455 OFFCURVE",
"200 443 CURVE SMOOTH",
"188 431 OFFCURVE",
"182 415.67 OFFCURVE",
"182 397 CURVE SMOOTH",
"182 378.33 OFFCURVE",
"188 363 OFFCURVE",
"200 351 CURVE SMOOTH",
"212 339 OFFCURVE",
"228 333 OFFCURVE",
"248 333 CURVE SMOOTH",
"268.67 333 OFFCURVE",
"285 339 OFFCURVE",
"297 351 CURVE SMOOTH",
"309 363 OFFCURVE",
"315 378.33 OFFCURVE",
"315 397 CURVE SMOOTH",
"315 415.67 OFFCURVE",
"309 431 OFFCURVE",
"297 443 CURVE SMOOTH",
"285 455 OFFCURVE",
"268.67 461 OFFCURVE",
"248 461 CURVE SMOOTH"
);
},
{
closed = 1;
nodes = (
"353 67 LINE",
"353 39.67 OFFCURVE",
"343.67 17 OFFCURVE",
"325 -1 CURVE SMOOTH",
"305.67 -19 OFFCURVE",
"280 -28 OFFCURVE",
"248 -28 CURVE SMOOTH",
"213.33 -28 OFFCURVE",
"187 -20.33 OFFCURVE",
"169 -5 CURVE SMOOTH",
"150.33 11 OFFCURVE",
"141 32.33 OFFCURVE",
"141 59 CURVE SMOOTH",
"141 69 OFFCURVE",
"143 78 OFFCURVE",
"147 86 CURVE",
"150.33 93.33 OFFCURVE",
"155.33 100 OFFCURVE",
"162 106 CURVE SMOOTH",
"174 117.33 OFFCURVE",
"189 127.67 OFFCURVE",
"207 137 CURVE SMOOTH",
"224.33 145.67 OFFCURVE",
"241 157 OFFCURVE",
"257 171 CURVE SMOOTH",
"269.67 182.33 OFFCURVE",
"280.33 196.33 OFFCURVE",
"289 213 CURVE SMOOTH",
"297.67 229 OFFCURVE",
"302 250 OFFCURVE",
"302 276 CURVE",
"195 276 LINE",
"195 258.67 OFFCURVE",
"190.33 244 OFFCURVE",
"181 232 CURVE SMOOTH",
"172.33 220.67 OFFCURVE",
"161.67 210.33 OFFCURVE",
"149 201 CURVE SMOOTH",
"133.67 190.33 OFFCURVE",
"117 179.67 OFFCURVE",
"99 169 CURVE SMOOTH",
"81 158.33 OFFCURVE",
"66.33 144.33 OFFCURVE",
"55 127 CURVE",
"48.33 117.67 OFFCURVE",
"43 107 OFFCURVE",
"39 95 CURVE SMOOTH",
"35 83 OFFCURVE",
"33 69.33 OFFCURVE",
"33 54 CURVE SMOOTH",
"33 14 OFFCURVE",
"44 -18 OFFCURVE",
"66 -42 CURVE SMOOTH",
"88 -65.33 OFFCURVE",
"114.33 -82.33 OFFCURVE",
"145 -93 CURVE SMOOTH",
"161.67 -99 OFFCURVE",
"178.67 -103.33 OFFCURVE",
"196 -106 CURVE SMOOTH",
"214 -108.67 OFFCURVE",
"231.33 -110 OFFCURVE",
"248 -110 CURVE SMOOTH",
"277.33 -110 OFFCURVE",
"308.33 -104.67 OFFCURVE",
"341 -94 CURVE SMOOTH",
"373.67 -82.67 OFFCURVE",
"400.67 -64.67 OFFCURVE",
"422 -40 CURVE SMOOTH",
"434 -26.67 OFFCURVE",
"443.33 -11 OFFCURVE",
"450 7 CURVE",
"457.33 24.33 OFFCURVE",
"461 44.33 OFFCURVE",
"461 67 CURVE"
);
}
);
width = 474;
}
);
note = questiondown;
unicode = 00BF;
},
{
color = 5;
glyphname = AE;
lastChange = "2019-10-01 16:48:59 +0000";
layers = (
{
layerId = "EB4C1DB0-6908-4E17-8095-5E13FC3F8D5C";
paths = (
{
closed = 1;
nodes = (
"121 0 LINE",
"201.48 121 LINE",
"443 121 LINE",
"443 0 LINE",
"891 0 LINE",
"891 82 LINE",
"543 82 LINE",
"543 241 LINE",
"855 241 LINE",
"855 323 LINE",
"543 323 LINE",
"543 471 LINE",
"891 471 LINE",
"891 553 LINE",
"377 553 LINE",
"10 0 LINE"
);
},
{
closed = 1;
nodes = (
"252.7 198 LINE",
"443 483.96 LINE",
"443 198 LINE"
);
}
);
width = 937;
}
);
note = AE;
unicode = 00C6;
},
{
color = 5;
glyphname = Eacute;
lastChange = "2019-10-01 15:07:15 +0000";
layers = (
{
components = (
{
name = E;
},
{
name = acutecomb.case;
transform = "{1, 0, 0, 1, -53, 0}";
}
);
layerId = "EB4C1DB0-6908-4E17-8095-5E13FC3F8D5C";
paths = (
{
closed = 1;
nodes = (
"72 0 LINE",
"522 0 LINE",
"522 82 LINE",
"174 82 LINE",
"174 241 LINE",
"486 241 LINE",
"486 323 LINE",
"174 323 LINE",
"174 471 LINE",
"522 471 LINE",
"522 553 LINE",
"72 553 LINE"
);
}
);
width = 600;
}
);
unicode = 00C9;
},
{
color = 5;
glyphname = Ecircumflex;
lastChange = "2019-10-01 15:09:50 +0000";
layers = (
{
components = (
{
name = E;
},
{
name = circumflexcomb.case;
transform = "{1, 0, 0, 1, -34, 0}";
}
);
layerId = "EB4C1DB0-6908-4E17-8095-5E13FC3F8D5C";
paths = (
{
closed = 1;
nodes = (
"72 0 LINE",
"522 0 LINE",
"522 82 LINE",
"174 82 LINE",
"174 241 LINE",
"486 241 LINE",
"486 323 LINE",
"174 323 LINE",
"174 471 LINE",
"522 471 LINE",
"522 553 LINE",
"72 553 LINE"
);
}
);
width = 600;
}
);
unicode = 00CA;
},
{
glyphname = multiply;
lastChange = "2019-10-01 13:15:09 +0000";
layers = (
{
layerId = "EB4C1DB0-6908-4E17-8095-5E13FC3F8D5C";
paths = (
{
closed = 1;
nodes = (
"188.5 258.5 LINE",
"56 126 LINE",
"83.33 99.33 OFFCURVE",
"101.67 81.33 OFFCURVE",
"111 72 CURVE",
"242.95 204.05 LINE",
"375 72 LINE",
"429 126 LINE",
"379.92 175.08 OFFCURVE",
"335.9 219.13 OFFCURVE",
"296.94 258.15 CURVE",
"429 391 LINE",
"401.67 417.67 OFFCURVE",
"383.67 435.67 OFFCURVE",
"375 445 CURVE",
"242.61 312.61 LINE",
"111 445 LINE",
"83.67 417.67 OFFCURVE",
"65.33 399.67 OFFCURVE",
"56 391 CURVE"
);
}
);
width = 485;
}
);
note = multiply;
unicode = 00D7;
},
{
color = 5;
glyphname = germandbls;
lastChange = "2019-10-01 19:22:28 +0000";
layers = (
{
layerId = "EB4C1DB0-6908-4E17-8095-5E13FC3F8D5C";
paths = (
{
closed = 1;
nodes = (
"367 379 OFFCURVE",
"389 382 OFFCURVE",
"415 421 CURVE SMOOTH",
"427 439 OFFCURVE",
"434 467 OFFCURVE",
"434 490 CURVE SMOOTH",
"434 578 OFFCURVE",
"354 630 OFFCURVE",
"264 630 CURVE SMOOTH",
"147 630 OFFCURVE",
"72 563 OFFCURVE",
"72 438 CURVE SMOOTH",
"72 0 LINE",
"172 0 LINE",
"172 445 LINE SMOOTH",
"172 508 OFFCURVE",
"195 551 OFFCURVE",
"262 551 CURVE SMOOTH",
"302 551 OFFCURVE",
"342 529 OFFCURVE",
"342 486 CURVE SMOOTH",
"342 463.33 OFFCURVE",
"336 446.67 OFFCURVE",
"324 436 CURVE SMOOTH",
"292 406 OFFCURVE",
"271 377 OFFCURVE",
"271 330 CURVE SMOOTH",
"271 291.33 OFFCURVE",
"283.67 263.67 OFFCURVE",
"309 247 CURVE SMOOTH",
"405 185 OFFCURVE",
"424 177 OFFCURVE",
"424 135 CURVE SMOOTH",
"424 96 OFFCURVE",
"394 74 OFFCURVE",
"353 74 CURVE SMOOTH",
"307 74 OFFCURVE",
"277 83 OFFCURVE",
"233 105 CURVE",
"233 26 LINE",
"265 5 OFFCURVE",
"315 -5 OFFCURVE",
"359 -5 CURVE SMOOTH",
"451 -5 OFFCURVE",
"522 36 OFFCURVE",
"522 131 CURVE SMOOTH",
"522 207 OFFCURVE",
"491 230 OFFCURVE",
"411 282 CURVE SMOOTH",
"384 299 OFFCURVE",
"367 315 OFFCURVE",
"367 340 CURVE SMOOTH"
);
}
);
width = 558;
}
);
note = germandbls;
unicode = 00DF;
},
{
color = 5;
glyphname = ae;
lastChange = "2019-10-01 16:49:53 +0000";
layers = (
{
layerId = "EB4C1DB0-6908-4E17-8095-5E13FC3F8D5C";
paths = (
{
closed = 1;
nodes = (
"166 315 LINE",
"166 362 OFFCURVE",
"220 381 OFFCURVE",
"274 381 CURVE SMOOTH",
"343 381 OFFCURVE",
"384 357 OFFCURVE",
"384 294 CURVE SMOOTH",
"384 266 LINE",
"261 266 LINE SMOOTH",
"140 266 OFFCURVE",
"46 235 OFFCURVE",
"46 133 CURVE SMOOTH",
"46 39 OFFCURVE",
"118 -10 OFFCURVE",
"225 -10 CURVE SMOOTH",
"309 -10 OFFCURVE",
"387 13 OFFCURVE",
"424.1 75.74 CURVE",
"467 19 OFFCURVE",
"531 -10 OFFCURVE",
"612 -10 CURVE SMOOTH",
"714 -10 OFFCURVE",
"796 39 OFFCURVE",
"832 131 CURVE",
"719 131 LINE",
"694 92 OFFCURVE",
"659 72 OFFCURVE",
"612 72 CURVE SMOOTH",
"535 72 OFFCURVE",
"485 122 OFFCURVE",
"475.56 200 CURVE",
"839 200 LINE",
"840 206 OFFCURVE",
"840 211 OFFCURVE",
"840 228 CURVE SMOOTH",
"840 367 OFFCURVE",
"746 466 OFFCURVE",
"607 466 CURVE SMOOTH",
"542 466 OFFCURVE",
"483 445 OFFCURVE",
"438.48 401.77 CURVE",
"405 448 OFFCURVE",
"341 463 OFFCURVE",
"274 463 CURVE SMOOTH",
"162 463 OFFCURVE",
"64 412 OFFCURVE",
"64 315 CURVE"
);
},
{
closed = 1;
nodes = (
"384 108 OFFCURVE",
"338 61 OFFCURVE",
"251 61 CURVE SMOOTH",
"194 61 OFFCURVE",
"148 80 OFFCURVE",
"148 128 CURVE SMOOTH",
"148 183 OFFCURVE",
"198 199 OFFCURVE",
"261 200 CURVE SMOOTH",
"384 199.06 LINE"
);
},
{
closed = 1;
nodes = (
"476.83 266 LINE",
"488 335 OFFCURVE",
"531 384 OFFCURVE",
"607.01 384 CURVE SMOOTH",
"679 384 OFFCURVE",
"724 336 OFFCURVE",
"735.19 266 CURVE"
);
}
);
width = 881;
}
);
note = ae;
unicode = 00E6;
},
{
color = 5;
glyphname = edieresis;
lastChange = "2019-10-01 16:40:01 +0000";
layers = (
{
components = (
{
name = e;
},
{
name = dieresiscomb;
transform = "{1, 0, 0, 1, 49, 0}";
}
);
layerId = "EB4C1DB0-6908-4E17-8095-5E13FC3F8D5C";
paths = (
{
closed = 1;
nodes = (
"41 158.67 OFFCURVE",
"62.67 101.67 OFFCURVE",
"106 57 CURVE SMOOTH",
"148.67 12.33 OFFCURVE",
"207.33 -10 OFFCURVE",
"282 -10 CURVE SMOOTH",
"336 -10 OFFCURVE",
"382 2.67 OFFCURVE",
"420 28 CURVE SMOOTH",
"458 54 OFFCURVE",
"485.33 88.33 OFFCURVE",
"502 131 CURVE",
"389 131 LINE",
"377.67 113 OFFCURVE",
"363.33 98.67 OFFCURVE",
"346 88 CURVE SMOOTH",
"328.67 77.33 OFFCURVE",
"307.33 72 OFFCURVE",
"282 72 CURVE SMOOTH",
"239.33 72 OFFCURVE",
"205.67 86 OFFCURVE",
"181 114 CURVE SMOOTH",
"160.87 136.78 OFFCURVE",
"148.74 165.44 OFFCURVE",
"144.6 200 CURVE",
"509 200 LINE",
"509 204.67 OFFCURVE",
"509.33 209.33 OFFCURVE",
"510 214 CURVE",
"510 228 LINE SMOOTH",
"510 297.33 OFFCURVE",
"488.33 354.33 OFFCURVE",
"445 399 CURVE SMOOTH",
"401.67 443.67 OFFCURVE",
"345.33 466 OFFCURVE",
"276 466 CURVE SMOOTH",
"204.67 466 OFFCURVE",
"147.67 443.67 OFFCURVE",
"105 399 CURVE SMOOTH",
"62.33 354.33 OFFCURVE",
"41 297.33 OFFCURVE",
"41 228 CURVE SMOOTH"
);
},
{
closed = 1;
nodes = (
"145.82 266 LINE",
"150.57 295.95 OFFCURVE",
"161.29 320.95 OFFCURVE",
"178 341 CURVE SMOOTH",
"201.33 369.67 OFFCURVE",
"234 384 OFFCURVE",
"276 384 CURVE SMOOTH",
"318 384 OFFCURVE",
"350.33 369.67 OFFCURVE",
"373 341 CURVE SMOOTH",
"389.7 320.95 OFFCURVE",
"400.43 295.95 OFFCURVE",
"405.18 266 CURVE"
);
}
);
width = 551;
}
);
note = edieresis;
unicode = 00EB;
},
{
glyphname = divide;
lastChange = "2019-10-01 13:15:09 +0000";
layers = (
{
layerId = "EB4C1DB0-6908-4E17-8095-5E13FC3F8D5C";
paths = (
{
closed = 1;
nodes = (
"296.67 353 OFFCURVE",
"313 359 OFFCURVE",
"325 371 CURVE SMOOTH",
"337 383 OFFCURVE",
"343 398.33 OFFCURVE",
"343 417 CURVE SMOOTH",
"343 435.67 OFFCURVE",
"337 451 OFFCURVE",
"325 463 CURVE SMOOTH",
"313 475 OFFCURVE",
"296.67 481 OFFCURVE",
"276 481 CURVE SMOOTH",
"256 481 OFFCURVE",
"240 475 OFFCURVE",
"228 463 CURVE SMOOTH",
"216 451 OFFCURVE",
"210 435.67 OFFCURVE",
"210 417 CURVE SMOOTH",
"210 398.33 OFFCURVE",
"216 383 OFFCURVE",
"228 371 CURVE SMOOTH",
"240 359 OFFCURVE",
"256 353 OFFCURVE",
"276 353 CURVE SMOOTH"
);
},
{
closed = 1;
nodes = (
"296.67 36 OFFCURVE",
"313 42 OFFCURVE",
"325 54 CURVE SMOOTH",
"337 66 OFFCURVE",
"343 81.33 OFFCURVE",
"343 100 CURVE SMOOTH",
"343 118.67 OFFCURVE",
"337 134 OFFCURVE",
"325 146 CURVE SMOOTH",
"313 158 OFFCURVE",
"296.67 164 OFFCURVE",
"276 164 CURVE SMOOTH",
"256 164 OFFCURVE",
"240 158 OFFCURVE",
"228 146 CURVE SMOOTH",
"216 134 OFFCURVE",
"210 118.67 OFFCURVE",
"210 100 CURVE SMOOTH",
"210 81.33 OFFCURVE",
"216 66 OFFCURVE",
"228 54 CURVE SMOOTH",
"240 42 OFFCURVE",
"256 36 OFFCURVE",
"276 36 CURVE SMOOTH"
);
},
{
closed = 1;
nodes = (
"502 220 LINE",
"502 297 LINE",
"51 297 LINE",
"51 220 LINE"
);
}
);
width = 553;
}
);
note = divide;
unicode = 00F7;
},
{
color = 5;
glyphname = OE;
lastChange = "2019-10-01 16:48:50 +0000";
layers = (
{
layerId = "EB4C1DB0-6908-4E17-8095-5E13FC3F8D5C";
paths = (
{
closed = 1;
nodes = (
"406.33 -15 OFFCURVE",
"474 13 OFFCURVE",
"520 69 CURVE SMOOTH",
"522 71.49 LINE",
"522 0 LINE",
"970 0 LINE",
"970 82 LINE",
"622 82 LINE",
"622 241 LINE",
"934 241 LINE",
"934 323 LINE",
"622 323 LINE",
"622 471 LINE",
"970 471 LINE",
"970 553 LINE",
"522 553 LINE",
"522 481.51 LINE",
"520 484 LINE SMOOTH",
"474 540 OFFCURVE",
"406.33 568 OFFCURVE",
"317 568 CURVE SMOOTH",
"156 568 OFFCURVE",
"41 439 OFFCURVE",
"41 276 CURVE SMOOTH",
"41 114 OFFCURVE",
"162 -15 OFFCURVE",
"317 -15 CURVE SMOOTH"
);
},
{
closed = 1;
nodes = (
"522 156 OFFCURVE",
"448 69 OFFCURVE",
"335 69 CURVE SMOOTH",
"225 69 OFFCURVE",
"148 155 OFFCURVE",
"148 276 CURVE SMOOTH",
"148 396 OFFCURVE",
"223 484 OFFCURVE",
"335 484 CURVE SMOOTH",
"447 484 OFFCURVE",
"522 399 OFFCURVE",
"522 276 CURVE SMOOTH"
);
}
);
width = 1021;
}
);
note = OE;
unicode = 0152;
},
{
color = 5;
glyphname = oe;
lastChange = "2019-10-01 16:48:50 +0000";
layers = (
{
layerId = "EB4C1DB0-6908-4E17-8095-5E13FC3F8D5C";
paths = (
{
closed = 1;
nodes = (
"425 141 OFFCURVE",
"375 72 OFFCURVE",
"284 72 CURVE SMOOTH",
"197 72 OFFCURVE",
"143 138 OFFCURVE",
"143 228 CURVE SMOOTH",
"143 317 OFFCURVE",
"198 384 OFFCURVE",
"284 384 CURVE SMOOTH",
"371 384 OFFCURVE",
"425 317 OFFCURVE",
"425 228 CURVE SMOOTH"
);
},
{
closed = 1;
nodes = (
"41 87 OFFCURVE",
"134 -10 OFFCURVE",
"284 -10 CURVE SMOOTH",
"358 -10 OFFCURVE",
"419 17 OFFCURVE",
"461.37 74.75 CURVE",
"507 16 OFFCURVE",
"575 -10 OFFCURVE",
"653 -10 CURVE SMOOTH",
"755 -10 OFFCURVE",
"837 39 OFFCURVE",
"873 131 CURVE",
"760 131 LINE",
"735 92 OFFCURVE",
"700 72 OFFCURVE",
"653 72 CURVE SMOOTH",
"575 72 OFFCURVE",
"526 122 OFFCURVE",
"516.56 200 CURVE",
"880 200 LINE",
"881 206 OFFCURVE",
"881 211 OFFCURVE",
"881 228 CURVE SMOOTH",
"881 367 OFFCURVE",
"787 466 OFFCURVE",
"648 466 CURVE SMOOTH",
"573 466 OFFCURVE",
"506 438 OFFCURVE",
"461.22 381.46 CURVE",
"419 440 OFFCURVE",
"358 466 OFFCURVE",
"284 466 CURVE SMOOTH",
"137 466 OFFCURVE",
"41 371 OFFCURVE",
"41 228 CURVE SMOOTH"
);
},
{
closed = 1;
nodes = (
"517.75 266 LINE",
"529 336 OFFCURVE",
"572 384 OFFCURVE",
"648.01 384 CURVE SMOOTH",
"720 384 OFFCURVE",
"765 336 OFFCURVE",
"776.19 266 CURVE"
);
}
);
width = 923;
}
);
note = oe;
unicode = 0153;
},
{
color = 5;
glyphname = Ydieresis;
lastChange = "2019-10-01 15:32:28 +0000";
layers = (
{
components = (
{
name = Y;
},
{
name = dieresiscomb.case;
transform = "{1, 0, 0, 1, -30, 0}";
}
);
layerId = "EB4C1DB0-6908-4E17-8095-5E13FC3F8D5C";
paths = (
{
closed = 1;
nodes = (
"244 0 LINE",
"346 0 LINE",
"346 209.53 LINE",
"574 553 LINE",
"456 553 LINE",
"296.46 297.08 LINE",
"139 553 LINE",
"15 553 LINE",
"244 208 LINE"
);
}
);
width = 590;
}
);
note = Ydieresis;
unicode = 0178;
},
{
glyphname = uni2010;
lastChange = "2019-10-01 13:15:09 +0000";
layers = (
{
layerId = "EB4C1DB0-6908-4E17-8095-5E13FC3F8D5C";
paths = (
{
closed = 1;
nodes = (
"51 305 LINE",
"51 223 LINE",
"348 223 LINE",
"348 305 LINE"
);
}
);
width = 400;
}
);
note = uni2010;
unicode = 2010;
},
{
glyphname = uni2011;
lastChange = "2019-10-01 13:15:09 +0000";
layers = (
{
layerId = "EB4C1DB0-6908-4E17-8095-5E13FC3F8D5C";
paths = (
{
closed = 1;
nodes = (
"51 305 LINE",
"51 223 LINE",
"348 223 LINE",
"348 305 LINE"
);
}
);
width = 400;
}
);
note = uni2011;
unicode = 2011;
},
{
glyphname = uni2012;
lastChange = "2019-10-01 13:15:09 +0000";
layers = (
{
layerId = "EB4C1DB0-6908-4E17-8095-5E13FC3F8D5C";
paths = (
{
closed = 1;
nodes = (
"502 223 LINE",
"502 300 LINE",
"51 300 LINE",
"51 223 LINE"
);
}
);
width = 553;
}
);
note = uni2012;
unicode = 2012;
},
{
glyphname = endash;
lastChange = "2019-10-01 13:15:09 +0000";
layers = (
{
layerId = "EB4C1DB0-6908-4E17-8095-5E13FC3F8D5C";
paths = (
{
closed = 1;
nodes = (
"502 223 LINE",
"502 300 LINE",
"51 300 LINE",
"51 223 LINE"
);
}
);
width = 553;
}
);
note = endash;
unicode = 2013;
},
{
glyphname = emdash;
lastChange = "2019-10-01 13:15:09 +0000";
layers = (
{
layerId = "EB4C1DB0-6908-4E17-8095-5E13FC3F8D5C";
paths = (
{
closed = 1;
nodes = (
"922 223 LINE",
"922 300 LINE",
"51 300 LINE",
"51 223 LINE"
);
}
);
width = 973;
}
);
note = emdash;
unicode = 2014;
},
{
glyphname = quoteleft;
lastChange = "2019-10-01 13:15:09 +0000";
layers = (
{
layerId = "EB4C1DB0-6908-4E17-8095-5E13FC3F8D5C";
paths = (
{
closed = 1;
nodes = (
"128 581 LINE",
"87.33 465.67 OFFCURVE",
"60 389 OFFCURVE",
"46 351 CURVE",
"164 351 LINE",
"205 581 LINE"
);
}
);
width = 251;
}
);
note = quoteleft;
unicode = 2018;
},
{
glyphname = quoteright;
lastChange = "2019-10-01 13:15:09 +0000";
layers = (
{
layerId = "EB4C1DB0-6908-4E17-8095-5E13FC3F8D5C";
paths = (
{
closed = 1;
nodes = (
"133 348 LINE",
"174.33 463.33 OFFCURVE",
"201.67 540.33 OFFCURVE",
"215 579 CURVE",
"97 579 LINE",
"77 463.67 OFFCURVE",
"63.33 386.67 OFFCURVE",
"56 348 CURVE"
);
}
);
width = 246;
}
);
note = quoteright;
unicode = 2019;
},
{
glyphname = quotesinglbase;
lastChange = "2019-10-01 13:15:09 +0000";
layers = (
{
layerId = "EB4C1DB0-6908-4E17-8095-5E13FC3F8D5C";
paths = (
{
closed = 1;
nodes = (
"118 -108 LINE",
"200 123 LINE",
"82 123 LINE",
"41 -108 LINE"
);
}
);
width = 246;
}
);
note = quotesinglbase;
unicode = 201A;
},
{
glyphname = quotedblleft;
lastChange = "2019-10-01 13:15:09 +0000";
layers = (
{
layerId = "EB4C1DB0-6908-4E17-8095-5E13FC3F8D5C";
paths = (
{
closed = 1;
nodes = (
"128 579 LINE",
"46 348 LINE",
"164 348 LINE",
"205 579 LINE"
);
},
{
closed = 1;
nodes = (
"307 579 LINE",
"225 348 LINE",
"343 348 LINE",
"384 579 LINE"
);
}
);
width = 430;
}
);
note = quotedblleft;
unicode = 201C;
},
{
glyphname = quotedblright;
lastChange = "2019-10-01 13:15:09 +0000";
layers = (
{
layerId = "EB4C1DB0-6908-4E17-8095-5E13FC3F8D5C";
paths = (
{
closed = 1;
nodes = (
"312 348 LINE",
"353.33 463.33 OFFCURVE",
"380.67 540.33 OFFCURVE",
"394 579 CURVE",
"276 579 LINE",
"236 348 LINE"
);
},
{
closed = 1;
nodes = (
"133 348 LINE",
"174.33 463.33 OFFCURVE",
"201.67 540.33 OFFCURVE",
"215 579 CURVE",
"97 579 LINE",
"77 463.67 OFFCURVE",
"63.33 386.67 OFFCURVE",
"56 348 CURVE"
);
}
);
width = 425;
}
);
note = quotedblright;
unicode = 201D;
},
{
glyphname = quotedblbase;
lastChange = "2019-10-01 13:15:09 +0000";
layers = (
{
layerId = "EB4C1DB0-6908-4E17-8095-5E13FC3F8D5C";
paths = (
{
closed = 1;
nodes = (
"302 -108 LINE",
"343.33 7.33 OFFCURVE",
"370.67 84.33 OFFCURVE",
"384 123 CURVE",
"266 123 LINE",
"246 7.67 OFFCURVE",
"232.33 -69.33 OFFCURVE",
"225 -108 CURVE"
);
},
{
closed = 1;
nodes = (
"123 -108 LINE",
"205 123 LINE",
"87 123 LINE",
"46 -108 LINE"
);
}
);
width = 430;
}
);
note = quotedblbase;
unicode = 201E;
},
{
glyphname = dagger;
lastChange = "2019-10-01 13:15:09 +0000";
layers = (
{
layerId = "EB4C1DB0-6908-4E17-8095-5E13FC3F8D5C";
paths = (
{
closed = 1;
nodes = (
"212 0 LINE",
"305 0 LINE",
"305 330 LINE",
"476 330 LINE",
"476 407 LINE",
"305 407 LINE",
"305 553 LINE",
"212 553 LINE",
"212 407 LINE",
"41 407 LINE",
"41 330 LINE",
"212 330 LINE"
);
}
);
width = 517;
}
);
note = dagger;
unicode = 2020;
},
{
glyphname = daggerdbl;
lastChange = "2019-10-01 13:15:09 +0000";
layers = (
{
layerId = "EB4C1DB0-6908-4E17-8095-5E13FC3F8D5C";
paths = (
{
closed = 1;
nodes = (
"228 407 LINE",
"56 407 LINE",
"56 330 LINE",
"228 330 LINE",
"228 77 LINE",
"56 77 LINE",
"56 0 LINE",
"228 0 LINE",
"228 -146 LINE",
"320 -146 LINE",
"320 0 LINE",
"492 0 LINE",
"492 77 LINE",
"320 77 LINE",
"320 330 LINE",
"492 330 LINE",
"492 407 LINE",
"320 407 LINE",
"320 553 LINE",
"228 553 LINE"
);
}
);
width = 548;
}
);
note = daggerdbl;
unicode = 2021;
},
{
glyphname = bullet;
lastChange = "2019-10-01 13:15:09 +0000";
layers = (
{
layerId = "EB4C1DB0-6908-4E17-8095-5E13FC3F8D5C";
paths = (
{
closed = 1;
nodes = (
"194.67 154 OFFCURVE",
"220.33 163.33 OFFCURVE",
"241 182 CURVE SMOOTH",
"261 200.67 OFFCURVE",
"271 227 OFFCURVE",
"271 261 CURVE SMOOTH",
"271 262 LINE SMOOTH",
"271 296 OFFCURVE",
"261 322 OFFCURVE",
"241 340 CURVE SMOOTH",
"220.33 359.33 OFFCURVE",
"194.67 369 OFFCURVE",
"164 369 CURVE SMOOTH",
"133.33 369 OFFCURVE",
"107.67 359.33 OFFCURVE",
"87 340 CURVE SMOOTH",
"66.33 321.33 OFFCURVE",
"56 295 OFFCURVE",
"56 261 CURVE SMOOTH",
"56 227 OFFCURVE",
"66.33 200.67 OFFCURVE",
"87 182 CURVE SMOOTH",
"107.67 163.33 OFFCURVE",
"133.33 154 OFFCURVE",
"164 154 CURVE SMOOTH"
);
}
);
width = 328;
}
);
note = bullet;
unicode = 2022;
},
{
glyphname = ellipsis;
lastChange = "2019-10-01 13:15:09 +0000";
layers = (
{
layerId = "EB4C1DB0-6908-4E17-8095-5E13FC3F8D5C";
paths = (
{
closed = 1;
nodes = (
"143.67 -5 OFFCURVE",
"160 1 OFFCURVE",
"172 13 CURVE SMOOTH",
"183.33 25 OFFCURVE",
"189 40.33 OFFCURVE",
"189 59 CURVE SMOOTH",
"189 77.67 OFFCURVE",
"183.33 93 OFFCURVE",
"172 105 CURVE SMOOTH",
"160 117 OFFCURVE",
"143.67 123 OFFCURVE",
"123 123 CURVE SMOOTH",
"102.33 123 OFFCURVE",
"86 117 OFFCURVE",
"74 105 CURVE SMOOTH",
"62 93 OFFCURVE",
"56 77.67 OFFCURVE",
"56 59 CURVE SMOOTH",
"56 40.33 OFFCURVE",
"62 25 OFFCURVE",
"74 13 CURVE SMOOTH",
"86 1 OFFCURVE",
"102.33 -5 OFFCURVE",
"123 -5 CURVE SMOOTH"
);
},
{
closed = 1;
nodes = (
"624.67 -5 OFFCURVE",
"641 1 OFFCURVE",
"653 13 CURVE SMOOTH",
"665 25 OFFCURVE",
"671 40.33 OFFCURVE",
"671 59 CURVE SMOOTH",
"671 77.67 OFFCURVE",
"665 93 OFFCURVE",
"653 105 CURVE SMOOTH",
"641 117 OFFCURVE",
"624.67 123 OFFCURVE",
"604 123 CURVE SMOOTH",
"583.33 123 OFFCURVE",
"567.33 117 OFFCURVE",
"556 105 CURVE SMOOTH",
"544 93 OFFCURVE",
"538 77.67 OFFCURVE",
"538 59 CURVE SMOOTH",
"538 40.33 OFFCURVE",
"544 25 OFFCURVE",
"556 13 CURVE SMOOTH",
"567.33 1 OFFCURVE",
"583.33 -5 OFFCURVE",
"604 -5 CURVE SMOOTH"
);
},
{
closed = 1;
nodes = (
"384 -5 OFFCURVE",
"400 1 OFFCURVE",
"412 13 CURVE SMOOTH",
"424 25 OFFCURVE",
"430 40.33 OFFCURVE",
"430 59 CURVE SMOOTH",
"430 77.67 OFFCURVE",
"424 93 OFFCURVE",
"412 105 CURVE SMOOTH",
"400 117 OFFCURVE",
"384 123 OFFCURVE",
"364 123 CURVE SMOOTH",
"343.33 123 OFFCURVE",
"327 117 OFFCURVE",
"315 105 CURVE SMOOTH",
"303 93 OFFCURVE",
"297 77.67 OFFCURVE",
"297 59 CURVE SMOOTH",
"297 40.33 OFFCURVE",
"303 25 OFFCURVE",
"315 13 CURVE SMOOTH",
"327 1 OFFCURVE",
"343.33 -5 OFFCURVE",
"364 -5 CURVE SMOOTH"
);
}
);
width = 727;
}
);
note = ellipsis;
unicode = 2026;
},
{
glyphname = guilsinglleft;
lastChange = "2019-10-01 13:15:09 +0000";
layers = (
{
layerId = "EB4C1DB0-6908-4E17-8095-5E13FC3F8D5C";
paths = (
{
closed = 1;
nodes = (
"191.67 332.67 OFFCURVE",
"224.33 401 OFFCURVE",
"241 435 CURVE",
"169 435 LINE",
"41 230 LINE",
"169 26 LINE",
"241 26 LINE",
"192.33 128 OFFCURVE",
"159.67 196 OFFCURVE",
"143 230 CURVE"
);
}
);
width = 287;
}
);
note = guilsinglleft;
unicode = 2039;
},
{
glyphname = guilsinglright;
lastChange = "2019-10-01 13:15:09 +0000";
layers = (
{
layerId = "EB4C1DB0-6908-4E17-8095-5E13FC3F8D5C";
paths = (
{
closed = 1;
nodes = (
"246 230 LINE",
"118 435 LINE",
"46 435 LINE",
"94.67 333 OFFCURVE",
"127 264.67 OFFCURVE",
"143 230 CURVE",
"46 26 LINE",
"118 26 LINE"
);
}
);
width = 287;
}
);
note = guilsinglright;
unicode = 203A;
},
{
glyphname = trademark;
lastChange = "2019-10-01 20:12:37 +0000";
layers = (
{
layerId = "EB4C1DB0-6908-4E17-8095-5E13FC3F8D5C";
paths = (
{
closed = 1;
nodes = (
"640 276 LINE",
"691 276 LINE",
"691 553 LINE",
"625 553 LINE",
"523.23 324.05 LINE",
"420 553 LINE",
"353 553 LINE",
"353 276 LINE",
"404 276 LINE",
"404 358 LINE",
"399.44 487.94 LINE",
"501 276 LINE",
"545 276 LINE",
"645.34 488.52 LINE",
"640 358 LINE"
);
},
{
closed = 1;
nodes = (
"36 553 LINE",
"36 512 LINE",
"146 512 LINE",
"146 276 LINE",
"197 276 LINE",
"197 512 LINE",
"307 512 LINE",
"307 553 LINE"
);
}
);
width = 763;
}
);
note = trademark;
unicode = 2122;
},
{
glyphname = minus;
lastChange = "2019-10-01 13:15:09 +0000";
layers = (
{
layerId = "EB4C1DB0-6908-4E17-8095-5E13FC3F8D5C";
paths = (
{
closed = 1;
nodes = (
"502 223 LINE",
"502 300 LINE",
"51 300 LINE",
"51 223 LINE"
);
}
);
width = 553;
}
);
note = minus;
unicode = 2212;
},
{
glyphname = notdef_2;
lastChange = "2019-10-01 13:15:09 +0000";
layers = (
{
layerId = "EB4C1DB0-6908-4E17-8095-5E13FC3F8D5C";
paths = (
{
closed = 1;
nodes = (
"471 0 LINE",
"471 553 LINE",
"72 553 LINE",
"72 0 LINE"
);
},
{
closed = 1;
nodes = (
"394 72 LINE",
"148 72 LINE",
"148 481 LINE",
"394 481 LINE"
);
}
);
width = 543;
}
);
note = .notdef_2;
},
{
color = 5;
glyphname = Eng;
lastChange = "2019-10-01 19:04:04 +0000";
layers = (
{
anchors = (
{
name = bottom;
position = "{348, 0}";
},
{
name = top;
position = "{348, 860}";
}
);
layerId = "EB4C1DB0-6908-4E17-8095-5E13FC3F8D5C";
paths = (
{
closed = 1;
nodes = (
"522 123 LINE",
"189 553 LINE",
"72 553 LINE",
"72 0 LINE",
"174 0 LINE",
"174 430 LINE",
"522 -19 LINE",
"520 -59 OFFCURVE",
"514 -90 OFFCURVE",
"471 -90 CURVE SMOOTH",
"458 -90 OFFCURVE",
"426 -87 OFFCURVE",
"414 -84 CURVE",
"414 -164 LINE",
"428 -168 OFFCURVE",
"465 -172 OFFCURVE",
"482 -172 CURVE SMOOTH",
"588 -172 OFFCURVE",
"625 -108 OFFCURVE",
"625 0 CURVE SMOOTH",
"625 553 LINE",
"522 553 LINE"
);
}
);
width = 696;
}
);
unicode = 014A;
},
{
color = 5;
glyphname = Thorn;
lastChange = "2019-10-01 17:27:03 +0000";
layers = (
{
anchors = (
{
name = bottom;
position = "{306, 0}";
},
{
name = top;
position = "{306, 860}";
}
);
layerId = "EB4C1DB0-6908-4E17-8095-5E13FC3F8D5C";
paths = (
{
closed = 1;
nodes = (
"471 313 OFFCURVE",
"431 287 OFFCURVE",
"353 287 CURVE SMOOTH",
"174 287 LINE",
"174 471 LINE",
"353 471 LINE SMOOTH",
"429 471 OFFCURVE",
"471 447 OFFCURVE",
"471 379 CURVE SMOOTH"
);
},
{
closed = 1;
nodes = (
"353 205 LINE SMOOTH",
"483 205 OFFCURVE",
"577 259 OFFCURVE",
"579 379 CURVE SMOOTH",
"579 380 LINE SMOOTH",
"579 496 OFFCURVE",
"487 553 OFFCURVE",
"353 553 CURVE SMOOTH",
"174 553 LINE",
"174 758 LINE",
"72 758 LINE",
"72 0 LINE",
"174 0 LINE",
"174 205 LINE"
);
}
);
width = 612;
}
);
unicode = 00DE;
},
{
color = 5;
glyphname = idotless;
lastChange = "2019-10-01 18:31:36 +0000";
layers = (
{
anchors = (
{
name = bottom;
position = "{127, 0}";
},
{
name = ogonek;
position = "{182, 10}";
},
{
name = top;
position = "{127, 456}";
}
);
layerId = "EB4C1DB0-6908-4E17-8095-5E13FC3F8D5C";
paths = (
{
closed = 1;
nodes = (
"82 456 LINE",
"82 0 LINE",
"182 0 LINE",
"182 456 LINE"
);
}
);
width = 254;
}
);
unicode = 0131;
},
{
color = 5;
glyphname = eng;
lastChange = "2019-10-01 19:04:01 +0000";
layers = (
{
anchors = (
{
name = bottom;
position = "{290, 0}";
},
{
name = top;
position = "{290, 456}";
}
);
layerId = "EB4C1DB0-6908-4E17-8095-5E13FC3F8D5C";
paths = (
{
closed = 1;
nodes = (
"512 264 LINE SMOOTH",
"512 392 OFFCURVE",
"448 463 OFFCURVE",
"325 463 CURVE SMOOTH",
"262 463 OFFCURVE",
"198 440 OFFCURVE",
"165 384 CURVE",
"161 456 LINE",
"72 456 LINE",
"72 0 LINE",
"172 0 LINE",
"172 264 LINE SMOOTH",
"172 339 OFFCURVE",
"227 381 OFFCURVE",
"300 381 CURVE SMOOTH",
"367 381 OFFCURVE",
"412 340 OFFCURVE",
"412 264 CURVE SMOOTH",
"412 0 LINE SMOOTH",
"412 -54 OFFCURVE",
"403 -90 OFFCURVE",
"358 -90 CURVE SMOOTH",
"345 -90 OFFCURVE",
"313 -87 OFFCURVE",
"301 -84 CURVE",
"301 -164 LINE",
"315 -168 OFFCURVE",
"352 -172 OFFCURVE",
"369 -172 CURVE SMOOTH",
"474 -172 OFFCURVE",
"514 -108 OFFCURVE",
"512 0 CURVE"
);
}
);
width = 580;
}
);
unicode = 014B;
},
{
color = 5;
glyphname = thorn;
lastChange = "2019-10-01 17:26:48 +0000";
layers = (
{
anchors = (
{
name = bottom;
position = "{291, 0}";
},
{
name = top;
position = "{291, 456}";
}
);
layerId = "EB4C1DB0-6908-4E17-8095-5E13FC3F8D5C";
paths = (
{
closed = 1;
nodes = (
"540 362 OFFCURVE",
"464 466 OFFCURVE",
"325 466 CURVE SMOOTH",
"244 466 OFFCURVE",
"205 444 OFFCURVE",
"165 383 CURVE",
"161 625 LINE",
"72 625 LINE",
"72 -164 LINE",
"172 -164 LINE",
"172 62 LINE",
"205 12 OFFCURVE",
"253 -10 OFFCURVE",
"325 -10 CURVE SMOOTH",
"462 -10 OFFCURVE",
"540 90 OFFCURVE",
"540 228 CURVE SMOOTH"
);
},
{
closed = 1;
nodes = (
"172 315 OFFCURVE",
"218 387 OFFCURVE",
"307 387 CURVE SMOOTH",
"393 387 OFFCURVE",
"440 316 OFFCURVE",
"440 228 CURVE SMOOTH",
"440 137 OFFCURVE",
"394 69 OFFCURVE",
"307 69 CURVE SMOOTH",
"221 69 OFFCURVE",
"172 138 OFFCURVE",
"172 228 CURVE SMOOTH"
);
}
);
width = 581;
}
);
unicode = 00FE;
},
{
glyphname = zero.osf;
lastChange = "2019-10-01 20:49:34 +0000";
layers = (
{
anchors = (
{
name = _top;
position = "{121, 456}";
},
{
name = bottom;
position = "{284, 0}";
},
{
name = center;
position = "{284, 228}";
},
{
name = ogonek;
position = "{511, 10}";
},
{
name = top;
position = "{284, 456}";
},
{
name = topright;
position = "{548, 456}";
}
);
layerId = "EB4C1DB0-6908-4E17-8095-5E13FC3F8D5C";
paths = (
{
closed = 1;
nodes = (
"425 141 OFFCURVE",
"375 72 OFFCURVE",
"284 72 CURVE SMOOTH",
"197 72 OFFCURVE",
"143 138 OFFCURVE",
"143 228 CURVE SMOOTH",
"143 317 OFFCURVE",
"198 384 OFFCURVE",
"284 384 CURVE SMOOTH",
"371 384 OFFCURVE",
"425 317 OFFCURVE",
"425 228 CURVE SMOOTH"
);
},
{
closed = 1;
nodes = (
"41 159 OFFCURVE",
"63 102 OFFCURVE",
"106 57 CURVE SMOOTH",
"149 12 OFFCURVE",
"209 -10 OFFCURVE",
"284 -10 CURVE SMOOTH",
"285 -10 LINE SMOOTH",
"360 -10 OFFCURVE",
"419 12 OFFCURVE",
"462 57 CURVE SMOOTH",
"505 102 OFFCURVE",
"527 159 OFFCURVE",
"527 228 CURVE SMOOTH",
"527 297 OFFCURVE",
"505 354 OFFCURVE",
"462 399 CURVE SMOOTH",
"419 444 OFFCURVE",
"359 466 OFFCURVE",
"284 466 CURVE SMOOTH",
"209 466 OFFCURVE",
"149 444 OFFCURVE",
"106 399 CURVE SMOOTH",
"63 354 OFFCURVE",
"41 297 OFFCURVE",
"41 228 CURVE SMOOTH"
);
},
{
closed = 1;
nodes = (
"216 191 OFFCURVE",
"240 163 OFFCURVE",
"282 163 CURVE SMOOTH",
"322 163 OFFCURVE",
"349 188 OFFCURVE",
"349 227 CURVE SMOOTH",
"349 263 OFFCURVE",
"325 291 OFFCURVE",
"282 291 CURVE SMOOTH",
"243 291 OFFCURVE",
"216 265 OFFCURVE",
"216 227 CURVE SMOOTH"
);
}
);
width = 568;
}
);
},
{
glyphname = one.osf;
lastChange = "2019-10-01 20:35:16 +0000";
layers = (
{
layerId = "EB4C1DB0-6908-4E17-8095-5E13FC3F8D5C";
paths = (
{
closed = 1;
nodes = (
"128 415 OFFCURVE",
"100 399 OFFCURVE",
"31 369 CURVE",
"31 267 LINE",
"97 295 OFFCURVE",
"132 314 OFFCURVE",
"200 359 CURVE",
"200 0 LINE",
"302 0 LINE",
"302 461 LINE",
"200 461 LINE"
);
}
);
width = 379;
}
);
},
{
glyphname = two.osf;
lastChange = "2019-10-01 20:48:23 +0000";
layers = (
{
layerId = "EB4C1DB0-6908-4E17-8095-5E13FC3F8D5C";
paths = (
{
closed = 1;
nodes = (
"171 129 OFFCURVE",
"463 124 OFFCURVE",
"463 307 CURVE SMOOTH",
"463 410 OFFCURVE",
"365 466 OFFCURVE",
"259 466 CURVE SMOOTH",
"146 466 OFFCURVE",
"44 401 OFFCURVE",
"44 287 CURVE",
"151 287 LINE",
"151 345 OFFCURVE",
"191 384 OFFCURVE",
"259 384 CURVE SMOOTH",
"318 384 OFFCURVE",
"356 354 OFFCURVE",
"356 302 CURVE SMOOTH",
"356 175 OFFCURVE",
"52 232 OFFCURVE",
"52 28 CURVE",
"51 0 LINE",
"476 0 LINE",
"476 82 LINE",
"171 82 LINE"
);
}
);
width = 517;
}
);
},
{
glyphname = three.osf;
lastChange = "2019-10-01 20:39:20 +0000";
layers = (
{
layerId = "EB4C1DB0-6908-4E17-8095-5E13FC3F8D5C";
paths = (
{
closed = 1;
nodes = (
"195 -31 OFFCURVE",
"148 4 OFFCURVE",
"148 74 CURVE",
"41 74 LINE",
"41 -45 OFFCURVE",
"139 -113 OFFCURVE",
"259 -113 CURVE SMOOTH",
"367 -113 OFFCURVE",
"476 -56 OFFCURVE",
"476 54 CURVE SMOOTH",
"476 114 OFFCURVE",
"442 153 OFFCURVE",
"376 184 CURVE",
"427 208 OFFCURVE",
"463 246 OFFCURVE",
"463 307 CURVE SMOOTH",
"463 410 OFFCURVE",
"365 466 OFFCURVE",
"259 466 CURVE SMOOTH",
"146 466 OFFCURVE",
"44 401 OFFCURVE",
"44 287 CURVE",
"151 287 LINE",
"151 345 OFFCURVE",
"191 384 OFFCURVE",
"259 384 CURVE SMOOTH",
"318 384 OFFCURVE",
"356 354 OFFCURVE",
"356 302 CURVE SMOOTH",
"356 252 OFFCURVE",
"314 225 OFFCURVE",
"253 225 CURVE SMOOTH",
"202 225 LINE",
"202 146 LINE",
"248 146 LINE SMOOTH",
"307 146 OFFCURVE",
"369 118 OFFCURVE",
"369 56 CURVE SMOOTH",
"369 2 OFFCURVE",
"324 -31 OFFCURVE",
"259 -31 CURVE SMOOTH"
);
}
);
width = 517;
}
);
},
{
glyphname = four.osf;
lastChange = "2019-10-01 20:36:03 +0000";
layers = (
{
layerId = "EB4C1DB0-6908-4E17-8095-5E13FC3F8D5C";
paths = (
{
closed = 1;
nodes = (
"141 195 LINE",
"335 443 LINE",
"335 195 LINE"
);
},
{
closed = 1;
nodes = (
"36 118 LINE",
"335 118 LINE",
"335 0 LINE",
"438 0 LINE",
"438 118 LINE",
"509 118 LINE",
"509 195 LINE",
"438 195 LINE",
"438 553 LINE",
"317 553 LINE",
"36 192 LINE"
);
}
);
width = 545;
}
);
},
{
glyphname = five.osf;
lastChange = "2019-10-01 20:37:31 +0000";
layers = (
{
layerId = "EB4C1DB0-6908-4E17-8095-5E13FC3F8D5C";
paths = (
{
closed = 1;
nodes = (
"190 -28 OFFCURVE",
"148 21 OFFCURVE",
"148 87 CURVE",
"41 87 LINE",
"41 -33 OFFCURVE",
"140 -110 OFFCURVE",
"259 -110 CURVE SMOOTH",
"374 -110 OFFCURVE",
"476 -38 OFFCURVE",
"476 80 CURVE SMOOTH",
"476 81 LINE SMOOTH",
"476 196 OFFCURVE",
"392 267 OFFCURVE",
"278 267 CURVE SMOOTH",
"238 267 OFFCURVE",
"208 261 OFFCURVE",
"174 243 CURVE",
"193 374 LINE",
"445 374 LINE",
"445 456 LINE",
"108 456 LINE",
"69 181 LINE",
"161 149 LINE",
"186 172 OFFCURVE",
"217 185 OFFCURVE",
"259 185 CURVE SMOOTH",
"323 185 OFFCURVE",
"369 137 OFFCURVE",
"369 77 CURVE SMOOTH",
"369 19 OFFCURVE",
"326 -28 OFFCURVE",
"259 -28 CURVE SMOOTH"
);
}
);
width = 517;
}
);
},
{
glyphname = six.osf;
lastChange = "2019-10-01 20:36:24 +0000";
layers = (
{
layerId = "EB4C1DB0-6908-4E17-8095-5E13FC3F8D5C";
paths = (
{
closed = 1;
nodes = (
"207 69 OFFCURVE",
"159 114 OFFCURVE",
"159 174 CURVE SMOOTH",
"159 238 OFFCURVE",
"205 282 OFFCURVE",
"269 282 CURVE SMOOTH",
"329 282 OFFCURVE",
"379 240 OFFCURVE",
"379 174 CURVE SMOOTH",
"379 116 OFFCURVE",
"335 69 OFFCURVE",
"270 69 CURVE SMOOTH"
);
},
{
closed = 1;
nodes = (
"148 395 OFFCURVE",
"176 484 OFFCURVE",
"275 484 CURVE SMOOTH",
"329 484 OFFCURVE",
"369 451 OFFCURVE",
"369 404 CURVE",
"476 404 LINE",
"476 498 OFFCURVE",
"383 566 OFFCURVE",
"274 566 CURVE SMOOTH",
"112 566 OFFCURVE",
"46 450 OFFCURVE",
"46 276 CURVE SMOOTH",
"46 105 OFFCURVE",
"115 -13 OFFCURVE",
"282 -13 CURVE SMOOTH",
"390 -13 OFFCURVE",
"486 62 OFFCURVE",
"486 177 CURVE SMOOTH",
"486 178 LINE SMOOTH",
"486 290 OFFCURVE",
"400 364 OFFCURVE",
"290 364 CURVE SMOOTH",
"230 364 OFFCURVE",
"184 344 OFFCURVE",
"151 296 CURVE"
);
}
);
width = 533;
}
);
},
{
glyphname = seven.osf;
lastChange = "2019-10-01 20:40:05 +0000";
layers = (
{
layerId = "EB4C1DB0-6908-4E17-8095-5E13FC3F8D5C";
paths = (
{
closed = 1;
nodes = (
"345 374 LINE",
"232 228 OFFCURVE",
"144 71 OFFCURVE",
"113 -97 CURVE",
"220 -97 LINE",
"249 74 OFFCURVE",
"346 240 OFFCURVE",
"468 395 CURVE",
"468 456 LINE",
"23 456 LINE",
"23 374 LINE"
);
}
);
width = 492;
}
);
},
{
glyphname = eight.osf;
lastChange = "2019-10-01 20:39:49 +0000";
layers = (
{
layerId = "EB4C1DB0-6908-4E17-8095-5E13FC3F8D5C";
paths = (
{
closed = 1;
nodes = (
"437 207 OFFCURVE",
"471 249 OFFCURVE",
"471 307 CURVE SMOOTH",
"471 413 OFFCURVE",
"378 466 OFFCURVE",
"268 466 CURVE SMOOTH",
"161 466 OFFCURVE",
"67 413 OFFCURVE",
"67 307 CURVE SMOOTH",
"67 249 OFFCURVE",
"95 210 OFFCURVE",
"156 186 CURVE",
"90 158 OFFCURVE",
"46 117 OFFCURVE",
"46 54 CURVE SMOOTH",
"46 -56 OFFCURVE",
"155 -113 OFFCURVE",
"268 -113 CURVE SMOOTH",
"379 -113 OFFCURVE",
"491 -57 OFFCURVE",
"491 54 CURVE SMOOTH",
"491 115 OFFCURVE",
"450 156 OFFCURVE",
"381 185 CURVE"
);
},
{
closed = 1;
nodes = (
"204 -31 OFFCURVE",
"154 2 OFFCURVE",
"154 58 CURVE SMOOTH",
"154 118 OFFCURVE",
"207 151 OFFCURVE",
"268 151 CURVE SMOOTH",
"327 151 OFFCURVE",
"383 121 OFFCURVE",
"383 58 CURVE SMOOTH",
"383 5 OFFCURVE",
"334 -31 OFFCURVE",
"268 -31 CURVE SMOOTH"
);
},
{
closed = 1;
nodes = (
"213 220 OFFCURVE",
"171 254 OFFCURVE",
"171 304 CURVE SMOOTH",
"171 350 OFFCURVE",
"211 384 OFFCURVE",
"268 384 CURVE SMOOTH",
"323 384 OFFCURVE",
"366 353 OFFCURVE",
"366 304 CURVE SMOOTH",
"366 255 OFFCURVE",
"327 220 OFFCURVE",
"268 220 CURVE SMOOTH"
);
}
);
width = 536;
}
);
},
{
glyphname = nine.osf;
lastChange = "2019-10-01 20:37:44 +0000";
layers = (
{
layerId = "EB4C1DB0-6908-4E17-8095-5E13FC3F8D5C";
paths = (
{
closed = 1;
nodes = (
"325 374 OFFCURVE",
"373 327 OFFCURVE",
"373 269 CURVE SMOOTH",
"373 205 OFFCURVE",
"327 161 OFFCURVE",
"263 161 CURVE SMOOTH",
"203 161 OFFCURVE",
"153 203 OFFCURVE",
"153 269 CURVE SMOOTH",
"153 325 OFFCURVE",
"199 374 OFFCURVE",
"263 374 CURVE SMOOTH"
);
},
{
closed = 1;
nodes = (
"383 40 OFFCURVE",
"353 -41 OFFCURVE",
"258 -41 CURVE SMOOTH",
"205 -41 OFFCURVE",
"164 -9 OFFCURVE",
"164 38 CURVE",
"56 38 LINE",
"56 -55 OFFCURVE",
"134 -123 OFFCURVE",
"259 -123 CURVE SMOOTH",
"421 -123 OFFCURVE",
"486 -6 OFFCURVE",
"486 166 CURVE SMOOTH",
"486 337 OFFCURVE",
"417 456 OFFCURVE",
"251 456 CURVE SMOOTH",
"144 456 OFFCURVE",
"46 379 OFFCURVE",
"46 266 CURVE SMOOTH",
"46 265 LINE SMOOTH",
"46 154 OFFCURVE",
"134 79 OFFCURVE",
"243 79 CURVE SMOOTH",
"299 79 OFFCURVE",
"348 97 OFFCURVE",
"382 147 CURVE"
);
}
);
width = 533;
}
);
},
{
glyphname = one.tf;
lastChange = "2019-10-01 20:33:11 +0000";
layers = (
{
anchors = (
{
name = _center;
position = "{294, 37.5}";
}
);
layerId = "EB4C1DB0-6908-4E17-8095-5E13FC3F8D5C";
paths = (
{
closed = 1;
nodes = (
"360 553 LINE",
"258 553 LINE",
"186 507 OFFCURVE",
"158 491 OFFCURVE",
"89 461 CURVE",
"89 369 LINE",
"155 397 OFFCURVE",
"190 416 OFFCURVE",
"258 461 CURVE",
"258 75 LINE",
"71 75 LINE",
"71 0 LINE",
"511 0 LINE",
"511 75 LINE",
"360 75 LINE"
);
}
);
width = 580;
}
);
},
{
glyphname = two.tf;
lastChange = "2019-10-01 20:27:08 +0000";
layers = (
{
layerId = "EB4C1DB0-6908-4E17-8095-5E13FC3F8D5C";
paths = (
{
closed = 1;
nodes = (
"171 369 LINE",
"171 433 OFFCURVE",
"201 484 OFFCURVE",
"272 484 CURVE SMOOTH",
"337 484 OFFCURVE",
"382 448 OFFCURVE",
"382 389 CURVE SMOOTH",
"382 331 OFFCURVE",
"333 295 OFFCURVE",
"260 253 CURVE SMOOTH",
"138 183 OFFCURVE",
"65 135 OFFCURVE",
"65 28 CURVE",
"64 0 LINE",
"499 0 LINE",
"499 82 LINE",
"184 82 LINE",
"206 116 OFFCURVE",
"255 148 OFFCURVE",
"300 170 CURVE SMOOTH",
"408 223 OFFCURVE",
"489 286 OFFCURVE",
"489 389 CURVE SMOOTH",
"489 504 OFFCURVE",
"391 566 OFFCURVE",
"272 566 CURVE SMOOTH",
"156 566 OFFCURVE",
"64 491 OFFCURVE",
"64 369 CURVE"
);
}
);
width = 580;
}
);
},
{
glyphname = three.tf;
lastChange = "2019-10-01 20:26:44 +0000";
layers = (
{
layerId = "EB4C1DB0-6908-4E17-8095-5E13FC3F8D5C";
paths = (
{
closed = 1;
nodes = (
"225 69 OFFCURVE",
"178 104 OFFCURVE",
"178 174 CURVE",
"71 174 LINE",
"71 55 OFFCURVE",
"169 -13 OFFCURVE",
"289 -13 CURVE SMOOTH",
"397 -13 OFFCURVE",
"506 44 OFFCURVE",
"506 154 CURVE SMOOTH",
"506 214 OFFCURVE",
"472 253 OFFCURVE",
"406 284 CURVE",
"457 308 OFFCURVE",
"493 346 OFFCURVE",
"493 407 CURVE SMOOTH",
"493 510 OFFCURVE",
"395 566 OFFCURVE",
"289 566 CURVE SMOOTH",
"176 566 OFFCURVE",
"74 501 OFFCURVE",
"74 387 CURVE",
"181 387 LINE",
"181 445 OFFCURVE",
"221 484 OFFCURVE",
"289 484 CURVE SMOOTH",
"348 484 OFFCURVE",
"386 454 OFFCURVE",
"386 402 CURVE SMOOTH",
"386 352 OFFCURVE",
"344 325 OFFCURVE",
"283 325 CURVE SMOOTH",
"232 325 LINE",
"232 246 LINE",
"278 246 LINE SMOOTH",
"337 246 OFFCURVE",
"399 218 OFFCURVE",
"399 156 CURVE SMOOTH",
"399 102 OFFCURVE",
"354 69 OFFCURVE",
"289 69 CURVE SMOOTH"
);
}
);
width = 580;
}
);
},
{
glyphname = four.tf;
lastChange = "2019-10-01 20:30:07 +0000";
layers = (
{
layerId = "EB4C1DB0-6908-4E17-8095-5E13FC3F8D5C";
paths = (
{
closed = 1;
nodes = (
"151 195 LINE",
"325 443 LINE",
"325 195 LINE"
);
},
{
closed = 1;
nodes = (
"46 118 LINE",
"325 118 LINE",
"325 0 LINE",
"428 0 LINE",
"428 118 LINE",
"509 118 LINE",
"509 195 LINE",
"428 195 LINE",
"428 553 LINE",
"307 553 LINE",
"46 192 LINE"
);
}
);
width = 580;
}
);
},
{
glyphname = five.tf;
lastChange = "2019-10-01 20:29:40 +0000";
layers = (
{
layerId = "EB4C1DB0-6908-4E17-8095-5E13FC3F8D5C";
paths = (
{
closed = 1;
nodes = (
"217 69 OFFCURVE",
"175 118 OFFCURVE",
"175 184 CURVE",
"68 184 LINE",
"68 64 OFFCURVE",
"167 -13 OFFCURVE",
"286 -13 CURVE SMOOTH",
"401 -13 OFFCURVE",
"503 59 OFFCURVE",
"503 177 CURVE SMOOTH",
"503 178 LINE SMOOTH",
"503 293 OFFCURVE",
"419 364 OFFCURVE",
"305 364 CURVE SMOOTH",
"265 364 OFFCURVE",
"235 358 OFFCURVE",
"201 340 CURVE",
"220 471 LINE",
"472 471 LINE",
"472 553 LINE",
"135 553 LINE",
"96 278 LINE",
"188 246 LINE",
"213 269 OFFCURVE",
"244 282 OFFCURVE",
"286 282 CURVE SMOOTH",
"350 282 OFFCURVE",
"396 234 OFFCURVE",
"396 174 CURVE SMOOTH",
"396 116 OFFCURVE",
"353 69 OFFCURVE",
"286 69 CURVE SMOOTH"
);
}
);
width = 580;
}
);
},
{
glyphname = six.tf;
lastChange = "2019-10-01 20:30:13 +0000";
layers = (
{
layerId = "EB4C1DB0-6908-4E17-8095-5E13FC3F8D5C";
paths = (
{
closed = 1;
nodes = (
"227 69 OFFCURVE",
"179 114 OFFCURVE",
"179 174 CURVE SMOOTH",
"179 238 OFFCURVE",
"225 282 OFFCURVE",
"289 282 CURVE SMOOTH",
"349 282 OFFCURVE",
"399 240 OFFCURVE",
"399 174 CURVE SMOOTH",
"399 116 OFFCURVE",
"355 69 OFFCURVE",
"290 69 CURVE SMOOTH"
);
},
{
closed = 1;
nodes = (
"168 395 OFFCURVE",
"196 484 OFFCURVE",
"295 484 CURVE SMOOTH",
"349 484 OFFCURVE",
"389 451 OFFCURVE",
"389 404 CURVE",
"496 404 LINE",
"496 498 OFFCURVE",
"403 566 OFFCURVE",
"294 566 CURVE SMOOTH",
"132 566 OFFCURVE",
"66 450 OFFCURVE",
"66 276 CURVE SMOOTH",
"66 105 OFFCURVE",
"135 -13 OFFCURVE",
"302 -13 CURVE SMOOTH",
"410 -13 OFFCURVE",
"506 62 OFFCURVE",
"506 177 CURVE SMOOTH",
"506 178 LINE SMOOTH",
"506 290 OFFCURVE",
"420 364 OFFCURVE",
"310 364 CURVE SMOOTH",
"250 364 OFFCURVE",
"204 344 OFFCURVE",
"171 296 CURVE"
);
}
);
width = 580;
}
);
},
{
glyphname = seven.tf;
lastChange = "2019-10-01 20:31:55 +0000";
layers = (
{
layerId = "EB4C1DB0-6908-4E17-8095-5E13FC3F8D5C";
paths = (
{
closed = 1;
nodes = (
"53 390 LINE",
"136 390 LINE",
"136 471 LINE",
"385 471 LINE",
"272 325 OFFCURVE",
"184 168 OFFCURVE",
"153 0 CURVE",
"260 0 LINE",
"289 171 OFFCURVE",
"386 337 OFFCURVE",
"508 492 CURVE",
"508 553 LINE",
"53 553 LINE"
);
}
);
width = 580;
}
);
},
{
glyphname = eight.tf;
lastChange = "2019-10-01 20:32:16 +0000";
layers = (
{
layerId = "EB4C1DB0-6908-4E17-8095-5E13FC3F8D5C";
paths = (
{
closed = 1;
nodes = (
"463 307 OFFCURVE",
"498 349 OFFCURVE",
"498 407 CURVE SMOOTH",
"498 513 OFFCURVE",
"402 566 OFFCURVE",
"288 566 CURVE SMOOTH",
"177 566 OFFCURVE",
"80 513 OFFCURVE",
"80 407 CURVE SMOOTH",
"80 349 OFFCURVE",
"109 310 OFFCURVE",
"172 286 CURVE",
"104 258 OFFCURVE",
"58 217 OFFCURVE",
"58 154 CURVE SMOOTH",
"58 44 OFFCURVE",
"171 -13 OFFCURVE",
"288 -13 CURVE SMOOTH",
"403 -13 OFFCURVE",
"519 43 OFFCURVE",
"519 154 CURVE SMOOTH",
"519 215 OFFCURVE",
"476 256 OFFCURVE",
"405 285 CURVE"
);
},
{
closed = 1;
nodes = (
"222 69 OFFCURVE",
"170 102 OFFCURVE",
"170 158 CURVE SMOOTH",
"170 218 OFFCURVE",
"225 251 OFFCURVE",
"288 251 CURVE SMOOTH",
"349 251 OFFCURVE",
"407 221 OFFCURVE",
"407 158 CURVE SMOOTH",
"407 105 OFFCURVE",
"356 69 OFFCURVE",
"288 69 CURVE SMOOTH"
);
},
{
closed = 1;
nodes = (
"231 320 OFFCURVE",
"188 354 OFFCURVE",
"188 404 CURVE SMOOTH",
"188 450 OFFCURVE",
"229 484 OFFCURVE",
"288 484 CURVE SMOOTH",
"345 484 OFFCURVE",
"389 453 OFFCURVE",
"389 404 CURVE SMOOTH",
"389 355 OFFCURVE",
"349 320 OFFCURVE",
"288 320 CURVE SMOOTH"
);
}
);
width = 580;
}
);
},
{
glyphname = nine.tf;
lastChange = "2019-10-01 20:29:21 +0000";
layers = (
{
layerId = "EB4C1DB0-6908-4E17-8095-5E13FC3F8D5C";
paths = (
{
closed = 1;
nodes = (
"345 484 OFFCURVE",
"393 437 OFFCURVE",
"393 379 CURVE SMOOTH",
"393 315 OFFCURVE",
"347 271 OFFCURVE",
"283 271 CURVE SMOOTH",
"223 271 OFFCURVE",
"173 313 OFFCURVE",
"173 379 CURVE SMOOTH",
"173 435 OFFCURVE",
"219 484 OFFCURVE",
"283 484 CURVE SMOOTH"
);
},
{
closed = 1;
nodes = (
"403 150 OFFCURVE",
"373 69 OFFCURVE",
"278 69 CURVE SMOOTH",
"225 69 OFFCURVE",
"184 101 OFFCURVE",
"184 148 CURVE",
"76 148 LINE",
"76 55 OFFCURVE",
"154 -13 OFFCURVE",
"279 -13 CURVE SMOOTH",
"441 -13 OFFCURVE",
"506 104 OFFCURVE",
"506 276 CURVE SMOOTH",
"506 447 OFFCURVE",
"437 566 OFFCURVE",
"271 566 CURVE SMOOTH",
"164 566 OFFCURVE",
"66 489 OFFCURVE",
"66 376 CURVE SMOOTH",
"66 375 LINE SMOOTH",
"66 264 OFFCURVE",
"154 189 OFFCURVE",
"263 189 CURVE SMOOTH",
"319 189 OFFCURVE",
"368 207 OFFCURVE",
"402 257 CURVE"
);
}
);
width = 580;
}
);
},
{
glyphname = euro;
lastChange = "2019-10-01 20:11:37 +0000";
layers = (
{
layerId = "EB4C1DB0-6908-4E17-8095-5E13FC3F8D5C";
paths = (
{
closed = 1;
nodes = (
"517 543 LINE",
"477 561 OFFCURVE",
"439 568 OFFCURVE",
"392 568 CURVE SMOOTH",
"251 568 OFFCURVE",
"141 488 OFFCURVE",
"107.07 358 CURVE",
"41 358 LINE",
"41 302 LINE",
"97.94 302 LINE",
"97 293 OFFCURVE",
"97 261 OFFCURVE",
"98.27 246 CURVE",
"38 246 LINE",
"38 189 LINE",
"108.59 189 LINE",
"144 64 OFFCURVE",
"251 -15 OFFCURVE",
"392 -15 CURVE SMOOTH",
"432 -15 OFFCURVE",
"478 -8 OFFCURVE",
"517 10 CURVE",
"517 108 LINE",
"480 82 OFFCURVE",
"438 69 OFFCURVE",
"392 69 CURVE SMOOTH",
"312 69 OFFCURVE",
"247 114 OFFCURVE",
"219.35 189 CURVE",
"415 189 LINE",
"415 246 LINE",
"206.48 246 LINE",
"205.5 255.67 OFFCURVE",
"205 286 OFFCURVE",
"206.08 302 CURVE",
"415 302 LINE",
"415 358 LINE",
"217.32 358 LINE",
"242 433 OFFCURVE",
"307 484 OFFCURVE",
"392 484 CURVE SMOOTH",
"429 484 OFFCURVE",
"482 470 OFFCURVE",
"517 445 CURVE"
);
}
);
width = 600;
}
);
unicode = 20AC;
},
{
glyphname = brokenbar;
lastChange = "2019-10-01 20:15:32 +0000";
layers = (
{
layerId = "EB4C1DB0-6908-4E17-8095-5E13FC3F8D5C";
paths = (
{
closed = 1;
nodes = (
"77 205 LINE",
"77 -87 LINE",
"156 -87 LINE",
"156 205 LINE"
);
},
{
closed = 1;
nodes = (
"156 275 LINE",
"156 553 LINE",
"77 553 LINE",
"77 275 LINE"
);
}
);
width = 233;
}
);
unicode = 00A6;
},
{
color = 5;
glyphname = dieresiscomb;
lastChange = "2019-10-01 18:15:23 +0000";
layers = (
{
anchors = (
{
name = _top;
position = "{227, 456}";
},
{
name = top;
position = "{227, 640}";
}
);
layerId = "EB4C1DB0-6908-4E17-8095-5E13FC3F8D5C";
paths = (
{
closed = 1;
nodes = (
"404 611 OFFCURVE",
"379 640 OFFCURVE",
"340 640 CURVE SMOOTH",
"303 640 OFFCURVE",
"276 613 OFFCURVE",
"276 579 CURVE SMOOTH",
"276 546 OFFCURVE",
"301 517 OFFCURVE",
"340 517 CURVE SMOOTH",
"376 517 OFFCURVE",
"404 543 OFFCURVE",
"404 579 CURVE SMOOTH"
);
},
{
closed = 1;
nodes = (
"178 611 OFFCURVE",
"153 640 OFFCURVE",
"114 640 CURVE SMOOTH",
"77 640 OFFCURVE",
"50 613 OFFCURVE",
"50 579 CURVE SMOOTH",
"50 546 OFFCURVE",
"75 517 OFFCURVE",
"114 517 CURVE SMOOTH",
"151 517 OFFCURVE",
"178 543 OFFCURVE",
"178 579 CURVE SMOOTH"
);
}
);
width = 454;
}
);
unicode = 0308;
},
{
color = 5;
glyphname = dotaccentcomb;
lastChange = "2019-10-01 18:15:23 +0000";
layers = (
{
anchors = (
{
name = _top;
position = "{121, 456}";
},
{
name = top;
position = "{121, 644}";
}
);
layerId = "EB4C1DB0-6908-4E17-8095-5E13FC3F8D5C";
paths = (
{
closed = 1;
nodes = (
"54 544 OFFCURVE",
"78 516 OFFCURVE",
"120 516 CURVE SMOOTH",
"160 516 OFFCURVE",
"187 541 OFFCURVE",
"187 580 CURVE SMOOTH",
"187 616 OFFCURVE",
"163 644 OFFCURVE",
"120 644 CURVE SMOOTH",
"81 644 OFFCURVE",
"54 618 OFFCURVE",
"54 580 CURVE SMOOTH"
);
}
);
width = 240;
}
);
unicode = 0307;
},
{
color = 5;
glyphname = gravecomb;
lastChange = "2019-10-01 18:15:23 +0000";
layers = (
{
anchors = (
{
name = _top;
position = "{289, 456}";
},
{
name = top;
position = "{233, 671}";
}
);
layerId = "EB4C1DB0-6908-4E17-8095-5E13FC3F8D5C";
paths = (
{
closed = 1;
nodes = (
"343 517 LINE",
"251 671 LINE",
"123 671 LINE",
"251 517 LINE"
);
}
);
width = 555;
}
);
unicode = 0300;
},
{
color = 5;
glyphname = acutecomb;
lastChange = "2019-10-01 18:52:35 +0000";
layers = (
{
anchors = (
{
name = _top;
position = "{280, 456}";
},
{
name = top;
position = "{315, 671}";
}
);
layerId = "EB4C1DB0-6908-4E17-8095-5E13FC3F8D5C";
paths = (
{
closed = 1;
nodes = (
"297 517 LINE",
"425 671 LINE",
"297 671 LINE",
"205 517 LINE"
);
}
);
width = 555;
}
);
unicode = 0301;
},
{
color = 5;
glyphname = hungarumlautcomb;
lastChange = "2019-10-01 18:52:35 +0000";
layers = (
{
anchors = (
{
name = _top;
position = "{337, 456}";
},
{
name = top;
position = "{337, 671}";
}
);
layerId = "EB4C1DB0-6908-4E17-8095-5E13FC3F8D5C";
paths = (
{
closed = 1;
nodes = (
"262 517 LINE",
"390 671 LINE",
"262 671 LINE",
"170 517 LINE"
);
},
{
closed = 1;
nodes = (
"457 517 LINE",
"585 671 LINE",
"457 671 LINE",
"365 517 LINE"
);
}
);
width = 600;
}
);
unicode = 030B;
},
{
color = 5;
glyphname = caroncomb.alt;
lastChange = "2019-10-01 19:39:13 +0000";
layers = (
{
anchors = (
{
name = _topright;
position = "{385, 681}";
}
);
layerId = "EB4C1DB0-6908-4E17-8095-5E13FC3F8D5C";
paths = (
{
closed = 1;
nodes = (
"328 510 LINE",
"385 681 LINE",
"298 681 LINE",
"282 510 LINE"
);
}
);
width = 355;
}
);
},
{
color = 5;
glyphname = circumflexcomb;
lastChange = "2019-10-01 18:15:23 +0000";
layers = (
{
anchors = (
{
name = _top;
position = "{285, 456}";
},
{
name = top;
position = "{279, 671}";
}
);
layerId = "EB4C1DB0-6908-4E17-8095-5E13FC3F8D5C";
paths = (
{
closed = 1;
nodes = (
"358 517 LINE",
"435 517 LINE",
"435 517 OFFCURVE",
"333 671 OFFCURVE",
"333 671 CURVE",
"225 671 LINE",
"225 671 OFFCURVE",
"123 517 OFFCURVE",
"123 517 CURVE",
"200 517 LINE",
"279.31 608.44 LINE"
);
}
);
width = 555;
}
);
unicode = 0302;
},
{
color = 5;
glyphname = caroncomb;
lastChange = "2019-10-01 18:52:35 +0000";
layers = (
{
anchors = (
{
name = _top;
position = "{249, 456}";
},
{
name = top;
position = "{249, 671}";
}
);
layerId = "EB4C1DB0-6908-4E17-8095-5E13FC3F8D5C";
paths = (
{
closed = 1;
nodes = (
"303 517 LINE",
"354.33 593.67 OFFCURVE",
"388.33 645 OFFCURVE",
"405 671 CURVE",
"329 671 LINE",
"297.37 634.62 OFFCURVE",
"270.76 603.95 OFFCURVE",
"249.19 578.98 CURVE",
"170 671 LINE",
"93 671 LINE",
"138.33 602.33 OFFCURVE",
"172.67 551 OFFCURVE",
"196 517 CURVE"
);
}
);
width = 497;
}
);
unicode = 030C;
},
{
color = 5;
glyphname = brevecomb;
lastChange = "2019-10-01 18:15:23 +0000";
layers = (
{
anchors = (
{
name = _top;
position = "{290, 456}";
},
{
name = top;
position = "{290, 670}";
}
);
layerId = "EB4C1DB0-6908-4E17-8095-5E13FC3F8D5C";
paths = (
{
closed = 1;
nodes = (
"462 670 OFFCURVE",
"389 670 OFFCURVE",
"389 670 CURVE SMOOTH",
"389 611 OFFCURVE",
"354 567 OFFCURVE",
"290 567 CURVE SMOOTH",
"231 567 OFFCURVE",
"190 603 OFFCURVE",
"190 670 CURVE SMOOTH",
"190 670 OFFCURVE",
"118 670 OFFCURVE",
"118 670 CURVE SMOOTH",
"118 571 OFFCURVE",
"183 509 OFFCURVE",
"290 509 CURVE SMOOTH",
"395 509 OFFCURVE",
"462 569 OFFCURVE",
"462 670 CURVE SMOOTH"
);
}
);
width = 600;
}
);
unicode = 0306;
},
{
color = 5;
glyphname = ringcomb;
lastChange = "2019-10-01 18:52:35 +0000";
layers = (
{
anchors = (
{
name = _top;
position = "{279, 456}";
},
{
name = top;
position = "{279, 701}";
}
);
layerId = "EB4C1DB0-6908-4E17-8095-5E13FC3F8D5C";
paths = (
{
closed = 1;
nodes = (
"182 554 OFFCURVE",
"225 517 OFFCURVE",
"279 517 CURVE SMOOTH",
"333 517 OFFCURVE",
"376 555 OFFCURVE",
"376 609 CURVE SMOOTH",
"376 664 OFFCURVE",
"334 701 OFFCURVE",
"279 701 CURVE SMOOTH",
"227 701 OFFCURVE",
"182 667 OFFCURVE",
"182 609 CURVE SMOOTH"
);
},
{
closed = 1;
nodes = (
"233 632 OFFCURVE",
"249 653 OFFCURVE",
"279 653 CURVE SMOOTH",
"306 653 OFFCURVE",
"325 635 OFFCURVE",
"325 609 CURVE SMOOTH",
"325 587 OFFCURVE",
"308 566 OFFCURVE",
"279 566 CURVE SMOOTH",
"252 566 OFFCURVE",
"233 584 OFFCURVE",
"233 609 CURVE SMOOTH"
);
}
);
width = 555;
}
);
unicode = 030A;
},
{
color = 5;
glyphname = tildecomb;
lastChange = "2019-10-01 18:52:35 +0000";
layers = (
{
anchors = (
{
name = _top;
position = "{277, 456}";
},
{
name = top;
position = "{277, 640}";
}
);
layerId = "EB4C1DB0-6908-4E17-8095-5E13FC3F8D5C";
paths = (
{
closed = 1;
nodes = (
"161 522 LINE",
"161 542 OFFCURVE",
"181 568 OFFCURVE",
"210 568 CURVE SMOOTH",
"259 568 OFFCURVE",
"277 517 OFFCURVE",
"338 517 CURVE SMOOTH",
"397 517 OFFCURVE",
"451 567 OFFCURVE",
"451 635 CURVE",
"392 635 LINE",
"392 615 OFFCURVE",
"372 589 OFFCURVE",
"343 589 CURVE SMOOTH",
"294 589 OFFCURVE",
"276 640 OFFCURVE",
"215 640 CURVE SMOOTH",
"156 640 OFFCURVE",
"102 590 OFFCURVE",
"102 522 CURVE"
);
}
);
width = 555;
}
);
unicode = 0303;
},
{
color = 5;
glyphname = macroncomb;
lastChange = "2019-10-01 18:52:35 +0000";
layers = (
{
anchors = (
{
name = _top;
position = "{303, 456}";
},
{
name = top;
position = "{303, 601}";
}
);
layerId = "EB4C1DB0-6908-4E17-8095-5E13FC3F8D5C";
paths = (
{
closed = 1;
nodes = (
"162 517 LINE",
"442 517 LINE",
"442 594 LINE",
"162 594 LINE"
);
}
);
width = 600;
}
);
unicode = 0304;
},
{
color = 5;
glyphname = commaturnedabovecomb;
lastChange = "2019-10-01 18:52:35 +0000";
layers = (
{
anchors = (
{
name = _top;
position = "{313, 456}";
},
{
name = top;
position = "{313, 688}";
}
);
layerId = "EB4C1DB0-6908-4E17-8095-5E13FC3F8D5C";
paths = (
{
closed = 1;
nodes = (
"319 688 LINE",
"248 517 LINE",
"348 517 LINE",
"378 688 LINE"
);
}
);
width = 600;
}
);
unicode = 0312;
},
{
color = 5;
glyphname = commaaccentcomb;
lastChange = "2019-10-01 18:52:35 +0000";
layers = (
{
anchors = (
{
name = _bottom;
position = "{307, 0}";
},
{
name = bottom;
position = "{307, -216}";
}
);
layerId = "EB4C1DB0-6908-4E17-8095-5E13FC3F8D5C";
paths = (
{
closed = 1;
nodes = (
"301 -216 LINE",
"372 -45 LINE",
"272 -45 LINE",
"242 -216 LINE"
);
}
);
width = 600;
}
);
unicode = 0326;
},
{
color = 5;
glyphname = cedillacomb;
lastChange = "2019-10-01 19:40:03 +0000";
layers = (
{
anchors = (
{
name = _bottom;
position = "{289, 0}";
},
{
name = bottom;
position = "{297, -234}";
}
);
layerId = "EB4C1DB0-6908-4E17-8095-5E13FC3F8D5C";
paths = (
{
closed = 1;
nodes = (
"222 -87 LINE",
"277 -85 OFFCURVE",
"314 -94 OFFCURVE",
"314 -132 CURVE SMOOTH",
"314 -176 OFFCURVE",
"263 -185 OFFCURVE",
"211 -178 CURVE",
"211 -232 LINE",
"224.33 -233.33 OFFCURVE",
"236.33 -234 OFFCURVE",
"247 -234 CURVE SMOOTH",
"324 -234 OFFCURVE",
"383 -194 OFFCURVE",
"383 -132 CURVE SMOOTH",
"383 -76 OFFCURVE",
"354 -47 OFFCURVE",
"304 -40 CURVE",
"317 10 LINE",
"246 10 LINE"
);
}
);
width = 600;
}
);
unicode = 0327;
},
{
color = 5;
glyphname = ogonekcomb;
lastChange = "2019-10-01 19:40:03 +0000";
layers = (
{
anchors = (
{
name = _ogonek;
position = "{431, 10}";
}
);
layerId = "EB4C1DB0-6908-4E17-8095-5E13FC3F8D5C";
paths = (
{
closed = 1;
nodes = (
"292 12 OFFCURVE",
"268 -16 OFFCURVE",
"268 -70 CURVE SMOOTH",
"268 -133 OFFCURVE",
"325 -173 OFFCURVE",
"403 -173 CURVE SMOOTH",
"414 -173 OFFCURVE",
"426 -172 OFFCURVE",
"439 -171 CURVE",
"438 -95 LINE",
"387 -103 OFFCURVE",
"343 -94 OFFCURVE",
"343 -48 CURVE SMOOTH",
"343 -10 OFFCURVE",
"373 2 OFFCURVE",
"428 0 CURVE",
"406 22 LINE",
"346 22 LINE"
);
}
);
width = 600;
}
);
unicode = 0328;
},
{
color = 5;
glyphname = strokeshortcomb;
lastChange = "2019-10-01 19:40:03 +0000";
layers = (
{
anchors = (
{
name = _center;
position = "{294, 286}";
}
);
layerId = "EB4C1DB0-6908-4E17-8095-5E13FC3F8D5C";
paths = (
{
closed = 1;
nodes = (
"169 248 LINE",
"419 248 LINE",
"419 323 LINE",
"169 323 LINE"
);
}
);
width = 600;
}
);
unicode = 0335;
},
{
color = 5;
glyphname = strokelongcomb;
lastChange = "2019-10-01 19:40:03 +0000";
layers = (
{
anchors = (
{
name = _center;
position = "{294, 286}";
}
);
layerId = "EB4C1DB0-6908-4E17-8095-5E13FC3F8D5C";
paths = (
{
closed = 1;
nodes = (
"-6 248 LINE",
"594 248 LINE",
"594 323 LINE",
"-6 323 LINE"
);
}
);
width = 600;
}
);
unicode = 0336;
},
{
color = 5;
glyphname = slashshortcomb;
lastChange = "2019-10-01 21:12:45 +0000";
layers = (
{
anchors = (
{
name = _center;
position = "{284, 228}";
}
);
layerId = "EB4C1DB0-6908-4E17-8095-5E13FC3F8D5C";
paths = (
{
closed = 1;
nodes = (
"422 354 LINE",
"382 387 LINE",
"145 96 LINE",
"185 64 LINE"
);
}
);
width = 600;
}
);
unicode = 0337;
},
{
color = 5;
glyphname = slashlongcomb;
lastChange = "2019-10-01 19:40:03 +0000";
layers = (
{
anchors = (
{
name = _center;
position = "{336, 277}";
}
);
layerId = "EB4C1DB0-6908-4E17-8095-5E13FC3F8D5C";
paths = (
{
closed = 1;
nodes = (
"591 545 LINE",
"546 581 LINE",
"81 9 LINE",
"126 -27 LINE"
);
}
);
width = 600;
}
);
unicode = 0338;
},
{
color = 5;
glyphname = dieresiscomb.case;
lastChange = "2019-10-01 19:40:03 +0000";
layers = (
{
anchors = (
{
name = _top;
position = "{325, 860}";
},
{
name = top;
position = "{325, 860}";
}
);
layerId = "EB4C1DB0-6908-4E17-8095-5E13FC3F8D5C";
paths = (
{
closed = 1;
nodes = (
"419.33 727 OFFCURVE",
"404 721 OFFCURVE",
"392 709 CURVE SMOOTH",
"380 697 OFFCURVE",
"374 682.67 OFFCURVE",
"374 666 CURVE SMOOTH",
"374 648.67 OFFCURVE",
"380 634 OFFCURVE",
"392 622 CURVE SMOOTH",
"404 610 OFFCURVE",
"419.33 604 OFFCURVE",
"438 604 CURVE SMOOTH",
"456.67 604 OFFCURVE",
"472 610 OFFCURVE",
"484 622 CURVE SMOOTH",
"496 634 OFFCURVE",
"502 648.67 OFFCURVE",
"502 666 CURVE SMOOTH",
"502 682.67 OFFCURVE",
"496 697 OFFCURVE",
"484 709 CURVE SMOOTH",
"472 721 OFFCURVE",
"456.67 727 OFFCURVE",
"438 727 CURVE SMOOTH"
);
},
{
closed = 1;
nodes = (
"193.33 727 OFFCURVE",
"178 721 OFFCURVE",
"166 709 CURVE SMOOTH",
"154 697 OFFCURVE",
"148 682.67 OFFCURVE",
"148 666 CURVE SMOOTH",
"148 648.67 OFFCURVE",
"154 634 OFFCURVE",
"166 622 CURVE SMOOTH",
"178 610 OFFCURVE",
"193.33 604 OFFCURVE",
"212 604 CURVE SMOOTH",
"231.33 604 OFFCURVE",
"247 610 OFFCURVE",
"259 622 CURVE SMOOTH",
"270.33 634 OFFCURVE",
"276 648.67 OFFCURVE",
"276 666 CURVE SMOOTH",
"276 682.67 OFFCURVE",
"270.33 697 OFFCURVE",
"259 709 CURVE SMOOTH",
"247 721 OFFCURVE",
"231.33 727 OFFCURVE",
"212 727 CURVE SMOOTH"
);
}
);
width = 655;
}
);
},
{
color = 5;
glyphname = dotaccentcomb.case;
lastChange = "2019-10-01 19:40:03 +0000";
layers = (
{
anchors = (
{
name = _top;
position = "{335, 860}";
},
{
name = top;
position = "{335, 753}";
}
);
layerId = "EB4C1DB0-6908-4E17-8095-5E13FC3F8D5C";
paths = (
{
closed = 1;
nodes = (
"268 653 OFFCURVE",
"292 625 OFFCURVE",
"334 625 CURVE SMOOTH",
"374 625 OFFCURVE",
"401 650 OFFCURVE",
"401 689 CURVE SMOOTH",
"401 725 OFFCURVE",
"377 753 OFFCURVE",
"334 753 CURVE SMOOTH",
"295 753 OFFCURVE",
"268 727 OFFCURVE",
"268 689 CURVE SMOOTH"
);
}
);
width = 637;
}
);
},
{
color = 5;
glyphname = gravecomb.case;
lastChange = "2019-10-01 19:40:03 +0000";
layers = (
{
anchors = (
{
name = _top;
position = "{318, 860}";
},
{
name = top;
position = "{271, 758}";
}
);
layerId = "EB4C1DB0-6908-4E17-8095-5E13FC3F8D5C";
paths = (
{
closed = 1;
nodes = (
"381 604 LINE",
"289 758 LINE",
"161 758 LINE",
"289 604 LINE"
);
}
);
width = 655;
}
);
},
{
color = 5;
glyphname = acutecomb.case;
lastChange = "2019-10-01 19:40:03 +0000";
layers = (
{
anchors = (
{
name = _top;
position = "{346, 860}";
},
{
name = top;
position = "{384, 758}";
}
);
layerId = "EB4C1DB0-6908-4E17-8095-5E13FC3F8D5C";
paths = (
{
closed = 1;
nodes = (
"366 604 LINE",
"494 758 LINE",
"366 758 LINE",
"274 604 LINE"
);
}
);
width = 655;
}
);
},
{
color = 5;
glyphname = hungarumlautcomb.case;
lastChange = "2019-10-01 19:40:03 +0000";
layers = (
{
anchors = (
{
name = _top;
position = "{351, 860}";
},
{
name = top;
position = "{351, 758}";
}
);
layerId = "EB4C1DB0-6908-4E17-8095-5E13FC3F8D5C";
paths = (
{
closed = 1;
nodes = (
"273 604 LINE",
"401 758 LINE",
"273 758 LINE",
"181 604 LINE"
);
},
{
closed = 1;
nodes = (
"468 604 LINE",
"596 758 LINE",
"468 758 LINE",
"376 604 LINE"
);
}
);
width = 666;
}
);
},
{
color = 5;
glyphname = caroncomb.alt.case;
lastChange = "2019-10-01 19:40:03 +0000";
layers = (
{
anchors = (
{
name = _topright;
position = "{446, 860}";
}
);
layerId = "EB4C1DB0-6908-4E17-8095-5E13FC3F8D5C";
paths = (
{
closed = 1;
nodes = (
"328 383 LINE",
"399 554 LINE",
"299 554 LINE",
"269 383 LINE"
);
}
);
width = 523;
}
);
},
{
color = 5;
glyphname = circumflexcomb.case;
lastChange = "2019-10-01 19:40:03 +0000";
layers = (
{
anchors = (
{
name = _top;
position = "{328, 860}";
},
{
name = top;
position = "{328, 758}";
}
);
layerId = "EB4C1DB0-6908-4E17-8095-5E13FC3F8D5C";
paths = (
{
closed = 1;
nodes = (
"407 604 LINE",
"484 604 LINE",
"381 758 LINE",
"274 758 LINE",
"222.67 681.33 OFFCURVE",
"188.67 630 OFFCURVE",
"172 604 CURVE",
"248 604 LINE",
"327.81 696.02 LINE"
);
}
);
width = 655;
}
);
},
{
color = 5;
glyphname = caroncomb.case;
lastChange = "2019-10-01 19:40:03 +0000";
layers = (
{
anchors = (
{
name = _top;
position = "{277, 860}";
},
{
name = top;
position = "{277, 860}";
}
);
layerId = "EB4C1DB0-6908-4E17-8095-5E13FC3F8D5C";
paths = (
{
closed = 1;
nodes = (
"330 604 LINE",
"433 758 LINE",
"356 758 LINE",
"356 758 OFFCURVE",
"276 666 OFFCURVE",
"276.19 665.98 CURVE",
"197 758 LINE",
"120 758 LINE",
"223 604 LINE"
);
}
);
width = 553;
}
);
},
{
color = 5;
glyphname = brevecomb.case;
lastChange = "2019-10-01 19:40:03 +0000";
layers = (
{
anchors = (
{
name = _top;
position = "{327, 860}";
},
{
name = top;
position = "{327, 758}";
}
);
layerId = "EB4C1DB0-6908-4E17-8095-5E13FC3F8D5C";
paths = (
{
closed = 1;
nodes = (
"499 758 OFFCURVE",
"426 758 OFFCURVE",
"426 758 CURVE SMOOTH",
"426 699 OFFCURVE",
"391 655 OFFCURVE",
"327 655 CURVE SMOOTH",
"268 655 OFFCURVE",
"227 691 OFFCURVE",
"227 758 CURVE SMOOTH",
"227 758 OFFCURVE",
"155 758 OFFCURVE",
"155 758 CURVE SMOOTH",
"155 659 OFFCURVE",
"220 597 OFFCURVE",
"327 597 CURVE SMOOTH",
"432 597 OFFCURVE",
"499 657 OFFCURVE",
"499 758 CURVE SMOOTH"
);
}
);
width = 655;
}
);
},
{
color = 5;
glyphname = ringcomb.case;
lastChange = "2019-10-01 19:40:03 +0000";
layers = (
{
layerId = "EB4C1DB0-6908-4E17-8095-5E13FC3F8D5C";
paths = (
{
closed = 1;
nodes = (
"282 708 OFFCURVE",
"299 730 OFFCURVE",
"328 730 CURVE SMOOTH",
"354 730 OFFCURVE",
"374 709 OFFCURVE",
"374 686 CURVE SMOOTH",
"374 665 OFFCURVE",
"357 643 OFFCURVE",
"328 643 CURVE SMOOTH",
"301 643 OFFCURVE",
"282 661 OFFCURVE",
"282 686 CURVE SMOOTH"
);
},
{
closed = 1;
nodes = (
"230 631 OFFCURVE",
"275 594 OFFCURVE",
"328 594 CURVE SMOOTH",
"379 594 OFFCURVE",
"425 629 OFFCURVE",
"425 686 CURVE SMOOTH",
"425 741 OFFCURVE",
"383 778 OFFCURVE",
"328 778 CURVE SMOOTH",
"273 778 OFFCURVE",
"230 741 OFFCURVE",
"230 686 CURVE SMOOTH"
);
}
);
width = 655;
}
);
},
{
color = 5;
glyphname = tildecomb.case;
lastChange = "2019-10-01 19:40:03 +0000";
layers = (
{
anchors = (
{
name = _top;
position = "{328, 860}";
},
{
name = top;
position = "{328, 727}";
}
);
layerId = "EB4C1DB0-6908-4E17-8095-5E13FC3F8D5C";
paths = (
{
closed = 1;
nodes = (
"212 609 LINE",
"212 618 OFFCURVE",
"216 628 OFFCURVE",
"225 639 CURVE SMOOTH",
"234 650 OFFCURVE",
"246 655 OFFCURVE",
"261 655 CURVE SMOOTH",
"278 655 OFFCURVE",
"298 647 OFFCURVE",
"319 630 CURVE SMOOTH",
"340 613 OFFCURVE",
"364 604 OFFCURVE",
"389 604 CURVE SMOOTH",
"418 604 OFFCURVE",
"444 615 OFFCURVE",
"467 637 CURVE SMOOTH",
"490 660 OFFCURVE",
"502 688 OFFCURVE",
"502 722 CURVE",
"443 722 LINE",
"443 713 OFFCURVE",
"439 703 OFFCURVE",
"430 692 CURVE SMOOTH",
"421 681 OFFCURVE",
"409 676 OFFCURVE",
"394 676 CURVE SMOOTH",
"377 676 OFFCURVE",
"358 684 OFFCURVE",
"337 701 CURVE SMOOTH",
"316 718 OFFCURVE",
"292 727 OFFCURVE",
"266 727 CURVE SMOOTH",
"237 727 OFFCURVE",
"211 716 OFFCURVE",
"188 694 CURVE SMOOTH",
"165 671 OFFCURVE",
"154 643 OFFCURVE",
"154 609 CURVE"
);
}
);
width = 655;
}
);
},
{
color = 5;
glyphname = macroncomb.case;
lastChange = "2019-10-01 19:40:03 +0000";
layers = (
{
anchors = (
{
name = _top;
position = "{289, 860}";
},
{
name = top;
position = "{289, 688}";
}
);
layerId = "EB4C1DB0-6908-4E17-8095-5E13FC3F8D5C";
paths = (
{
closed = 1;
nodes = (
"148 604 LINE",
"428 604 LINE",
"428 681 LINE",
"148 681 LINE"
);
}
);
width = 569;
}
);
},
